M48
;GenerationSoftware,Autodesk,EAGLE,9.6.2*%
;CreationDate,2023-04-09T21:02:04Z*%
FMAT,2
ICI,OFF
METRIC,TZ,000.000
T4C0.350
T3C3.650
T2C5.000
%
G90
M71
T2
X10000Y8000
T3
X10000Y45000
X10000Y18000
X10000Y36000
T4
X3904Y10540
X12794Y20794
X14572Y12572
X5428Y3428
X14572Y3428
X5428Y12572
X10000Y1396
X10000Y14604
X16604Y8000
X3396Y8000
X7206Y6222
X8222Y5206
X11778Y5206
X12794Y6222
X12794Y9778
X11778Y10794
X8222Y10794
X7206Y9778
X10000Y4698
X10000Y11302
X13302Y8000
X6698Y8000
X12794Y15206
X7206Y20794
X11778Y46778
X12794Y42206
X12794Y47794
X7206Y47794
X7206Y42206
X5936Y45000
X10000Y49064
X10000Y40936
X14064Y45000
X8222Y46778
X8222Y43222
X11778Y43222
X3904Y5460
X10000Y47540
X10000Y42460
X7460Y45000
X12540Y45000
X12540Y14096
X12540Y1904
X7460Y1904
X7460Y14096
X16096Y10540
X16096Y5460
X11162Y51665
X10000Y33460
X10000Y38540
X12540Y36000
X7460Y36000
X1829Y41605
X2591Y41605
X3353Y41605
X4115Y41605
X4115Y40843
X3353Y40843
X2591Y40843
X1829Y40843
X8222Y34222
X10400Y51665
X9638Y51665
X8876Y51665
X11162Y50903
X10400Y50903
X9638Y50903
X8876Y50903
X18593Y40843
X17831Y40843
X17069Y40843
X16307Y40843
X12540Y18000
X7206Y15206
X5936Y18000
X10000Y22064
X10000Y13936
X14064Y18000
X8222Y19778
X8222Y16222
X11778Y16222
X11778Y19778
X10000Y20540
X10000Y15460
X7460Y18000
X15545Y40843
X7206Y38794
X7206Y33206
X12794Y33206
X12794Y38794
X14064Y36000
X10000Y31936
X10000Y40064
X5936Y36000
X11778Y34222
X11778Y37778
X8222Y37778
M30