G04 EAGLE Gerber RS-274X export*
G75*
%MOMM*%
%FSLAX34Y34*%
%LPD*%
%INBottom Copper*%
%IPPOS*%
%AMOC8*
5,1,8,0,0,1.08239X$1,22.5*%
G01*
%ADD10C,9.300000*%
%ADD11C,14.750000*%
%ADD12C,0.654800*%

G36*
X50050Y399631D02*
X50050Y399631D01*
X50101Y399633D01*
X50133Y399651D01*
X50169Y399659D01*
X50208Y399692D01*
X50253Y399716D01*
X50274Y399746D01*
X50302Y399769D01*
X50323Y399816D01*
X50353Y399858D01*
X50361Y399900D01*
X50373Y399928D01*
X50372Y399958D01*
X50380Y400000D01*
X50380Y479843D01*
X74979Y504441D01*
X125022Y504799D01*
X149620Y479844D01*
X149620Y400000D01*
X149631Y399950D01*
X149633Y399899D01*
X149651Y399867D01*
X149659Y399831D01*
X149692Y399792D01*
X149716Y399747D01*
X149746Y399726D01*
X149769Y399698D01*
X149816Y399677D01*
X149858Y399647D01*
X149900Y399639D01*
X149928Y399627D01*
X149958Y399628D01*
X150000Y399620D01*
X190000Y399620D01*
X190050Y399631D01*
X190101Y399633D01*
X190133Y399651D01*
X190169Y399659D01*
X190208Y399692D01*
X190253Y399716D01*
X190274Y399746D01*
X190302Y399769D01*
X190323Y399816D01*
X190353Y399858D01*
X190361Y399900D01*
X190373Y399928D01*
X190372Y399958D01*
X190380Y400000D01*
X190380Y530000D01*
X190363Y530074D01*
X190350Y530149D01*
X190343Y530159D01*
X190341Y530169D01*
X190317Y530198D01*
X190269Y530269D01*
X183445Y537093D01*
X183380Y537133D01*
X183318Y537177D01*
X183306Y537179D01*
X183298Y537184D01*
X183261Y537188D01*
X183176Y537204D01*
X16824Y537204D01*
X16750Y537187D01*
X16675Y537174D01*
X16665Y537167D01*
X16655Y537165D01*
X16626Y537141D01*
X16555Y537093D01*
X9731Y530269D01*
X9691Y530204D01*
X9647Y530142D01*
X9645Y530130D01*
X9640Y530122D01*
X9636Y530085D01*
X9620Y530000D01*
X9620Y400000D01*
X9631Y399950D01*
X9633Y399899D01*
X9651Y399867D01*
X9659Y399831D01*
X9692Y399792D01*
X9716Y399747D01*
X9746Y399726D01*
X9769Y399698D01*
X9816Y399677D01*
X9858Y399647D01*
X9900Y399639D01*
X9928Y399627D01*
X9958Y399628D01*
X10000Y399620D01*
X50000Y399620D01*
X50050Y399631D01*
G37*
D10*
X100000Y360000D03*
X100000Y180000D03*
D11*
X100000Y80000D03*
D10*
X100000Y450000D03*
D12*
X155448Y408432D03*
X163068Y408432D03*
X170688Y408432D03*
X178308Y408432D03*
X185928Y408432D03*
X88764Y509032D03*
X96384Y509032D03*
X104004Y509032D03*
X111624Y509032D03*
X88764Y516652D03*
X96384Y516652D03*
X104004Y516652D03*
X111624Y516652D03*
X18288Y408432D03*
X25908Y408432D03*
X33528Y408432D03*
X41148Y408432D03*
X41148Y416052D03*
X33528Y416052D03*
X25908Y416052D03*
X18288Y416052D03*
M02*
