G04 EAGLE Gerber RS-274X export*
G75*
%MOMM*%
%FSLAX34Y34*%
%LPD*%
%IN*%
%IPPOS*%
%AMOC8*
5,1,8,0,0,1.08239X$1,22.5*%
G01*
%ADD10C,0.254000*%


D10*
X0Y145000D02*
X20000Y125000D01*
X20000Y40000D01*
X60000Y0D01*
X140000Y0D01*
X180000Y40000D01*
X180000Y125000D01*
X200000Y145000D01*
X200000Y540000D01*
X0Y540000D01*
X0Y145000D01*
X74772Y361750D02*
X75110Y361683D01*
X75429Y361551D01*
X75716Y361359D01*
X75959Y361116D01*
X76151Y360829D01*
X76283Y360510D01*
X76350Y360172D01*
X76350Y359828D01*
X76283Y359490D01*
X76151Y359171D01*
X75959Y358884D01*
X75716Y358641D01*
X75429Y358449D01*
X75110Y358317D01*
X74772Y358250D01*
X74428Y358250D01*
X74090Y358317D01*
X73771Y358449D01*
X73484Y358641D01*
X73241Y358884D01*
X73049Y359171D01*
X72917Y359490D01*
X72850Y359828D01*
X72850Y360172D01*
X72917Y360510D01*
X73049Y360829D01*
X73241Y361116D01*
X73484Y361359D01*
X73771Y361551D01*
X74090Y361683D01*
X74428Y361750D01*
X74772Y361750D01*
X125572Y361750D02*
X125910Y361683D01*
X126229Y361551D01*
X126516Y361359D01*
X126759Y361116D01*
X126951Y360829D01*
X127083Y360510D01*
X127150Y360172D01*
X127150Y359828D01*
X127083Y359490D01*
X126951Y359171D01*
X126759Y358884D01*
X126516Y358641D01*
X126229Y358449D01*
X125910Y358317D01*
X125572Y358250D01*
X125228Y358250D01*
X124890Y358317D01*
X124571Y358449D01*
X124284Y358641D01*
X124041Y358884D01*
X123849Y359171D01*
X123717Y359490D01*
X123650Y359828D01*
X123650Y360172D01*
X123717Y360510D01*
X123849Y360829D01*
X124041Y361116D01*
X124284Y361359D01*
X124571Y361551D01*
X124890Y361683D01*
X125228Y361750D01*
X125572Y361750D01*
X100172Y387150D02*
X100510Y387083D01*
X100829Y386951D01*
X101116Y386759D01*
X101359Y386516D01*
X101551Y386229D01*
X101683Y385910D01*
X101750Y385572D01*
X101750Y385228D01*
X101683Y384890D01*
X101551Y384571D01*
X101359Y384284D01*
X101116Y384041D01*
X100829Y383849D01*
X100510Y383717D01*
X100172Y383650D01*
X99828Y383650D01*
X99490Y383717D01*
X99171Y383849D01*
X98884Y384041D01*
X98641Y384284D01*
X98449Y384571D01*
X98317Y384890D01*
X98250Y385228D01*
X98250Y385572D01*
X98317Y385910D01*
X98449Y386229D01*
X98641Y386516D01*
X98884Y386759D01*
X99171Y386951D01*
X99490Y387083D01*
X99828Y387150D01*
X100172Y387150D01*
X100172Y336350D02*
X100510Y336283D01*
X100829Y336151D01*
X101116Y335959D01*
X101359Y335716D01*
X101551Y335429D01*
X101683Y335110D01*
X101750Y334772D01*
X101750Y334428D01*
X101683Y334090D01*
X101551Y333771D01*
X101359Y333484D01*
X101116Y333241D01*
X100829Y333049D01*
X100510Y332917D01*
X100172Y332850D01*
X99828Y332850D01*
X99490Y332917D01*
X99171Y333049D01*
X98884Y333241D01*
X98641Y333484D01*
X98449Y333771D01*
X98317Y334090D01*
X98250Y334428D01*
X98250Y334772D01*
X98317Y335110D01*
X98449Y335429D01*
X98641Y335716D01*
X98884Y335959D01*
X99171Y336151D01*
X99490Y336283D01*
X99828Y336350D01*
X100172Y336350D01*
X82392Y343970D02*
X82730Y343903D01*
X83049Y343771D01*
X83336Y343579D01*
X83579Y343336D01*
X83771Y343049D01*
X83903Y342730D01*
X83970Y342392D01*
X83970Y342048D01*
X83903Y341710D01*
X83771Y341391D01*
X83579Y341104D01*
X83336Y340861D01*
X83049Y340669D01*
X82730Y340537D01*
X82392Y340470D01*
X82048Y340470D01*
X81710Y340537D01*
X81391Y340669D01*
X81104Y340861D01*
X80861Y341104D01*
X80669Y341391D01*
X80537Y341710D01*
X80470Y342048D01*
X80470Y342392D01*
X80537Y342730D01*
X80669Y343049D01*
X80861Y343336D01*
X81104Y343579D01*
X81391Y343771D01*
X81710Y343903D01*
X82048Y343970D01*
X82392Y343970D01*
X82392Y379530D02*
X82730Y379463D01*
X83049Y379331D01*
X83336Y379139D01*
X83579Y378896D01*
X83771Y378609D01*
X83903Y378290D01*
X83970Y377952D01*
X83970Y377608D01*
X83903Y377270D01*
X83771Y376951D01*
X83579Y376664D01*
X83336Y376421D01*
X83049Y376229D01*
X82730Y376097D01*
X82392Y376030D01*
X82048Y376030D01*
X81710Y376097D01*
X81391Y376229D01*
X81104Y376421D01*
X80861Y376664D01*
X80669Y376951D01*
X80537Y377270D01*
X80470Y377608D01*
X80470Y377952D01*
X80537Y378290D01*
X80669Y378609D01*
X80861Y378896D01*
X81104Y379139D01*
X81391Y379331D01*
X81710Y379463D01*
X82048Y379530D01*
X82392Y379530D01*
X117952Y379530D02*
X118290Y379463D01*
X118609Y379331D01*
X118896Y379139D01*
X119139Y378896D01*
X119331Y378609D01*
X119463Y378290D01*
X119530Y377952D01*
X119530Y377608D01*
X119463Y377270D01*
X119331Y376951D01*
X119139Y376664D01*
X118896Y376421D01*
X118609Y376229D01*
X118290Y376097D01*
X117952Y376030D01*
X117608Y376030D01*
X117270Y376097D01*
X116951Y376229D01*
X116664Y376421D01*
X116421Y376664D01*
X116229Y376951D01*
X116097Y377270D01*
X116030Y377608D01*
X116030Y377952D01*
X116097Y378290D01*
X116229Y378609D01*
X116421Y378896D01*
X116664Y379139D01*
X116951Y379331D01*
X117270Y379463D01*
X117608Y379530D01*
X117952Y379530D01*
X117952Y343970D02*
X118290Y343903D01*
X118609Y343771D01*
X118896Y343579D01*
X119139Y343336D01*
X119331Y343049D01*
X119463Y342730D01*
X119530Y342392D01*
X119530Y342048D01*
X119463Y341710D01*
X119331Y341391D01*
X119139Y341104D01*
X118896Y340861D01*
X118609Y340669D01*
X118290Y340537D01*
X117952Y340470D01*
X117608Y340470D01*
X117270Y340537D01*
X116951Y340669D01*
X116664Y340861D01*
X116421Y341104D01*
X116229Y341391D01*
X116097Y341710D01*
X116030Y342048D01*
X116030Y342392D01*
X116097Y342730D01*
X116229Y343049D01*
X116421Y343336D01*
X116664Y343579D01*
X116951Y343771D01*
X117270Y343903D01*
X117608Y343970D01*
X117952Y343970D01*
X59532Y361750D02*
X59870Y361683D01*
X60189Y361551D01*
X60476Y361359D01*
X60719Y361116D01*
X60911Y360829D01*
X61043Y360510D01*
X61110Y360172D01*
X61110Y359828D01*
X61043Y359490D01*
X60911Y359171D01*
X60719Y358884D01*
X60476Y358641D01*
X60189Y358449D01*
X59870Y358317D01*
X59532Y358250D01*
X59188Y358250D01*
X58850Y358317D01*
X58531Y358449D01*
X58244Y358641D01*
X58001Y358884D01*
X57809Y359171D01*
X57677Y359490D01*
X57610Y359828D01*
X57610Y360172D01*
X57677Y360510D01*
X57809Y360829D01*
X58001Y361116D01*
X58244Y361359D01*
X58531Y361551D01*
X58850Y361683D01*
X59188Y361750D01*
X59532Y361750D01*
X100172Y402390D02*
X100510Y402323D01*
X100829Y402191D01*
X101116Y401999D01*
X101359Y401756D01*
X101551Y401469D01*
X101683Y401150D01*
X101750Y400812D01*
X101750Y400468D01*
X101683Y400130D01*
X101551Y399811D01*
X101359Y399524D01*
X101116Y399281D01*
X100829Y399089D01*
X100510Y398957D01*
X100172Y398890D01*
X99828Y398890D01*
X99490Y398957D01*
X99171Y399089D01*
X98884Y399281D01*
X98641Y399524D01*
X98449Y399811D01*
X98317Y400130D01*
X98250Y400468D01*
X98250Y400812D01*
X98317Y401150D01*
X98449Y401469D01*
X98641Y401756D01*
X98884Y401999D01*
X99171Y402191D01*
X99490Y402323D01*
X99828Y402390D01*
X100172Y402390D01*
X100172Y321110D02*
X100510Y321043D01*
X100829Y320911D01*
X101116Y320719D01*
X101359Y320476D01*
X101551Y320189D01*
X101683Y319870D01*
X101750Y319532D01*
X101750Y319188D01*
X101683Y318850D01*
X101551Y318531D01*
X101359Y318244D01*
X101116Y318001D01*
X100829Y317809D01*
X100510Y317677D01*
X100172Y317610D01*
X99828Y317610D01*
X99490Y317677D01*
X99171Y317809D01*
X98884Y318001D01*
X98641Y318244D01*
X98449Y318531D01*
X98317Y318850D01*
X98250Y319188D01*
X98250Y319532D01*
X98317Y319870D01*
X98449Y320189D01*
X98641Y320476D01*
X98884Y320719D01*
X99171Y320911D01*
X99490Y321043D01*
X99828Y321110D01*
X100172Y321110D01*
X140812Y361750D02*
X141150Y361683D01*
X141469Y361551D01*
X141756Y361359D01*
X141999Y361116D01*
X142191Y360829D01*
X142323Y360510D01*
X142390Y360172D01*
X142390Y359828D01*
X142323Y359490D01*
X142191Y359171D01*
X141999Y358884D01*
X141756Y358641D01*
X141469Y358449D01*
X141150Y358317D01*
X140812Y358250D01*
X140468Y358250D01*
X140130Y358317D01*
X139811Y358449D01*
X139524Y358641D01*
X139281Y358884D01*
X139089Y359171D01*
X138957Y359490D01*
X138890Y359828D01*
X138890Y360172D01*
X138957Y360510D01*
X139089Y360829D01*
X139281Y361116D01*
X139524Y361359D01*
X139811Y361551D01*
X140130Y361683D01*
X140468Y361750D01*
X140812Y361750D01*
X128112Y389690D02*
X128450Y389623D01*
X128769Y389491D01*
X129056Y389299D01*
X129299Y389056D01*
X129491Y388769D01*
X129623Y388450D01*
X129690Y388112D01*
X129690Y387768D01*
X129623Y387430D01*
X129491Y387111D01*
X129299Y386824D01*
X129056Y386581D01*
X128769Y386389D01*
X128450Y386257D01*
X128112Y386190D01*
X127768Y386190D01*
X127430Y386257D01*
X127111Y386389D01*
X126824Y386581D01*
X126581Y386824D01*
X126389Y387111D01*
X126257Y387430D01*
X126190Y387768D01*
X126190Y388112D01*
X126257Y388450D01*
X126389Y388769D01*
X126581Y389056D01*
X126824Y389299D01*
X127111Y389491D01*
X127430Y389623D01*
X127768Y389690D01*
X128112Y389690D01*
X128112Y333810D02*
X128450Y333743D01*
X128769Y333611D01*
X129056Y333419D01*
X129299Y333176D01*
X129491Y332889D01*
X129623Y332570D01*
X129690Y332232D01*
X129690Y331888D01*
X129623Y331550D01*
X129491Y331231D01*
X129299Y330944D01*
X129056Y330701D01*
X128769Y330509D01*
X128450Y330377D01*
X128112Y330310D01*
X127768Y330310D01*
X127430Y330377D01*
X127111Y330509D01*
X126824Y330701D01*
X126581Y330944D01*
X126389Y331231D01*
X126257Y331550D01*
X126190Y331888D01*
X126190Y332232D01*
X126257Y332570D01*
X126389Y332889D01*
X126581Y333176D01*
X126824Y333419D01*
X127111Y333611D01*
X127430Y333743D01*
X127768Y333810D01*
X128112Y333810D01*
X72232Y333810D02*
X72570Y333743D01*
X72889Y333611D01*
X73176Y333419D01*
X73419Y333176D01*
X73611Y332889D01*
X73743Y332570D01*
X73810Y332232D01*
X73810Y331888D01*
X73743Y331550D01*
X73611Y331231D01*
X73419Y330944D01*
X73176Y330701D01*
X72889Y330509D01*
X72570Y330377D01*
X72232Y330310D01*
X71888Y330310D01*
X71550Y330377D01*
X71231Y330509D01*
X70944Y330701D01*
X70701Y330944D01*
X70509Y331231D01*
X70377Y331550D01*
X70310Y331888D01*
X70310Y332232D01*
X70377Y332570D01*
X70509Y332889D01*
X70701Y333176D01*
X70944Y333419D01*
X71231Y333611D01*
X71550Y333743D01*
X71888Y333810D01*
X72232Y333810D01*
X72232Y389690D02*
X72570Y389623D01*
X72889Y389491D01*
X73176Y389299D01*
X73419Y389056D01*
X73611Y388769D01*
X73743Y388450D01*
X73810Y388112D01*
X73810Y387768D01*
X73743Y387430D01*
X73611Y387111D01*
X73419Y386824D01*
X73176Y386581D01*
X72889Y386389D01*
X72570Y386257D01*
X72232Y386190D01*
X71888Y386190D01*
X71550Y386257D01*
X71231Y386389D01*
X70944Y386581D01*
X70701Y386824D01*
X70509Y387111D01*
X70377Y387430D01*
X70310Y387768D01*
X70310Y388112D01*
X70377Y388450D01*
X70509Y388769D01*
X70701Y389056D01*
X70944Y389299D01*
X71231Y389491D01*
X71550Y389623D01*
X71888Y389690D01*
X72232Y389690D01*
X125228Y178250D02*
X124890Y178317D01*
X124571Y178449D01*
X124284Y178641D01*
X124041Y178884D01*
X123849Y179171D01*
X123717Y179490D01*
X123650Y179828D01*
X123650Y180172D01*
X123717Y180510D01*
X123849Y180829D01*
X124041Y181116D01*
X124284Y181359D01*
X124571Y181551D01*
X124890Y181683D01*
X125228Y181750D01*
X125572Y181750D01*
X125910Y181683D01*
X126229Y181551D01*
X126516Y181359D01*
X126759Y181116D01*
X126951Y180829D01*
X127083Y180510D01*
X127150Y180172D01*
X127150Y179828D01*
X127083Y179490D01*
X126951Y179171D01*
X126759Y178884D01*
X126516Y178641D01*
X126229Y178449D01*
X125910Y178317D01*
X125572Y178250D01*
X125228Y178250D01*
X74428Y178250D02*
X74090Y178317D01*
X73771Y178449D01*
X73484Y178641D01*
X73241Y178884D01*
X73049Y179171D01*
X72917Y179490D01*
X72850Y179828D01*
X72850Y180172D01*
X72917Y180510D01*
X73049Y180829D01*
X73241Y181116D01*
X73484Y181359D01*
X73771Y181551D01*
X74090Y181683D01*
X74428Y181750D01*
X74772Y181750D01*
X75110Y181683D01*
X75429Y181551D01*
X75716Y181359D01*
X75959Y181116D01*
X76151Y180829D01*
X76283Y180510D01*
X76350Y180172D01*
X76350Y179828D01*
X76283Y179490D01*
X76151Y179171D01*
X75959Y178884D01*
X75716Y178641D01*
X75429Y178449D01*
X75110Y178317D01*
X74772Y178250D01*
X74428Y178250D01*
X99828Y152850D02*
X99490Y152917D01*
X99171Y153049D01*
X98884Y153241D01*
X98641Y153484D01*
X98449Y153771D01*
X98317Y154090D01*
X98250Y154428D01*
X98250Y154772D01*
X98317Y155110D01*
X98449Y155429D01*
X98641Y155716D01*
X98884Y155959D01*
X99171Y156151D01*
X99490Y156283D01*
X99828Y156350D01*
X100172Y156350D01*
X100510Y156283D01*
X100829Y156151D01*
X101116Y155959D01*
X101359Y155716D01*
X101551Y155429D01*
X101683Y155110D01*
X101750Y154772D01*
X101750Y154428D01*
X101683Y154090D01*
X101551Y153771D01*
X101359Y153484D01*
X101116Y153241D01*
X100829Y153049D01*
X100510Y152917D01*
X100172Y152850D01*
X99828Y152850D01*
X99828Y203650D02*
X99490Y203717D01*
X99171Y203849D01*
X98884Y204041D01*
X98641Y204284D01*
X98449Y204571D01*
X98317Y204890D01*
X98250Y205228D01*
X98250Y205572D01*
X98317Y205910D01*
X98449Y206229D01*
X98641Y206516D01*
X98884Y206759D01*
X99171Y206951D01*
X99490Y207083D01*
X99828Y207150D01*
X100172Y207150D01*
X100510Y207083D01*
X100829Y206951D01*
X101116Y206759D01*
X101359Y206516D01*
X101551Y206229D01*
X101683Y205910D01*
X101750Y205572D01*
X101750Y205228D01*
X101683Y204890D01*
X101551Y204571D01*
X101359Y204284D01*
X101116Y204041D01*
X100829Y203849D01*
X100510Y203717D01*
X100172Y203650D01*
X99828Y203650D01*
X117608Y196030D02*
X117270Y196097D01*
X116951Y196229D01*
X116664Y196421D01*
X116421Y196664D01*
X116229Y196951D01*
X116097Y197270D01*
X116030Y197608D01*
X116030Y197952D01*
X116097Y198290D01*
X116229Y198609D01*
X116421Y198896D01*
X116664Y199139D01*
X116951Y199331D01*
X117270Y199463D01*
X117608Y199530D01*
X117952Y199530D01*
X118290Y199463D01*
X118609Y199331D01*
X118896Y199139D01*
X119139Y198896D01*
X119331Y198609D01*
X119463Y198290D01*
X119530Y197952D01*
X119530Y197608D01*
X119463Y197270D01*
X119331Y196951D01*
X119139Y196664D01*
X118896Y196421D01*
X118609Y196229D01*
X118290Y196097D01*
X117952Y196030D01*
X117608Y196030D01*
X117608Y160470D02*
X117270Y160537D01*
X116951Y160669D01*
X116664Y160861D01*
X116421Y161104D01*
X116229Y161391D01*
X116097Y161710D01*
X116030Y162048D01*
X116030Y162392D01*
X116097Y162730D01*
X116229Y163049D01*
X116421Y163336D01*
X116664Y163579D01*
X116951Y163771D01*
X117270Y163903D01*
X117608Y163970D01*
X117952Y163970D01*
X118290Y163903D01*
X118609Y163771D01*
X118896Y163579D01*
X119139Y163336D01*
X119331Y163049D01*
X119463Y162730D01*
X119530Y162392D01*
X119530Y162048D01*
X119463Y161710D01*
X119331Y161391D01*
X119139Y161104D01*
X118896Y160861D01*
X118609Y160669D01*
X118290Y160537D01*
X117952Y160470D01*
X117608Y160470D01*
X82048Y160470D02*
X81710Y160537D01*
X81391Y160669D01*
X81104Y160861D01*
X80861Y161104D01*
X80669Y161391D01*
X80537Y161710D01*
X80470Y162048D01*
X80470Y162392D01*
X80537Y162730D01*
X80669Y163049D01*
X80861Y163336D01*
X81104Y163579D01*
X81391Y163771D01*
X81710Y163903D01*
X82048Y163970D01*
X82392Y163970D01*
X82730Y163903D01*
X83049Y163771D01*
X83336Y163579D01*
X83579Y163336D01*
X83771Y163049D01*
X83903Y162730D01*
X83970Y162392D01*
X83970Y162048D01*
X83903Y161710D01*
X83771Y161391D01*
X83579Y161104D01*
X83336Y160861D01*
X83049Y160669D01*
X82730Y160537D01*
X82392Y160470D01*
X82048Y160470D01*
X82048Y196030D02*
X81710Y196097D01*
X81391Y196229D01*
X81104Y196421D01*
X80861Y196664D01*
X80669Y196951D01*
X80537Y197270D01*
X80470Y197608D01*
X80470Y197952D01*
X80537Y198290D01*
X80669Y198609D01*
X80861Y198896D01*
X81104Y199139D01*
X81391Y199331D01*
X81710Y199463D01*
X82048Y199530D01*
X82392Y199530D01*
X82730Y199463D01*
X83049Y199331D01*
X83336Y199139D01*
X83579Y198896D01*
X83771Y198609D01*
X83903Y198290D01*
X83970Y197952D01*
X83970Y197608D01*
X83903Y197270D01*
X83771Y196951D01*
X83579Y196664D01*
X83336Y196421D01*
X83049Y196229D01*
X82730Y196097D01*
X82392Y196030D01*
X82048Y196030D01*
X140468Y178250D02*
X140130Y178317D01*
X139811Y178449D01*
X139524Y178641D01*
X139281Y178884D01*
X139089Y179171D01*
X138957Y179490D01*
X138890Y179828D01*
X138890Y180172D01*
X138957Y180510D01*
X139089Y180829D01*
X139281Y181116D01*
X139524Y181359D01*
X139811Y181551D01*
X140130Y181683D01*
X140468Y181750D01*
X140812Y181750D01*
X141150Y181683D01*
X141469Y181551D01*
X141756Y181359D01*
X141999Y181116D01*
X142191Y180829D01*
X142323Y180510D01*
X142390Y180172D01*
X142390Y179828D01*
X142323Y179490D01*
X142191Y179171D01*
X141999Y178884D01*
X141756Y178641D01*
X141469Y178449D01*
X141150Y178317D01*
X140812Y178250D01*
X140468Y178250D01*
X99828Y137610D02*
X99490Y137677D01*
X99171Y137809D01*
X98884Y138001D01*
X98641Y138244D01*
X98449Y138531D01*
X98317Y138850D01*
X98250Y139188D01*
X98250Y139532D01*
X98317Y139870D01*
X98449Y140189D01*
X98641Y140476D01*
X98884Y140719D01*
X99171Y140911D01*
X99490Y141043D01*
X99828Y141110D01*
X100172Y141110D01*
X100510Y141043D01*
X100829Y140911D01*
X101116Y140719D01*
X101359Y140476D01*
X101551Y140189D01*
X101683Y139870D01*
X101750Y139532D01*
X101750Y139188D01*
X101683Y138850D01*
X101551Y138531D01*
X101359Y138244D01*
X101116Y138001D01*
X100829Y137809D01*
X100510Y137677D01*
X100172Y137610D01*
X99828Y137610D01*
X99828Y218890D02*
X99490Y218957D01*
X99171Y219089D01*
X98884Y219281D01*
X98641Y219524D01*
X98449Y219811D01*
X98317Y220130D01*
X98250Y220468D01*
X98250Y220812D01*
X98317Y221150D01*
X98449Y221469D01*
X98641Y221756D01*
X98884Y221999D01*
X99171Y222191D01*
X99490Y222323D01*
X99828Y222390D01*
X100172Y222390D01*
X100510Y222323D01*
X100829Y222191D01*
X101116Y221999D01*
X101359Y221756D01*
X101551Y221469D01*
X101683Y221150D01*
X101750Y220812D01*
X101750Y220468D01*
X101683Y220130D01*
X101551Y219811D01*
X101359Y219524D01*
X101116Y219281D01*
X100829Y219089D01*
X100510Y218957D01*
X100172Y218890D01*
X99828Y218890D01*
X59188Y178250D02*
X58850Y178317D01*
X58531Y178449D01*
X58244Y178641D01*
X58001Y178884D01*
X57809Y179171D01*
X57677Y179490D01*
X57610Y179828D01*
X57610Y180172D01*
X57677Y180510D01*
X57809Y180829D01*
X58001Y181116D01*
X58244Y181359D01*
X58531Y181551D01*
X58850Y181683D01*
X59188Y181750D01*
X59532Y181750D01*
X59870Y181683D01*
X60189Y181551D01*
X60476Y181359D01*
X60719Y181116D01*
X60911Y180829D01*
X61043Y180510D01*
X61110Y180172D01*
X61110Y179828D01*
X61043Y179490D01*
X60911Y179171D01*
X60719Y178884D01*
X60476Y178641D01*
X60189Y178449D01*
X59870Y178317D01*
X59532Y178250D01*
X59188Y178250D01*
X71888Y150310D02*
X71550Y150377D01*
X71231Y150509D01*
X70944Y150701D01*
X70701Y150944D01*
X70509Y151231D01*
X70377Y151550D01*
X70310Y151888D01*
X70310Y152232D01*
X70377Y152570D01*
X70509Y152889D01*
X70701Y153176D01*
X70944Y153419D01*
X71231Y153611D01*
X71550Y153743D01*
X71888Y153810D01*
X72232Y153810D01*
X72570Y153743D01*
X72889Y153611D01*
X73176Y153419D01*
X73419Y153176D01*
X73611Y152889D01*
X73743Y152570D01*
X73810Y152232D01*
X73810Y151888D01*
X73743Y151550D01*
X73611Y151231D01*
X73419Y150944D01*
X73176Y150701D01*
X72889Y150509D01*
X72570Y150377D01*
X72232Y150310D01*
X71888Y150310D01*
X71888Y206190D02*
X71550Y206257D01*
X71231Y206389D01*
X70944Y206581D01*
X70701Y206824D01*
X70509Y207111D01*
X70377Y207430D01*
X70310Y207768D01*
X70310Y208112D01*
X70377Y208450D01*
X70509Y208769D01*
X70701Y209056D01*
X70944Y209299D01*
X71231Y209491D01*
X71550Y209623D01*
X71888Y209690D01*
X72232Y209690D01*
X72570Y209623D01*
X72889Y209491D01*
X73176Y209299D01*
X73419Y209056D01*
X73611Y208769D01*
X73743Y208450D01*
X73810Y208112D01*
X73810Y207768D01*
X73743Y207430D01*
X73611Y207111D01*
X73419Y206824D01*
X73176Y206581D01*
X72889Y206389D01*
X72570Y206257D01*
X72232Y206190D01*
X71888Y206190D01*
X127768Y206190D02*
X127430Y206257D01*
X127111Y206389D01*
X126824Y206581D01*
X126581Y206824D01*
X126389Y207111D01*
X126257Y207430D01*
X126190Y207768D01*
X126190Y208112D01*
X126257Y208450D01*
X126389Y208769D01*
X126581Y209056D01*
X126824Y209299D01*
X127111Y209491D01*
X127430Y209623D01*
X127768Y209690D01*
X128112Y209690D01*
X128450Y209623D01*
X128769Y209491D01*
X129056Y209299D01*
X129299Y209056D01*
X129491Y208769D01*
X129623Y208450D01*
X129690Y208112D01*
X129690Y207768D01*
X129623Y207430D01*
X129491Y207111D01*
X129299Y206824D01*
X129056Y206581D01*
X128769Y206389D01*
X128450Y206257D01*
X128112Y206190D01*
X127768Y206190D01*
X127768Y150310D02*
X127430Y150377D01*
X127111Y150509D01*
X126824Y150701D01*
X126581Y150944D01*
X126389Y151231D01*
X126257Y151550D01*
X126190Y151888D01*
X126190Y152232D01*
X126257Y152570D01*
X126389Y152889D01*
X126581Y153176D01*
X126824Y153419D01*
X127111Y153611D01*
X127430Y153743D01*
X127768Y153810D01*
X128112Y153810D01*
X128450Y153743D01*
X128769Y153611D01*
X129056Y153419D01*
X129299Y153176D01*
X129491Y152889D01*
X129623Y152570D01*
X129690Y152232D01*
X129690Y151888D01*
X129623Y151550D01*
X129491Y151231D01*
X129299Y150944D01*
X129056Y150701D01*
X128769Y150509D01*
X128450Y150377D01*
X128112Y150310D01*
X127768Y150310D01*
X67152Y81750D02*
X67490Y81683D01*
X67809Y81551D01*
X68096Y81359D01*
X68339Y81116D01*
X68531Y80829D01*
X68663Y80510D01*
X68730Y80172D01*
X68730Y79828D01*
X68663Y79490D01*
X68531Y79171D01*
X68339Y78884D01*
X68096Y78641D01*
X67809Y78449D01*
X67490Y78317D01*
X67152Y78250D01*
X66808Y78250D01*
X66470Y78317D01*
X66151Y78449D01*
X65864Y78641D01*
X65621Y78884D01*
X65429Y79171D01*
X65297Y79490D01*
X65230Y79828D01*
X65230Y80172D01*
X65297Y80510D01*
X65429Y80829D01*
X65621Y81116D01*
X65864Y81359D01*
X66151Y81551D01*
X66470Y81683D01*
X66808Y81750D01*
X67152Y81750D01*
X133192Y81750D02*
X133530Y81683D01*
X133849Y81551D01*
X134136Y81359D01*
X134379Y81116D01*
X134571Y80829D01*
X134703Y80510D01*
X134770Y80172D01*
X134770Y79828D01*
X134703Y79490D01*
X134571Y79171D01*
X134379Y78884D01*
X134136Y78641D01*
X133849Y78449D01*
X133530Y78317D01*
X133192Y78250D01*
X132848Y78250D01*
X132510Y78317D01*
X132191Y78449D01*
X131904Y78641D01*
X131661Y78884D01*
X131469Y79171D01*
X131337Y79490D01*
X131270Y79828D01*
X131270Y80172D01*
X131337Y80510D01*
X131469Y80829D01*
X131661Y81116D01*
X131904Y81359D01*
X132191Y81551D01*
X132510Y81683D01*
X132848Y81750D01*
X133192Y81750D01*
X100172Y114770D02*
X100510Y114703D01*
X100829Y114571D01*
X101116Y114379D01*
X101359Y114136D01*
X101551Y113849D01*
X101683Y113530D01*
X101750Y113192D01*
X101750Y112848D01*
X101683Y112510D01*
X101551Y112191D01*
X101359Y111904D01*
X101116Y111661D01*
X100829Y111469D01*
X100510Y111337D01*
X100172Y111270D01*
X99828Y111270D01*
X99490Y111337D01*
X99171Y111469D01*
X98884Y111661D01*
X98641Y111904D01*
X98449Y112191D01*
X98317Y112510D01*
X98250Y112848D01*
X98250Y113192D01*
X98317Y113530D01*
X98449Y113849D01*
X98641Y114136D01*
X98884Y114379D01*
X99171Y114571D01*
X99490Y114703D01*
X99828Y114770D01*
X100172Y114770D01*
X100172Y48730D02*
X100510Y48663D01*
X100829Y48531D01*
X101116Y48339D01*
X101359Y48096D01*
X101551Y47809D01*
X101683Y47490D01*
X101750Y47152D01*
X101750Y46808D01*
X101683Y46470D01*
X101551Y46151D01*
X101359Y45864D01*
X101116Y45621D01*
X100829Y45429D01*
X100510Y45297D01*
X100172Y45230D01*
X99828Y45230D01*
X99490Y45297D01*
X99171Y45429D01*
X98884Y45621D01*
X98641Y45864D01*
X98449Y46151D01*
X98317Y46470D01*
X98250Y46808D01*
X98250Y47152D01*
X98317Y47490D01*
X98449Y47809D01*
X98641Y48096D01*
X98884Y48339D01*
X99171Y48531D01*
X99490Y48663D01*
X99828Y48730D01*
X100172Y48730D01*
X72232Y99530D02*
X72570Y99463D01*
X72889Y99331D01*
X73176Y99139D01*
X73419Y98896D01*
X73611Y98609D01*
X73743Y98290D01*
X73810Y97952D01*
X73810Y97608D01*
X73743Y97270D01*
X73611Y96951D01*
X73419Y96664D01*
X73176Y96421D01*
X72889Y96229D01*
X72570Y96097D01*
X72232Y96030D01*
X71888Y96030D01*
X71550Y96097D01*
X71231Y96229D01*
X70944Y96421D01*
X70701Y96664D01*
X70509Y96951D01*
X70377Y97270D01*
X70310Y97608D01*
X70310Y97952D01*
X70377Y98290D01*
X70509Y98609D01*
X70701Y98896D01*
X70944Y99139D01*
X71231Y99331D01*
X71550Y99463D01*
X71888Y99530D01*
X72232Y99530D01*
X82392Y109690D02*
X82730Y109623D01*
X83049Y109491D01*
X83336Y109299D01*
X83579Y109056D01*
X83771Y108769D01*
X83903Y108450D01*
X83970Y108112D01*
X83970Y107768D01*
X83903Y107430D01*
X83771Y107111D01*
X83579Y106824D01*
X83336Y106581D01*
X83049Y106389D01*
X82730Y106257D01*
X82392Y106190D01*
X82048Y106190D01*
X81710Y106257D01*
X81391Y106389D01*
X81104Y106581D01*
X80861Y106824D01*
X80669Y107111D01*
X80537Y107430D01*
X80470Y107768D01*
X80470Y108112D01*
X80537Y108450D01*
X80669Y108769D01*
X80861Y109056D01*
X81104Y109299D01*
X81391Y109491D01*
X81710Y109623D01*
X82048Y109690D01*
X82392Y109690D01*
X117952Y109690D02*
X118290Y109623D01*
X118609Y109491D01*
X118896Y109299D01*
X119139Y109056D01*
X119331Y108769D01*
X119463Y108450D01*
X119530Y108112D01*
X119530Y107768D01*
X119463Y107430D01*
X119331Y107111D01*
X119139Y106824D01*
X118896Y106581D01*
X118609Y106389D01*
X118290Y106257D01*
X117952Y106190D01*
X117608Y106190D01*
X117270Y106257D01*
X116951Y106389D01*
X116664Y106581D01*
X116421Y106824D01*
X116229Y107111D01*
X116097Y107430D01*
X116030Y107768D01*
X116030Y108112D01*
X116097Y108450D01*
X116229Y108769D01*
X116421Y109056D01*
X116664Y109299D01*
X116951Y109491D01*
X117270Y109623D01*
X117608Y109690D01*
X117952Y109690D01*
X128112Y99530D02*
X128450Y99463D01*
X128769Y99331D01*
X129056Y99139D01*
X129299Y98896D01*
X129491Y98609D01*
X129623Y98290D01*
X129690Y97952D01*
X129690Y97608D01*
X129623Y97270D01*
X129491Y96951D01*
X129299Y96664D01*
X129056Y96421D01*
X128769Y96229D01*
X128450Y96097D01*
X128112Y96030D01*
X127768Y96030D01*
X127430Y96097D01*
X127111Y96229D01*
X126824Y96421D01*
X126581Y96664D01*
X126389Y96951D01*
X126257Y97270D01*
X126190Y97608D01*
X126190Y97952D01*
X126257Y98290D01*
X126389Y98609D01*
X126581Y98896D01*
X126824Y99139D01*
X127111Y99331D01*
X127430Y99463D01*
X127768Y99530D01*
X128112Y99530D01*
X128112Y63970D02*
X128450Y63903D01*
X128769Y63771D01*
X129056Y63579D01*
X129299Y63336D01*
X129491Y63049D01*
X129623Y62730D01*
X129690Y62392D01*
X129690Y62048D01*
X129623Y61710D01*
X129491Y61391D01*
X129299Y61104D01*
X129056Y60861D01*
X128769Y60669D01*
X128450Y60537D01*
X128112Y60470D01*
X127768Y60470D01*
X127430Y60537D01*
X127111Y60669D01*
X126824Y60861D01*
X126581Y61104D01*
X126389Y61391D01*
X126257Y61710D01*
X126190Y62048D01*
X126190Y62392D01*
X126257Y62730D01*
X126389Y63049D01*
X126581Y63336D01*
X126824Y63579D01*
X127111Y63771D01*
X127430Y63903D01*
X127768Y63970D01*
X128112Y63970D01*
X117952Y53810D02*
X118290Y53743D01*
X118609Y53611D01*
X118896Y53419D01*
X119139Y53176D01*
X119331Y52889D01*
X119463Y52570D01*
X119530Y52232D01*
X119530Y51888D01*
X119463Y51550D01*
X119331Y51231D01*
X119139Y50944D01*
X118896Y50701D01*
X118609Y50509D01*
X118290Y50377D01*
X117952Y50310D01*
X117608Y50310D01*
X117270Y50377D01*
X116951Y50509D01*
X116664Y50701D01*
X116421Y50944D01*
X116229Y51231D01*
X116097Y51550D01*
X116030Y51888D01*
X116030Y52232D01*
X116097Y52570D01*
X116229Y52889D01*
X116421Y53176D01*
X116664Y53419D01*
X116951Y53611D01*
X117270Y53743D01*
X117608Y53810D01*
X117952Y53810D01*
X82392Y53810D02*
X82730Y53743D01*
X83049Y53611D01*
X83336Y53419D01*
X83579Y53176D01*
X83771Y52889D01*
X83903Y52570D01*
X83970Y52232D01*
X83970Y51888D01*
X83903Y51550D01*
X83771Y51231D01*
X83579Y50944D01*
X83336Y50701D01*
X83049Y50509D01*
X82730Y50377D01*
X82392Y50310D01*
X82048Y50310D01*
X81710Y50377D01*
X81391Y50509D01*
X81104Y50701D01*
X80861Y50944D01*
X80669Y51231D01*
X80537Y51550D01*
X80470Y51888D01*
X80470Y52232D01*
X80537Y52570D01*
X80669Y52889D01*
X80861Y53176D01*
X81104Y53419D01*
X81391Y53611D01*
X81710Y53743D01*
X82048Y53810D01*
X82392Y53810D01*
X72232Y63970D02*
X72570Y63903D01*
X72889Y63771D01*
X73176Y63579D01*
X73419Y63336D01*
X73611Y63049D01*
X73743Y62730D01*
X73810Y62392D01*
X73810Y62048D01*
X73743Y61710D01*
X73611Y61391D01*
X73419Y61104D01*
X73176Y60861D01*
X72889Y60669D01*
X72570Y60537D01*
X72232Y60470D01*
X71888Y60470D01*
X71550Y60537D01*
X71231Y60669D01*
X70944Y60861D01*
X70701Y61104D01*
X70509Y61391D01*
X70377Y61710D01*
X70310Y62048D01*
X70310Y62392D01*
X70377Y62730D01*
X70509Y63049D01*
X70701Y63336D01*
X70944Y63579D01*
X71231Y63771D01*
X71550Y63903D01*
X71888Y63970D01*
X72232Y63970D01*
X34132Y81750D02*
X34470Y81683D01*
X34789Y81551D01*
X35076Y81359D01*
X35319Y81116D01*
X35511Y80829D01*
X35643Y80510D01*
X35710Y80172D01*
X35710Y79828D01*
X35643Y79490D01*
X35511Y79171D01*
X35319Y78884D01*
X35076Y78641D01*
X34789Y78449D01*
X34470Y78317D01*
X34132Y78250D01*
X33788Y78250D01*
X33450Y78317D01*
X33131Y78449D01*
X32844Y78641D01*
X32601Y78884D01*
X32409Y79171D01*
X32277Y79490D01*
X32210Y79828D01*
X32210Y80172D01*
X32277Y80510D01*
X32409Y80829D01*
X32601Y81116D01*
X32844Y81359D01*
X33131Y81551D01*
X33450Y81683D01*
X33788Y81750D01*
X34132Y81750D01*
X166212Y81750D02*
X166550Y81683D01*
X166869Y81551D01*
X167156Y81359D01*
X167399Y81116D01*
X167591Y80829D01*
X167723Y80510D01*
X167790Y80172D01*
X167790Y79828D01*
X167723Y79490D01*
X167591Y79171D01*
X167399Y78884D01*
X167156Y78641D01*
X166869Y78449D01*
X166550Y78317D01*
X166212Y78250D01*
X165868Y78250D01*
X165530Y78317D01*
X165211Y78449D01*
X164924Y78641D01*
X164681Y78884D01*
X164489Y79171D01*
X164357Y79490D01*
X164290Y79828D01*
X164290Y80172D01*
X164357Y80510D01*
X164489Y80829D01*
X164681Y81116D01*
X164924Y81359D01*
X165211Y81551D01*
X165530Y81683D01*
X165868Y81750D01*
X166212Y81750D01*
X100172Y147790D02*
X100510Y147723D01*
X100829Y147591D01*
X101116Y147399D01*
X101359Y147156D01*
X101551Y146869D01*
X101683Y146550D01*
X101750Y146212D01*
X101750Y145868D01*
X101683Y145530D01*
X101551Y145211D01*
X101359Y144924D01*
X101116Y144681D01*
X100829Y144489D01*
X100510Y144357D01*
X100172Y144290D01*
X99828Y144290D01*
X99490Y144357D01*
X99171Y144489D01*
X98884Y144681D01*
X98641Y144924D01*
X98449Y145211D01*
X98317Y145530D01*
X98250Y145868D01*
X98250Y146212D01*
X98317Y146550D01*
X98449Y146869D01*
X98641Y147156D01*
X98884Y147399D01*
X99171Y147591D01*
X99490Y147723D01*
X99828Y147790D01*
X100172Y147790D01*
X100172Y15710D02*
X100510Y15643D01*
X100829Y15511D01*
X101116Y15319D01*
X101359Y15076D01*
X101551Y14789D01*
X101683Y14470D01*
X101750Y14132D01*
X101750Y13788D01*
X101683Y13450D01*
X101551Y13131D01*
X101359Y12844D01*
X101116Y12601D01*
X100829Y12409D01*
X100510Y12277D01*
X100172Y12210D01*
X99828Y12210D01*
X99490Y12277D01*
X99171Y12409D01*
X98884Y12601D01*
X98641Y12844D01*
X98449Y13131D01*
X98317Y13450D01*
X98250Y13788D01*
X98250Y14132D01*
X98317Y14470D01*
X98449Y14789D01*
X98641Y15076D01*
X98884Y15319D01*
X99171Y15511D01*
X99490Y15643D01*
X99828Y15710D01*
X100172Y15710D01*
X54452Y127470D02*
X54790Y127403D01*
X55109Y127271D01*
X55396Y127079D01*
X55639Y126836D01*
X55831Y126549D01*
X55963Y126230D01*
X56030Y125892D01*
X56030Y125548D01*
X55963Y125210D01*
X55831Y124891D01*
X55639Y124604D01*
X55396Y124361D01*
X55109Y124169D01*
X54790Y124037D01*
X54452Y123970D01*
X54108Y123970D01*
X53770Y124037D01*
X53451Y124169D01*
X53164Y124361D01*
X52921Y124604D01*
X52729Y124891D01*
X52597Y125210D01*
X52530Y125548D01*
X52530Y125892D01*
X52597Y126230D01*
X52729Y126549D01*
X52921Y126836D01*
X53164Y127079D01*
X53451Y127271D01*
X53770Y127403D01*
X54108Y127470D01*
X54452Y127470D01*
X145892Y36030D02*
X146230Y35963D01*
X146549Y35831D01*
X146836Y35639D01*
X147079Y35396D01*
X147271Y35109D01*
X147403Y34790D01*
X147470Y34452D01*
X147470Y34108D01*
X147403Y33770D01*
X147271Y33451D01*
X147079Y33164D01*
X146836Y32921D01*
X146549Y32729D01*
X146230Y32597D01*
X145892Y32530D01*
X145548Y32530D01*
X145210Y32597D01*
X144891Y32729D01*
X144604Y32921D01*
X144361Y33164D01*
X144169Y33451D01*
X144037Y33770D01*
X143970Y34108D01*
X143970Y34452D01*
X144037Y34790D01*
X144169Y35109D01*
X144361Y35396D01*
X144604Y35639D01*
X144891Y35831D01*
X145210Y35963D01*
X145548Y36030D01*
X145892Y36030D01*
X54452Y36030D02*
X54790Y35963D01*
X55109Y35831D01*
X55396Y35639D01*
X55639Y35396D01*
X55831Y35109D01*
X55963Y34790D01*
X56030Y34452D01*
X56030Y34108D01*
X55963Y33770D01*
X55831Y33451D01*
X55639Y33164D01*
X55396Y32921D01*
X55109Y32729D01*
X54790Y32597D01*
X54452Y32530D01*
X54108Y32530D01*
X53770Y32597D01*
X53451Y32729D01*
X53164Y32921D01*
X52921Y33164D01*
X52729Y33451D01*
X52597Y33770D01*
X52530Y34108D01*
X52530Y34452D01*
X52597Y34790D01*
X52729Y35109D01*
X52921Y35396D01*
X53164Y35639D01*
X53451Y35831D01*
X53770Y35963D01*
X54108Y36030D01*
X54452Y36030D01*
X145892Y127470D02*
X146230Y127403D01*
X146549Y127271D01*
X146836Y127079D01*
X147079Y126836D01*
X147271Y126549D01*
X147403Y126230D01*
X147470Y125892D01*
X147470Y125548D01*
X147403Y125210D01*
X147271Y124891D01*
X147079Y124604D01*
X146836Y124361D01*
X146549Y124169D01*
X146230Y124037D01*
X145892Y123970D01*
X145548Y123970D01*
X145210Y124037D01*
X144891Y124169D01*
X144604Y124361D01*
X144361Y124604D01*
X144169Y124891D01*
X144037Y125210D01*
X143970Y125548D01*
X143970Y125892D01*
X144037Y126230D01*
X144169Y126549D01*
X144361Y126836D01*
X144604Y127079D01*
X144891Y127271D01*
X145210Y127403D01*
X145548Y127470D01*
X145892Y127470D01*
X39212Y107150D02*
X39550Y107083D01*
X39869Y106951D01*
X40156Y106759D01*
X40399Y106516D01*
X40591Y106229D01*
X40723Y105910D01*
X40790Y105572D01*
X40790Y105228D01*
X40723Y104890D01*
X40591Y104571D01*
X40399Y104284D01*
X40156Y104041D01*
X39869Y103849D01*
X39550Y103717D01*
X39212Y103650D01*
X38868Y103650D01*
X38530Y103717D01*
X38211Y103849D01*
X37924Y104041D01*
X37681Y104284D01*
X37489Y104571D01*
X37357Y104890D01*
X37290Y105228D01*
X37290Y105572D01*
X37357Y105910D01*
X37489Y106229D01*
X37681Y106516D01*
X37924Y106759D01*
X38211Y106951D01*
X38530Y107083D01*
X38868Y107150D01*
X39212Y107150D01*
X39212Y56350D02*
X39550Y56283D01*
X39869Y56151D01*
X40156Y55959D01*
X40399Y55716D01*
X40591Y55429D01*
X40723Y55110D01*
X40790Y54772D01*
X40790Y54428D01*
X40723Y54090D01*
X40591Y53771D01*
X40399Y53484D01*
X40156Y53241D01*
X39869Y53049D01*
X39550Y52917D01*
X39212Y52850D01*
X38868Y52850D01*
X38530Y52917D01*
X38211Y53049D01*
X37924Y53241D01*
X37681Y53484D01*
X37489Y53771D01*
X37357Y54090D01*
X37290Y54428D01*
X37290Y54772D01*
X37357Y55110D01*
X37489Y55429D01*
X37681Y55716D01*
X37924Y55959D01*
X38211Y56151D01*
X38530Y56283D01*
X38868Y56350D01*
X39212Y56350D01*
X161132Y56350D02*
X161470Y56283D01*
X161789Y56151D01*
X162076Y55959D01*
X162319Y55716D01*
X162511Y55429D01*
X162643Y55110D01*
X162710Y54772D01*
X162710Y54428D01*
X162643Y54090D01*
X162511Y53771D01*
X162319Y53484D01*
X162076Y53241D01*
X161789Y53049D01*
X161470Y52917D01*
X161132Y52850D01*
X160788Y52850D01*
X160450Y52917D01*
X160131Y53049D01*
X159844Y53241D01*
X159601Y53484D01*
X159409Y53771D01*
X159277Y54090D01*
X159210Y54428D01*
X159210Y54772D01*
X159277Y55110D01*
X159409Y55429D01*
X159601Y55716D01*
X159844Y55959D01*
X160131Y56151D01*
X160450Y56283D01*
X160788Y56350D01*
X161132Y56350D01*
X161132Y107150D02*
X161470Y107083D01*
X161789Y106951D01*
X162076Y106759D01*
X162319Y106516D01*
X162511Y106229D01*
X162643Y105910D01*
X162710Y105572D01*
X162710Y105228D01*
X162643Y104890D01*
X162511Y104571D01*
X162319Y104284D01*
X162076Y104041D01*
X161789Y103849D01*
X161470Y103717D01*
X161132Y103650D01*
X160788Y103650D01*
X160450Y103717D01*
X160131Y103849D01*
X159844Y104041D01*
X159601Y104284D01*
X159409Y104571D01*
X159277Y104890D01*
X159210Y105228D01*
X159210Y105572D01*
X159277Y105910D01*
X159409Y106229D01*
X159601Y106516D01*
X159844Y106759D01*
X160131Y106951D01*
X160450Y107083D01*
X160788Y107150D01*
X161132Y107150D01*
X74772Y142710D02*
X75110Y142643D01*
X75429Y142511D01*
X75716Y142319D01*
X75959Y142076D01*
X76151Y141789D01*
X76283Y141470D01*
X76350Y141132D01*
X76350Y140788D01*
X76283Y140450D01*
X76151Y140131D01*
X75959Y139844D01*
X75716Y139601D01*
X75429Y139409D01*
X75110Y139277D01*
X74772Y139210D01*
X74428Y139210D01*
X74090Y139277D01*
X73771Y139409D01*
X73484Y139601D01*
X73241Y139844D01*
X73049Y140131D01*
X72917Y140450D01*
X72850Y140788D01*
X72850Y141132D01*
X72917Y141470D01*
X73049Y141789D01*
X73241Y142076D01*
X73484Y142319D01*
X73771Y142511D01*
X74090Y142643D01*
X74428Y142710D01*
X74772Y142710D01*
X74772Y20790D02*
X75110Y20723D01*
X75429Y20591D01*
X75716Y20399D01*
X75959Y20156D01*
X76151Y19869D01*
X76283Y19550D01*
X76350Y19212D01*
X76350Y18868D01*
X76283Y18530D01*
X76151Y18211D01*
X75959Y17924D01*
X75716Y17681D01*
X75429Y17489D01*
X75110Y17357D01*
X74772Y17290D01*
X74428Y17290D01*
X74090Y17357D01*
X73771Y17489D01*
X73484Y17681D01*
X73241Y17924D01*
X73049Y18211D01*
X72917Y18530D01*
X72850Y18868D01*
X72850Y19212D01*
X72917Y19550D01*
X73049Y19869D01*
X73241Y20156D01*
X73484Y20399D01*
X73771Y20591D01*
X74090Y20723D01*
X74428Y20790D01*
X74772Y20790D01*
X125572Y20790D02*
X125910Y20723D01*
X126229Y20591D01*
X126516Y20399D01*
X126759Y20156D01*
X126951Y19869D01*
X127083Y19550D01*
X127150Y19212D01*
X127150Y18868D01*
X127083Y18530D01*
X126951Y18211D01*
X126759Y17924D01*
X126516Y17681D01*
X126229Y17489D01*
X125910Y17357D01*
X125572Y17290D01*
X125228Y17290D01*
X124890Y17357D01*
X124571Y17489D01*
X124284Y17681D01*
X124041Y17924D01*
X123849Y18211D01*
X123717Y18530D01*
X123650Y18868D01*
X123650Y19212D01*
X123717Y19550D01*
X123849Y19869D01*
X124041Y20156D01*
X124284Y20399D01*
X124571Y20591D01*
X124890Y20723D01*
X125228Y20790D01*
X125572Y20790D01*
X125572Y142710D02*
X125910Y142643D01*
X126229Y142511D01*
X126516Y142319D01*
X126759Y142076D01*
X126951Y141789D01*
X127083Y141470D01*
X127150Y141132D01*
X127150Y140788D01*
X127083Y140450D01*
X126951Y140131D01*
X126759Y139844D01*
X126516Y139601D01*
X126229Y139409D01*
X125910Y139277D01*
X125572Y139210D01*
X125228Y139210D01*
X124890Y139277D01*
X124571Y139409D01*
X124284Y139601D01*
X124041Y139844D01*
X123849Y140131D01*
X123717Y140450D01*
X123650Y140788D01*
X123650Y141132D01*
X123717Y141470D01*
X123849Y141789D01*
X124041Y142076D01*
X124284Y142319D01*
X124571Y142511D01*
X124890Y142643D01*
X125228Y142710D01*
X125572Y142710D01*
X125228Y448250D02*
X124890Y448317D01*
X124571Y448449D01*
X124284Y448641D01*
X124041Y448884D01*
X123849Y449171D01*
X123717Y449490D01*
X123650Y449828D01*
X123650Y450172D01*
X123717Y450510D01*
X123849Y450829D01*
X124041Y451116D01*
X124284Y451359D01*
X124571Y451551D01*
X124890Y451683D01*
X125228Y451750D01*
X125572Y451750D01*
X125910Y451683D01*
X126229Y451551D01*
X126516Y451359D01*
X126759Y451116D01*
X126951Y450829D01*
X127083Y450510D01*
X127150Y450172D01*
X127150Y449828D01*
X127083Y449490D01*
X126951Y449171D01*
X126759Y448884D01*
X126516Y448641D01*
X126229Y448449D01*
X125910Y448317D01*
X125572Y448250D01*
X125228Y448250D01*
X74428Y448250D02*
X74090Y448317D01*
X73771Y448449D01*
X73484Y448641D01*
X73241Y448884D01*
X73049Y449171D01*
X72917Y449490D01*
X72850Y449828D01*
X72850Y450172D01*
X72917Y450510D01*
X73049Y450829D01*
X73241Y451116D01*
X73484Y451359D01*
X73771Y451551D01*
X74090Y451683D01*
X74428Y451750D01*
X74772Y451750D01*
X75110Y451683D01*
X75429Y451551D01*
X75716Y451359D01*
X75959Y451116D01*
X76151Y450829D01*
X76283Y450510D01*
X76350Y450172D01*
X76350Y449828D01*
X76283Y449490D01*
X76151Y449171D01*
X75959Y448884D01*
X75716Y448641D01*
X75429Y448449D01*
X75110Y448317D01*
X74772Y448250D01*
X74428Y448250D01*
X99828Y422850D02*
X99490Y422917D01*
X99171Y423049D01*
X98884Y423241D01*
X98641Y423484D01*
X98449Y423771D01*
X98317Y424090D01*
X98250Y424428D01*
X98250Y424772D01*
X98317Y425110D01*
X98449Y425429D01*
X98641Y425716D01*
X98884Y425959D01*
X99171Y426151D01*
X99490Y426283D01*
X99828Y426350D01*
X100172Y426350D01*
X100510Y426283D01*
X100829Y426151D01*
X101116Y425959D01*
X101359Y425716D01*
X101551Y425429D01*
X101683Y425110D01*
X101750Y424772D01*
X101750Y424428D01*
X101683Y424090D01*
X101551Y423771D01*
X101359Y423484D01*
X101116Y423241D01*
X100829Y423049D01*
X100510Y422917D01*
X100172Y422850D01*
X99828Y422850D01*
X99828Y473650D02*
X99490Y473717D01*
X99171Y473849D01*
X98884Y474041D01*
X98641Y474284D01*
X98449Y474571D01*
X98317Y474890D01*
X98250Y475228D01*
X98250Y475572D01*
X98317Y475910D01*
X98449Y476229D01*
X98641Y476516D01*
X98884Y476759D01*
X99171Y476951D01*
X99490Y477083D01*
X99828Y477150D01*
X100172Y477150D01*
X100510Y477083D01*
X100829Y476951D01*
X101116Y476759D01*
X101359Y476516D01*
X101551Y476229D01*
X101683Y475910D01*
X101750Y475572D01*
X101750Y475228D01*
X101683Y474890D01*
X101551Y474571D01*
X101359Y474284D01*
X101116Y474041D01*
X100829Y473849D01*
X100510Y473717D01*
X100172Y473650D01*
X99828Y473650D01*
X117608Y466030D02*
X117270Y466097D01*
X116951Y466229D01*
X116664Y466421D01*
X116421Y466664D01*
X116229Y466951D01*
X116097Y467270D01*
X116030Y467608D01*
X116030Y467952D01*
X116097Y468290D01*
X116229Y468609D01*
X116421Y468896D01*
X116664Y469139D01*
X116951Y469331D01*
X117270Y469463D01*
X117608Y469530D01*
X117952Y469530D01*
X118290Y469463D01*
X118609Y469331D01*
X118896Y469139D01*
X119139Y468896D01*
X119331Y468609D01*
X119463Y468290D01*
X119530Y467952D01*
X119530Y467608D01*
X119463Y467270D01*
X119331Y466951D01*
X119139Y466664D01*
X118896Y466421D01*
X118609Y466229D01*
X118290Y466097D01*
X117952Y466030D01*
X117608Y466030D01*
X117608Y430470D02*
X117270Y430537D01*
X116951Y430669D01*
X116664Y430861D01*
X116421Y431104D01*
X116229Y431391D01*
X116097Y431710D01*
X116030Y432048D01*
X116030Y432392D01*
X116097Y432730D01*
X116229Y433049D01*
X116421Y433336D01*
X116664Y433579D01*
X116951Y433771D01*
X117270Y433903D01*
X117608Y433970D01*
X117952Y433970D01*
X118290Y433903D01*
X118609Y433771D01*
X118896Y433579D01*
X119139Y433336D01*
X119331Y433049D01*
X119463Y432730D01*
X119530Y432392D01*
X119530Y432048D01*
X119463Y431710D01*
X119331Y431391D01*
X119139Y431104D01*
X118896Y430861D01*
X118609Y430669D01*
X118290Y430537D01*
X117952Y430470D01*
X117608Y430470D01*
X82048Y430470D02*
X81710Y430537D01*
X81391Y430669D01*
X81104Y430861D01*
X80861Y431104D01*
X80669Y431391D01*
X80537Y431710D01*
X80470Y432048D01*
X80470Y432392D01*
X80537Y432730D01*
X80669Y433049D01*
X80861Y433336D01*
X81104Y433579D01*
X81391Y433771D01*
X81710Y433903D01*
X82048Y433970D01*
X82392Y433970D01*
X82730Y433903D01*
X83049Y433771D01*
X83336Y433579D01*
X83579Y433336D01*
X83771Y433049D01*
X83903Y432730D01*
X83970Y432392D01*
X83970Y432048D01*
X83903Y431710D01*
X83771Y431391D01*
X83579Y431104D01*
X83336Y430861D01*
X83049Y430669D01*
X82730Y430537D01*
X82392Y430470D01*
X82048Y430470D01*
X82048Y466030D02*
X81710Y466097D01*
X81391Y466229D01*
X81104Y466421D01*
X80861Y466664D01*
X80669Y466951D01*
X80537Y467270D01*
X80470Y467608D01*
X80470Y467952D01*
X80537Y468290D01*
X80669Y468609D01*
X80861Y468896D01*
X81104Y469139D01*
X81391Y469331D01*
X81710Y469463D01*
X82048Y469530D01*
X82392Y469530D01*
X82730Y469463D01*
X83049Y469331D01*
X83336Y469139D01*
X83579Y468896D01*
X83771Y468609D01*
X83903Y468290D01*
X83970Y467952D01*
X83970Y467608D01*
X83903Y467270D01*
X83771Y466951D01*
X83579Y466664D01*
X83336Y466421D01*
X83049Y466229D01*
X82730Y466097D01*
X82392Y466030D01*
X82048Y466030D01*
X140468Y448250D02*
X140130Y448317D01*
X139811Y448449D01*
X139524Y448641D01*
X139281Y448884D01*
X139089Y449171D01*
X138957Y449490D01*
X138890Y449828D01*
X138890Y450172D01*
X138957Y450510D01*
X139089Y450829D01*
X139281Y451116D01*
X139524Y451359D01*
X139811Y451551D01*
X140130Y451683D01*
X140468Y451750D01*
X140812Y451750D01*
X141150Y451683D01*
X141469Y451551D01*
X141756Y451359D01*
X141999Y451116D01*
X142191Y450829D01*
X142323Y450510D01*
X142390Y450172D01*
X142390Y449828D01*
X142323Y449490D01*
X142191Y449171D01*
X141999Y448884D01*
X141756Y448641D01*
X141469Y448449D01*
X141150Y448317D01*
X140812Y448250D01*
X140468Y448250D01*
X99828Y407610D02*
X99490Y407677D01*
X99171Y407809D01*
X98884Y408001D01*
X98641Y408244D01*
X98449Y408531D01*
X98317Y408850D01*
X98250Y409188D01*
X98250Y409532D01*
X98317Y409870D01*
X98449Y410189D01*
X98641Y410476D01*
X98884Y410719D01*
X99171Y410911D01*
X99490Y411043D01*
X99828Y411110D01*
X100172Y411110D01*
X100510Y411043D01*
X100829Y410911D01*
X101116Y410719D01*
X101359Y410476D01*
X101551Y410189D01*
X101683Y409870D01*
X101750Y409532D01*
X101750Y409188D01*
X101683Y408850D01*
X101551Y408531D01*
X101359Y408244D01*
X101116Y408001D01*
X100829Y407809D01*
X100510Y407677D01*
X100172Y407610D01*
X99828Y407610D01*
X99828Y488890D02*
X99490Y488957D01*
X99171Y489089D01*
X98884Y489281D01*
X98641Y489524D01*
X98449Y489811D01*
X98317Y490130D01*
X98250Y490468D01*
X98250Y490812D01*
X98317Y491150D01*
X98449Y491469D01*
X98641Y491756D01*
X98884Y491999D01*
X99171Y492191D01*
X99490Y492323D01*
X99828Y492390D01*
X100172Y492390D01*
X100510Y492323D01*
X100829Y492191D01*
X101116Y491999D01*
X101359Y491756D01*
X101551Y491469D01*
X101683Y491150D01*
X101750Y490812D01*
X101750Y490468D01*
X101683Y490130D01*
X101551Y489811D01*
X101359Y489524D01*
X101116Y489281D01*
X100829Y489089D01*
X100510Y488957D01*
X100172Y488890D01*
X99828Y488890D01*
X59188Y448250D02*
X58850Y448317D01*
X58531Y448449D01*
X58244Y448641D01*
X58001Y448884D01*
X57809Y449171D01*
X57677Y449490D01*
X57610Y449828D01*
X57610Y450172D01*
X57677Y450510D01*
X57809Y450829D01*
X58001Y451116D01*
X58244Y451359D01*
X58531Y451551D01*
X58850Y451683D01*
X59188Y451750D01*
X59532Y451750D01*
X59870Y451683D01*
X60189Y451551D01*
X60476Y451359D01*
X60719Y451116D01*
X60911Y450829D01*
X61043Y450510D01*
X61110Y450172D01*
X61110Y449828D01*
X61043Y449490D01*
X60911Y449171D01*
X60719Y448884D01*
X60476Y448641D01*
X60189Y448449D01*
X59870Y448317D01*
X59532Y448250D01*
X59188Y448250D01*
X71888Y420310D02*
X71550Y420377D01*
X71231Y420509D01*
X70944Y420701D01*
X70701Y420944D01*
X70509Y421231D01*
X70377Y421550D01*
X70310Y421888D01*
X70310Y422232D01*
X70377Y422570D01*
X70509Y422889D01*
X70701Y423176D01*
X70944Y423419D01*
X71231Y423611D01*
X71550Y423743D01*
X71888Y423810D01*
X72232Y423810D01*
X72570Y423743D01*
X72889Y423611D01*
X73176Y423419D01*
X73419Y423176D01*
X73611Y422889D01*
X73743Y422570D01*
X73810Y422232D01*
X73810Y421888D01*
X73743Y421550D01*
X73611Y421231D01*
X73419Y420944D01*
X73176Y420701D01*
X72889Y420509D01*
X72570Y420377D01*
X72232Y420310D01*
X71888Y420310D01*
X71888Y476190D02*
X71550Y476257D01*
X71231Y476389D01*
X70944Y476581D01*
X70701Y476824D01*
X70509Y477111D01*
X70377Y477430D01*
X70310Y477768D01*
X70310Y478112D01*
X70377Y478450D01*
X70509Y478769D01*
X70701Y479056D01*
X70944Y479299D01*
X71231Y479491D01*
X71550Y479623D01*
X71888Y479690D01*
X72232Y479690D01*
X72570Y479623D01*
X72889Y479491D01*
X73176Y479299D01*
X73419Y479056D01*
X73611Y478769D01*
X73743Y478450D01*
X73810Y478112D01*
X73810Y477768D01*
X73743Y477430D01*
X73611Y477111D01*
X73419Y476824D01*
X73176Y476581D01*
X72889Y476389D01*
X72570Y476257D01*
X72232Y476190D01*
X71888Y476190D01*
X127768Y476190D02*
X127430Y476257D01*
X127111Y476389D01*
X126824Y476581D01*
X126581Y476824D01*
X126389Y477111D01*
X126257Y477430D01*
X126190Y477768D01*
X126190Y478112D01*
X126257Y478450D01*
X126389Y478769D01*
X126581Y479056D01*
X126824Y479299D01*
X127111Y479491D01*
X127430Y479623D01*
X127768Y479690D01*
X128112Y479690D01*
X128450Y479623D01*
X128769Y479491D01*
X129056Y479299D01*
X129299Y479056D01*
X129491Y478769D01*
X129623Y478450D01*
X129690Y478112D01*
X129690Y477768D01*
X129623Y477430D01*
X129491Y477111D01*
X129299Y476824D01*
X129056Y476581D01*
X128769Y476389D01*
X128450Y476257D01*
X128112Y476190D01*
X127768Y476190D01*
X127768Y420310D02*
X127430Y420377D01*
X127111Y420509D01*
X126824Y420701D01*
X126581Y420944D01*
X126389Y421231D01*
X126257Y421550D01*
X126190Y421888D01*
X126190Y422232D01*
X126257Y422570D01*
X126389Y422889D01*
X126581Y423176D01*
X126824Y423419D01*
X127111Y423611D01*
X127430Y423743D01*
X127768Y423810D01*
X128112Y423810D01*
X128450Y423743D01*
X128769Y423611D01*
X129056Y423419D01*
X129299Y423176D01*
X129491Y422889D01*
X129623Y422570D01*
X129690Y422232D01*
X129690Y421888D01*
X129623Y421550D01*
X129491Y421231D01*
X129299Y420944D01*
X129056Y420701D01*
X128769Y420509D01*
X128450Y420377D01*
X128112Y420310D01*
X127768Y420310D01*
M02*
