G04 EAGLE Gerber RS-274X export*
G75*
%MOMM*%
%FSLAX34Y34*%
%LPD*%
%INSilkscreen Top*%
%IPPOS*%
%AMOC8*
5,1,8,0,0,1.08239X$1,22.5*%
G01*
%ADD10C,0.101600*%
%ADD11C,0.203200*%
%ADD12R,0.762000X0.863600*%
%ADD13R,0.250000X0.250000*%
%ADD14C,0.152400*%
%ADD15R,0.609600X1.574800*%


D10*
X154092Y132540D02*
X154254Y132408D01*
X154419Y132279D01*
X154587Y132155D01*
X154758Y132034D01*
X154932Y131918D01*
X155109Y131806D01*
X155288Y131698D01*
X155470Y131594D01*
X155654Y131495D01*
X155841Y131401D01*
X156030Y131311D01*
X156221Y131225D01*
X156414Y131144D01*
X156609Y131068D01*
X156805Y130997D01*
X157004Y130930D01*
X157204Y130868D01*
X157405Y130811D01*
X157607Y130758D01*
X157811Y130711D01*
X158016Y130669D01*
X158222Y130631D01*
X158429Y130598D01*
X158636Y130571D01*
X158844Y130548D01*
X159053Y130531D01*
X159262Y130518D01*
X159471Y130511D01*
X159680Y130508D01*
X159889Y130511D01*
X160098Y130518D01*
X160307Y130531D01*
X160516Y130548D01*
X160724Y130571D01*
X160931Y130598D01*
X161138Y130631D01*
X161344Y130669D01*
X161549Y130711D01*
X161753Y130758D01*
X161955Y130811D01*
X162156Y130868D01*
X162356Y130930D01*
X162555Y130997D01*
X162751Y131068D01*
X162946Y131144D01*
X163139Y131225D01*
X163330Y131311D01*
X163519Y131401D01*
X163706Y131495D01*
X163890Y131594D01*
X164072Y131698D01*
X164251Y131806D01*
X164428Y131918D01*
X164602Y132034D01*
X164773Y132155D01*
X164941Y132279D01*
X165106Y132408D01*
X165268Y132540D01*
X164252Y137707D02*
X164252Y139739D01*
X164252Y137707D02*
X164250Y137630D01*
X164244Y137553D01*
X164234Y137476D01*
X164221Y137400D01*
X164203Y137325D01*
X164182Y137251D01*
X164157Y137178D01*
X164128Y137106D01*
X164096Y137036D01*
X164061Y136967D01*
X164021Y136901D01*
X163979Y136836D01*
X163933Y136774D01*
X163884Y136714D01*
X163833Y136657D01*
X163778Y136602D01*
X163721Y136551D01*
X163661Y136502D01*
X163599Y136456D01*
X163534Y136414D01*
X163468Y136374D01*
X163399Y136339D01*
X163329Y136307D01*
X163257Y136278D01*
X163184Y136253D01*
X163110Y136232D01*
X163035Y136214D01*
X162959Y136201D01*
X162882Y136191D01*
X162805Y136185D01*
X162728Y136183D01*
X159680Y136183D01*
X159603Y136185D01*
X159526Y136191D01*
X159449Y136201D01*
X159373Y136214D01*
X159298Y136232D01*
X159224Y136253D01*
X159151Y136278D01*
X159079Y136307D01*
X159009Y136339D01*
X158940Y136374D01*
X158874Y136414D01*
X158809Y136456D01*
X158747Y136502D01*
X158687Y136551D01*
X158630Y136602D01*
X158575Y136657D01*
X158524Y136714D01*
X158475Y136774D01*
X158429Y136836D01*
X158387Y136901D01*
X158347Y136967D01*
X158312Y137036D01*
X158280Y137106D01*
X158251Y137178D01*
X158226Y137251D01*
X158205Y137325D01*
X158187Y137400D01*
X158174Y137476D01*
X158164Y137553D01*
X158158Y137630D01*
X158156Y137707D01*
X158156Y139739D01*
X159680Y144984D02*
X159889Y144981D01*
X160098Y144974D01*
X160307Y144961D01*
X160516Y144944D01*
X160724Y144921D01*
X160931Y144894D01*
X161138Y144861D01*
X161344Y144823D01*
X161549Y144781D01*
X161753Y144734D01*
X161955Y144681D01*
X162156Y144624D01*
X162356Y144562D01*
X162555Y144495D01*
X162751Y144424D01*
X162946Y144348D01*
X163139Y144267D01*
X163330Y144181D01*
X163519Y144091D01*
X163706Y143997D01*
X163890Y143898D01*
X164072Y143794D01*
X164251Y143686D01*
X164428Y143574D01*
X164602Y143458D01*
X164773Y143337D01*
X164941Y143213D01*
X165106Y143084D01*
X165268Y142952D01*
X159680Y144984D02*
X159471Y144981D01*
X159262Y144974D01*
X159053Y144961D01*
X158844Y144944D01*
X158636Y144921D01*
X158429Y144894D01*
X158222Y144861D01*
X158016Y144823D01*
X157811Y144781D01*
X157607Y144734D01*
X157405Y144681D01*
X157204Y144624D01*
X157004Y144562D01*
X156805Y144495D01*
X156609Y144424D01*
X156414Y144348D01*
X156221Y144267D01*
X156030Y144181D01*
X155841Y144091D01*
X155654Y143997D01*
X155470Y143898D01*
X155288Y143794D01*
X155109Y143686D01*
X154932Y143574D01*
X154758Y143458D01*
X154587Y143337D01*
X154419Y143213D01*
X154254Y143084D01*
X154092Y142952D01*
X159172Y154408D02*
X159172Y156948D01*
X159174Y157048D01*
X159180Y157147D01*
X159190Y157247D01*
X159203Y157345D01*
X159221Y157444D01*
X159242Y157541D01*
X159267Y157637D01*
X159296Y157733D01*
X159329Y157827D01*
X159365Y157920D01*
X159405Y158011D01*
X159449Y158101D01*
X159496Y158189D01*
X159546Y158275D01*
X159600Y158359D01*
X159657Y158441D01*
X159717Y158520D01*
X159781Y158598D01*
X159847Y158672D01*
X159916Y158744D01*
X159988Y158813D01*
X160062Y158879D01*
X160140Y158943D01*
X160219Y159003D01*
X160301Y159060D01*
X160385Y159114D01*
X160471Y159164D01*
X160559Y159211D01*
X160649Y159255D01*
X160740Y159295D01*
X160833Y159331D01*
X160927Y159364D01*
X161023Y159393D01*
X161119Y159418D01*
X161216Y159439D01*
X161315Y159457D01*
X161413Y159470D01*
X161513Y159480D01*
X161612Y159486D01*
X161712Y159488D01*
X161812Y159486D01*
X161911Y159480D01*
X162011Y159470D01*
X162109Y159457D01*
X162208Y159439D01*
X162305Y159418D01*
X162401Y159393D01*
X162497Y159364D01*
X162591Y159331D01*
X162684Y159295D01*
X162775Y159255D01*
X162865Y159211D01*
X162953Y159164D01*
X163039Y159114D01*
X163123Y159060D01*
X163205Y159003D01*
X163284Y158943D01*
X163362Y158879D01*
X163436Y158813D01*
X163508Y158744D01*
X163577Y158672D01*
X163643Y158598D01*
X163707Y158520D01*
X163767Y158441D01*
X163824Y158359D01*
X163878Y158275D01*
X163928Y158189D01*
X163975Y158101D01*
X164019Y158011D01*
X164059Y157920D01*
X164095Y157827D01*
X164128Y157733D01*
X164157Y157637D01*
X164182Y157541D01*
X164203Y157444D01*
X164221Y157345D01*
X164234Y157247D01*
X164244Y157147D01*
X164250Y157048D01*
X164252Y156948D01*
X164252Y154408D01*
X155108Y154408D01*
X155108Y156948D01*
X155110Y157037D01*
X155116Y157125D01*
X155125Y157213D01*
X155139Y157301D01*
X155156Y157388D01*
X155177Y157474D01*
X155202Y157559D01*
X155231Y157643D01*
X155263Y157726D01*
X155298Y157807D01*
X155338Y157886D01*
X155380Y157964D01*
X155426Y158040D01*
X155475Y158114D01*
X155528Y158185D01*
X155583Y158254D01*
X155642Y158321D01*
X155703Y158385D01*
X155767Y158446D01*
X155834Y158505D01*
X155903Y158560D01*
X155974Y158613D01*
X156048Y158662D01*
X156124Y158708D01*
X156202Y158750D01*
X156281Y158790D01*
X156362Y158825D01*
X156445Y158857D01*
X156529Y158886D01*
X156614Y158911D01*
X156700Y158932D01*
X156787Y158949D01*
X156875Y158963D01*
X156963Y158972D01*
X157051Y158978D01*
X157140Y158980D01*
X157229Y158978D01*
X157317Y158972D01*
X157405Y158963D01*
X157493Y158949D01*
X157580Y158932D01*
X157666Y158911D01*
X157751Y158886D01*
X157835Y158857D01*
X157918Y158825D01*
X157999Y158790D01*
X158078Y158750D01*
X158156Y158708D01*
X158232Y158662D01*
X158306Y158613D01*
X158377Y158560D01*
X158446Y158505D01*
X158513Y158446D01*
X158577Y158385D01*
X158638Y158321D01*
X158697Y158254D01*
X158752Y158185D01*
X158805Y158114D01*
X158854Y158040D01*
X158900Y157964D01*
X158942Y157886D01*
X158982Y157807D01*
X159017Y157726D01*
X159049Y157643D01*
X159078Y157559D01*
X159103Y157474D01*
X159124Y157388D01*
X159141Y157301D01*
X159155Y157213D01*
X159164Y157125D01*
X159170Y157037D01*
X159172Y156948D01*
X163744Y162638D02*
X164252Y162638D01*
X163744Y162638D02*
X163744Y163146D01*
X164252Y163146D01*
X164252Y162638D01*
X164252Y172000D02*
X155108Y172000D01*
X155108Y174540D01*
X155110Y174640D01*
X155116Y174739D01*
X155126Y174839D01*
X155139Y174937D01*
X155157Y175036D01*
X155178Y175133D01*
X155203Y175229D01*
X155232Y175325D01*
X155265Y175419D01*
X155301Y175512D01*
X155341Y175603D01*
X155385Y175693D01*
X155432Y175781D01*
X155482Y175867D01*
X155536Y175951D01*
X155593Y176033D01*
X155653Y176112D01*
X155717Y176190D01*
X155783Y176264D01*
X155852Y176336D01*
X155924Y176405D01*
X155998Y176471D01*
X156076Y176535D01*
X156155Y176595D01*
X156237Y176652D01*
X156321Y176706D01*
X156407Y176756D01*
X156495Y176803D01*
X156585Y176847D01*
X156676Y176887D01*
X156769Y176923D01*
X156863Y176956D01*
X156959Y176985D01*
X157055Y177010D01*
X157152Y177031D01*
X157251Y177049D01*
X157349Y177062D01*
X157449Y177072D01*
X157548Y177078D01*
X157648Y177080D01*
X157748Y177078D01*
X157847Y177072D01*
X157947Y177062D01*
X158045Y177049D01*
X158144Y177031D01*
X158241Y177010D01*
X158337Y176985D01*
X158433Y176956D01*
X158527Y176923D01*
X158620Y176887D01*
X158711Y176847D01*
X158801Y176803D01*
X158889Y176756D01*
X158975Y176706D01*
X159059Y176652D01*
X159141Y176595D01*
X159220Y176535D01*
X159298Y176471D01*
X159372Y176405D01*
X159444Y176336D01*
X159513Y176264D01*
X159579Y176190D01*
X159643Y176112D01*
X159703Y176033D01*
X159760Y175951D01*
X159814Y175867D01*
X159864Y175781D01*
X159911Y175693D01*
X159955Y175603D01*
X159995Y175512D01*
X160031Y175419D01*
X160064Y175325D01*
X160093Y175229D01*
X160118Y175133D01*
X160139Y175036D01*
X160157Y174937D01*
X160170Y174839D01*
X160180Y174739D01*
X160186Y174640D01*
X160188Y174540D01*
X160188Y172000D01*
X160188Y175048D02*
X164252Y177080D01*
X160696Y182701D02*
X160696Y184987D01*
X160696Y182701D02*
X160698Y182618D01*
X160704Y182535D01*
X160714Y182452D01*
X160727Y182369D01*
X160745Y182288D01*
X160766Y182207D01*
X160791Y182128D01*
X160820Y182050D01*
X160852Y181973D01*
X160888Y181898D01*
X160927Y181824D01*
X160970Y181753D01*
X161016Y181683D01*
X161066Y181616D01*
X161118Y181551D01*
X161173Y181489D01*
X161232Y181429D01*
X161293Y181372D01*
X161356Y181318D01*
X161422Y181267D01*
X161491Y181220D01*
X161561Y181175D01*
X161634Y181134D01*
X161708Y181097D01*
X161784Y181062D01*
X161862Y181032D01*
X161940Y181005D01*
X162021Y180982D01*
X162102Y180962D01*
X162184Y180947D01*
X162266Y180935D01*
X162349Y180927D01*
X162432Y180923D01*
X162516Y180923D01*
X162599Y180927D01*
X162682Y180935D01*
X162764Y180947D01*
X162846Y180962D01*
X162927Y180982D01*
X163008Y181005D01*
X163086Y181032D01*
X163164Y181062D01*
X163240Y181097D01*
X163314Y181134D01*
X163387Y181175D01*
X163457Y181220D01*
X163526Y181267D01*
X163592Y181318D01*
X163655Y181372D01*
X163716Y181429D01*
X163775Y181489D01*
X163830Y181551D01*
X163882Y181616D01*
X163932Y181683D01*
X163978Y181753D01*
X164021Y181824D01*
X164060Y181898D01*
X164096Y181973D01*
X164128Y182050D01*
X164157Y182128D01*
X164182Y182207D01*
X164203Y182288D01*
X164221Y182369D01*
X164234Y182452D01*
X164244Y182535D01*
X164250Y182618D01*
X164252Y182701D01*
X164252Y184987D01*
X159680Y184987D01*
X159603Y184985D01*
X159526Y184979D01*
X159449Y184969D01*
X159373Y184956D01*
X159298Y184938D01*
X159224Y184917D01*
X159151Y184892D01*
X159079Y184863D01*
X159009Y184831D01*
X158940Y184796D01*
X158874Y184756D01*
X158809Y184714D01*
X158747Y184668D01*
X158687Y184619D01*
X158630Y184568D01*
X158575Y184513D01*
X158524Y184456D01*
X158475Y184396D01*
X158429Y184334D01*
X158387Y184269D01*
X158347Y184203D01*
X158312Y184134D01*
X158280Y184064D01*
X158251Y183992D01*
X158226Y183919D01*
X158205Y183845D01*
X158187Y183770D01*
X158174Y183694D01*
X158164Y183617D01*
X158158Y183540D01*
X158156Y183463D01*
X158156Y181431D01*
X164252Y190742D02*
X164252Y192774D01*
X164252Y190742D02*
X164250Y190665D01*
X164244Y190588D01*
X164234Y190511D01*
X164221Y190435D01*
X164203Y190360D01*
X164182Y190286D01*
X164157Y190213D01*
X164128Y190141D01*
X164096Y190071D01*
X164061Y190002D01*
X164021Y189936D01*
X163979Y189871D01*
X163933Y189809D01*
X163884Y189749D01*
X163833Y189692D01*
X163778Y189637D01*
X163721Y189586D01*
X163661Y189537D01*
X163599Y189491D01*
X163534Y189449D01*
X163468Y189409D01*
X163399Y189374D01*
X163329Y189342D01*
X163257Y189313D01*
X163184Y189288D01*
X163110Y189267D01*
X163035Y189249D01*
X162959Y189236D01*
X162882Y189226D01*
X162805Y189220D01*
X162728Y189218D01*
X159680Y189218D01*
X159603Y189220D01*
X159526Y189226D01*
X159449Y189236D01*
X159373Y189249D01*
X159298Y189267D01*
X159224Y189288D01*
X159151Y189313D01*
X159079Y189342D01*
X159009Y189374D01*
X158940Y189409D01*
X158874Y189449D01*
X158809Y189491D01*
X158747Y189537D01*
X158687Y189586D01*
X158630Y189637D01*
X158575Y189692D01*
X158524Y189749D01*
X158475Y189809D01*
X158429Y189871D01*
X158387Y189936D01*
X158347Y190002D01*
X158312Y190071D01*
X158280Y190141D01*
X158251Y190213D01*
X158226Y190286D01*
X158205Y190360D01*
X158187Y190435D01*
X158174Y190511D01*
X158164Y190588D01*
X158158Y190665D01*
X158156Y190742D01*
X158156Y192774D01*
X158156Y195911D02*
X158156Y199975D01*
X164252Y195911D01*
X164252Y199975D01*
X172634Y135588D02*
X172540Y135586D01*
X172445Y135580D01*
X172351Y135570D01*
X172258Y135557D01*
X172165Y135539D01*
X172073Y135518D01*
X171982Y135493D01*
X171892Y135464D01*
X171803Y135432D01*
X171716Y135395D01*
X171630Y135356D01*
X171546Y135312D01*
X171464Y135266D01*
X171384Y135216D01*
X171306Y135162D01*
X171230Y135106D01*
X171157Y135046D01*
X171086Y134984D01*
X171018Y134918D01*
X170952Y134850D01*
X170890Y134779D01*
X170830Y134706D01*
X170774Y134630D01*
X170720Y134552D01*
X170670Y134472D01*
X170624Y134390D01*
X170580Y134306D01*
X170541Y134220D01*
X170504Y134133D01*
X170472Y134044D01*
X170443Y133954D01*
X170418Y133863D01*
X170397Y133771D01*
X170379Y133678D01*
X170366Y133585D01*
X170356Y133491D01*
X170350Y133396D01*
X170348Y133302D01*
X170350Y133196D01*
X170356Y133091D01*
X170365Y132986D01*
X170378Y132881D01*
X170395Y132777D01*
X170416Y132674D01*
X170440Y132571D01*
X170469Y132469D01*
X170500Y132369D01*
X170536Y132269D01*
X170574Y132171D01*
X170617Y132075D01*
X170663Y131979D01*
X170712Y131886D01*
X170764Y131795D01*
X170820Y131705D01*
X170879Y131617D01*
X170941Y131532D01*
X171006Y131449D01*
X171074Y131368D01*
X171145Y131290D01*
X171219Y131215D01*
X171295Y131142D01*
X171374Y131072D01*
X171455Y131005D01*
X171539Y130940D01*
X171625Y130879D01*
X171713Y130821D01*
X171803Y130766D01*
X171895Y130715D01*
X171989Y130666D01*
X172085Y130621D01*
X172182Y130580D01*
X172280Y130542D01*
X172380Y130508D01*
X174412Y134826D02*
X174345Y134893D01*
X174276Y134958D01*
X174204Y135020D01*
X174131Y135079D01*
X174054Y135135D01*
X173976Y135189D01*
X173896Y135239D01*
X173814Y135286D01*
X173730Y135330D01*
X173644Y135370D01*
X173557Y135408D01*
X173469Y135442D01*
X173379Y135472D01*
X173289Y135499D01*
X173197Y135523D01*
X173104Y135543D01*
X173011Y135559D01*
X172917Y135572D01*
X172823Y135581D01*
X172729Y135586D01*
X172634Y135588D01*
X174412Y134826D02*
X179492Y130508D01*
X179492Y135588D01*
X174920Y139652D02*
X174740Y139654D01*
X174560Y139661D01*
X174381Y139671D01*
X174202Y139686D01*
X174023Y139706D01*
X173844Y139729D01*
X173667Y139757D01*
X173490Y139789D01*
X173313Y139825D01*
X173138Y139866D01*
X172964Y139910D01*
X172791Y139959D01*
X172619Y140012D01*
X172448Y140069D01*
X172279Y140130D01*
X172111Y140195D01*
X171945Y140264D01*
X171781Y140337D01*
X171618Y140414D01*
X171540Y140442D01*
X171463Y140475D01*
X171388Y140510D01*
X171314Y140549D01*
X171242Y140591D01*
X171173Y140636D01*
X171105Y140685D01*
X171039Y140736D01*
X170976Y140790D01*
X170915Y140847D01*
X170856Y140906D01*
X170801Y140968D01*
X170748Y141033D01*
X170698Y141099D01*
X170651Y141168D01*
X170607Y141239D01*
X170567Y141312D01*
X170530Y141386D01*
X170495Y141462D01*
X170465Y141540D01*
X170438Y141618D01*
X170414Y141698D01*
X170394Y141779D01*
X170377Y141861D01*
X170365Y141943D01*
X170355Y142026D01*
X170350Y142109D01*
X170348Y142192D01*
X170350Y142275D01*
X170355Y142358D01*
X170365Y142441D01*
X170377Y142523D01*
X170394Y142605D01*
X170414Y142686D01*
X170438Y142766D01*
X170465Y142844D01*
X170495Y142922D01*
X170530Y142998D01*
X170567Y143072D01*
X170607Y143145D01*
X170651Y143216D01*
X170698Y143285D01*
X170748Y143351D01*
X170801Y143416D01*
X170856Y143478D01*
X170915Y143537D01*
X170976Y143594D01*
X171039Y143648D01*
X171105Y143699D01*
X171173Y143748D01*
X171242Y143793D01*
X171314Y143835D01*
X171388Y143874D01*
X171463Y143909D01*
X171540Y143942D01*
X171618Y143970D01*
X171781Y144047D01*
X171945Y144120D01*
X172111Y144189D01*
X172279Y144254D01*
X172448Y144315D01*
X172619Y144372D01*
X172791Y144425D01*
X172964Y144474D01*
X173138Y144518D01*
X173313Y144559D01*
X173490Y144595D01*
X173667Y144627D01*
X173844Y144655D01*
X174023Y144678D01*
X174202Y144698D01*
X174381Y144713D01*
X174560Y144723D01*
X174740Y144730D01*
X174920Y144732D01*
X174920Y139652D02*
X175100Y139654D01*
X175280Y139661D01*
X175459Y139671D01*
X175638Y139686D01*
X175817Y139706D01*
X175996Y139729D01*
X176173Y139757D01*
X176350Y139789D01*
X176527Y139825D01*
X176702Y139866D01*
X176876Y139910D01*
X177049Y139959D01*
X177221Y140012D01*
X177392Y140069D01*
X177561Y140130D01*
X177729Y140195D01*
X177895Y140264D01*
X178059Y140337D01*
X178222Y140414D01*
X178300Y140442D01*
X178377Y140475D01*
X178452Y140510D01*
X178526Y140549D01*
X178598Y140591D01*
X178667Y140636D01*
X178735Y140685D01*
X178801Y140736D01*
X178864Y140790D01*
X178925Y140847D01*
X178984Y140906D01*
X179039Y140968D01*
X179092Y141033D01*
X179142Y141099D01*
X179189Y141168D01*
X179233Y141239D01*
X179273Y141312D01*
X179310Y141386D01*
X179345Y141462D01*
X179375Y141540D01*
X179402Y141618D01*
X179426Y141698D01*
X179446Y141779D01*
X179463Y141861D01*
X179475Y141943D01*
X179485Y142026D01*
X179490Y142109D01*
X179492Y142192D01*
X178222Y143970D02*
X178059Y144047D01*
X177895Y144120D01*
X177729Y144189D01*
X177561Y144254D01*
X177392Y144315D01*
X177221Y144372D01*
X177049Y144425D01*
X176876Y144474D01*
X176702Y144518D01*
X176527Y144559D01*
X176350Y144595D01*
X176173Y144627D01*
X175996Y144655D01*
X175817Y144678D01*
X175638Y144698D01*
X175459Y144713D01*
X175280Y144723D01*
X175100Y144730D01*
X174920Y144732D01*
X178222Y143970D02*
X178300Y143942D01*
X178377Y143909D01*
X178452Y143874D01*
X178526Y143835D01*
X178598Y143793D01*
X178667Y143748D01*
X178735Y143699D01*
X178801Y143648D01*
X178864Y143594D01*
X178925Y143537D01*
X178984Y143478D01*
X179039Y143416D01*
X179092Y143351D01*
X179142Y143285D01*
X179189Y143216D01*
X179233Y143145D01*
X179273Y143072D01*
X179310Y142998D01*
X179345Y142922D01*
X179375Y142844D01*
X179402Y142766D01*
X179426Y142686D01*
X179446Y142605D01*
X179463Y142523D01*
X179475Y142441D01*
X179485Y142358D01*
X179490Y142275D01*
X179492Y142192D01*
X177460Y140160D02*
X172380Y144224D01*
X170348Y151590D02*
X170350Y151684D01*
X170356Y151779D01*
X170366Y151873D01*
X170379Y151966D01*
X170397Y152059D01*
X170418Y152151D01*
X170443Y152242D01*
X170472Y152332D01*
X170504Y152421D01*
X170541Y152508D01*
X170580Y152594D01*
X170624Y152678D01*
X170670Y152760D01*
X170720Y152840D01*
X170774Y152918D01*
X170830Y152994D01*
X170890Y153067D01*
X170952Y153138D01*
X171018Y153206D01*
X171086Y153272D01*
X171157Y153334D01*
X171230Y153394D01*
X171306Y153450D01*
X171384Y153504D01*
X171464Y153554D01*
X171546Y153600D01*
X171630Y153644D01*
X171716Y153683D01*
X171803Y153720D01*
X171892Y153752D01*
X171982Y153781D01*
X172073Y153806D01*
X172165Y153827D01*
X172258Y153845D01*
X172351Y153858D01*
X172445Y153868D01*
X172540Y153874D01*
X172634Y153876D01*
X170348Y151590D02*
X170350Y151484D01*
X170356Y151379D01*
X170365Y151274D01*
X170378Y151169D01*
X170395Y151065D01*
X170416Y150962D01*
X170440Y150859D01*
X170469Y150757D01*
X170500Y150657D01*
X170536Y150557D01*
X170574Y150459D01*
X170617Y150363D01*
X170663Y150267D01*
X170712Y150174D01*
X170764Y150083D01*
X170820Y149993D01*
X170879Y149905D01*
X170941Y149820D01*
X171006Y149737D01*
X171074Y149656D01*
X171145Y149578D01*
X171219Y149503D01*
X171295Y149430D01*
X171374Y149360D01*
X171455Y149293D01*
X171539Y149228D01*
X171625Y149167D01*
X171713Y149109D01*
X171803Y149054D01*
X171895Y149003D01*
X171989Y148954D01*
X172085Y148909D01*
X172182Y148868D01*
X172280Y148830D01*
X172380Y148796D01*
X174412Y153114D02*
X174345Y153181D01*
X174276Y153246D01*
X174204Y153308D01*
X174131Y153367D01*
X174054Y153423D01*
X173976Y153477D01*
X173896Y153527D01*
X173814Y153574D01*
X173730Y153618D01*
X173644Y153658D01*
X173557Y153696D01*
X173469Y153730D01*
X173379Y153760D01*
X173289Y153787D01*
X173197Y153811D01*
X173104Y153831D01*
X173011Y153847D01*
X172917Y153860D01*
X172823Y153869D01*
X172729Y153874D01*
X172634Y153876D01*
X174412Y153114D02*
X179492Y148796D01*
X179492Y153876D01*
X179492Y157940D02*
X179492Y160480D01*
X179490Y160580D01*
X179484Y160679D01*
X179474Y160779D01*
X179461Y160877D01*
X179443Y160976D01*
X179422Y161073D01*
X179397Y161169D01*
X179368Y161265D01*
X179335Y161359D01*
X179299Y161452D01*
X179259Y161543D01*
X179215Y161633D01*
X179168Y161721D01*
X179118Y161807D01*
X179064Y161891D01*
X179007Y161973D01*
X178947Y162052D01*
X178883Y162130D01*
X178817Y162204D01*
X178748Y162276D01*
X178676Y162345D01*
X178602Y162411D01*
X178524Y162475D01*
X178445Y162535D01*
X178363Y162592D01*
X178279Y162646D01*
X178193Y162696D01*
X178105Y162743D01*
X178015Y162787D01*
X177924Y162827D01*
X177831Y162863D01*
X177737Y162896D01*
X177641Y162925D01*
X177545Y162950D01*
X177448Y162971D01*
X177349Y162989D01*
X177251Y163002D01*
X177151Y163012D01*
X177052Y163018D01*
X176952Y163020D01*
X176852Y163018D01*
X176753Y163012D01*
X176653Y163002D01*
X176555Y162989D01*
X176456Y162971D01*
X176359Y162950D01*
X176263Y162925D01*
X176167Y162896D01*
X176073Y162863D01*
X175980Y162827D01*
X175889Y162787D01*
X175799Y162743D01*
X175711Y162696D01*
X175625Y162646D01*
X175541Y162592D01*
X175459Y162535D01*
X175380Y162475D01*
X175302Y162411D01*
X175228Y162345D01*
X175156Y162276D01*
X175087Y162204D01*
X175021Y162130D01*
X174957Y162052D01*
X174897Y161973D01*
X174840Y161891D01*
X174786Y161807D01*
X174736Y161721D01*
X174689Y161633D01*
X174645Y161543D01*
X174605Y161452D01*
X174569Y161359D01*
X174536Y161265D01*
X174507Y161169D01*
X174482Y161073D01*
X174461Y160976D01*
X174443Y160877D01*
X174430Y160779D01*
X174420Y160679D01*
X174414Y160580D01*
X174412Y160480D01*
X170348Y160988D02*
X170348Y157940D01*
X170348Y160988D02*
X170350Y161077D01*
X170356Y161165D01*
X170365Y161253D01*
X170379Y161341D01*
X170396Y161428D01*
X170417Y161514D01*
X170442Y161599D01*
X170471Y161683D01*
X170503Y161766D01*
X170538Y161847D01*
X170578Y161926D01*
X170620Y162004D01*
X170666Y162080D01*
X170715Y162154D01*
X170768Y162225D01*
X170823Y162294D01*
X170882Y162361D01*
X170943Y162425D01*
X171007Y162486D01*
X171074Y162545D01*
X171143Y162600D01*
X171214Y162653D01*
X171288Y162702D01*
X171364Y162748D01*
X171442Y162790D01*
X171521Y162830D01*
X171602Y162865D01*
X171685Y162897D01*
X171769Y162926D01*
X171854Y162951D01*
X171940Y162972D01*
X172027Y162989D01*
X172115Y163003D01*
X172203Y163012D01*
X172291Y163018D01*
X172380Y163020D01*
X172469Y163018D01*
X172557Y163012D01*
X172645Y163003D01*
X172733Y162989D01*
X172820Y162972D01*
X172906Y162951D01*
X172991Y162926D01*
X173075Y162897D01*
X173158Y162865D01*
X173239Y162830D01*
X173318Y162790D01*
X173396Y162748D01*
X173472Y162702D01*
X173546Y162653D01*
X173617Y162600D01*
X173686Y162545D01*
X173753Y162486D01*
X173817Y162425D01*
X173878Y162361D01*
X173937Y162294D01*
X173992Y162225D01*
X174045Y162154D01*
X174094Y162080D01*
X174140Y162004D01*
X174182Y161926D01*
X174222Y161847D01*
X174257Y161766D01*
X174289Y161683D01*
X174318Y161599D01*
X174343Y161514D01*
X174364Y161428D01*
X174381Y161341D01*
X174395Y161253D01*
X174404Y161165D01*
X174410Y161077D01*
X174412Y160988D01*
X174412Y158956D01*
X175936Y167186D02*
X175936Y173282D01*
X174920Y177448D02*
X174740Y177450D01*
X174560Y177457D01*
X174381Y177467D01*
X174202Y177482D01*
X174023Y177502D01*
X173844Y177525D01*
X173667Y177553D01*
X173490Y177585D01*
X173313Y177621D01*
X173138Y177662D01*
X172964Y177706D01*
X172791Y177755D01*
X172619Y177808D01*
X172448Y177865D01*
X172279Y177926D01*
X172111Y177991D01*
X171945Y178060D01*
X171781Y178133D01*
X171618Y178210D01*
X171618Y178209D02*
X171540Y178237D01*
X171463Y178270D01*
X171388Y178305D01*
X171314Y178344D01*
X171242Y178386D01*
X171173Y178431D01*
X171105Y178480D01*
X171039Y178531D01*
X170976Y178585D01*
X170915Y178642D01*
X170856Y178701D01*
X170801Y178763D01*
X170748Y178828D01*
X170698Y178894D01*
X170651Y178963D01*
X170607Y179034D01*
X170567Y179107D01*
X170530Y179181D01*
X170495Y179257D01*
X170465Y179335D01*
X170438Y179413D01*
X170414Y179493D01*
X170394Y179574D01*
X170377Y179656D01*
X170365Y179738D01*
X170355Y179821D01*
X170350Y179904D01*
X170348Y179987D01*
X170350Y180070D01*
X170355Y180153D01*
X170365Y180236D01*
X170377Y180318D01*
X170394Y180400D01*
X170414Y180481D01*
X170438Y180561D01*
X170465Y180639D01*
X170495Y180717D01*
X170530Y180793D01*
X170567Y180867D01*
X170607Y180940D01*
X170651Y181011D01*
X170698Y181080D01*
X170748Y181146D01*
X170801Y181211D01*
X170856Y181273D01*
X170915Y181332D01*
X170976Y181389D01*
X171039Y181443D01*
X171105Y181494D01*
X171173Y181543D01*
X171242Y181588D01*
X171314Y181630D01*
X171388Y181669D01*
X171463Y181704D01*
X171540Y181737D01*
X171618Y181765D01*
X171781Y181842D01*
X171945Y181915D01*
X172111Y181984D01*
X172279Y182049D01*
X172448Y182110D01*
X172619Y182167D01*
X172791Y182220D01*
X172964Y182269D01*
X173138Y182313D01*
X173313Y182354D01*
X173490Y182390D01*
X173667Y182422D01*
X173844Y182450D01*
X174023Y182473D01*
X174202Y182493D01*
X174381Y182508D01*
X174560Y182518D01*
X174740Y182525D01*
X174920Y182527D01*
X174920Y177448D02*
X175100Y177450D01*
X175280Y177457D01*
X175459Y177467D01*
X175638Y177482D01*
X175817Y177502D01*
X175996Y177525D01*
X176173Y177553D01*
X176350Y177585D01*
X176527Y177621D01*
X176702Y177662D01*
X176876Y177706D01*
X177049Y177755D01*
X177221Y177808D01*
X177392Y177865D01*
X177561Y177926D01*
X177729Y177991D01*
X177895Y178060D01*
X178059Y178133D01*
X178222Y178210D01*
X178222Y178209D02*
X178300Y178237D01*
X178377Y178270D01*
X178452Y178305D01*
X178526Y178344D01*
X178598Y178386D01*
X178667Y178431D01*
X178735Y178480D01*
X178801Y178531D01*
X178864Y178585D01*
X178925Y178642D01*
X178984Y178701D01*
X179039Y178763D01*
X179092Y178828D01*
X179142Y178894D01*
X179189Y178963D01*
X179233Y179034D01*
X179273Y179107D01*
X179310Y179181D01*
X179345Y179257D01*
X179375Y179335D01*
X179402Y179413D01*
X179426Y179493D01*
X179446Y179574D01*
X179463Y179656D01*
X179475Y179738D01*
X179485Y179821D01*
X179490Y179904D01*
X179492Y179987D01*
X178222Y181765D02*
X178059Y181842D01*
X177895Y181915D01*
X177729Y181984D01*
X177561Y182049D01*
X177392Y182110D01*
X177221Y182167D01*
X177049Y182220D01*
X176876Y182269D01*
X176702Y182313D01*
X176527Y182354D01*
X176350Y182390D01*
X176173Y182422D01*
X175996Y182450D01*
X175817Y182473D01*
X175638Y182493D01*
X175459Y182508D01*
X175280Y182518D01*
X175100Y182525D01*
X174920Y182527D01*
X178222Y181765D02*
X178300Y181737D01*
X178377Y181704D01*
X178452Y181669D01*
X178526Y181630D01*
X178598Y181588D01*
X178667Y181543D01*
X178735Y181494D01*
X178801Y181443D01*
X178864Y181389D01*
X178925Y181332D01*
X178984Y181273D01*
X179039Y181211D01*
X179092Y181146D01*
X179142Y181080D01*
X179189Y181011D01*
X179233Y180940D01*
X179273Y180867D01*
X179310Y180793D01*
X179345Y180717D01*
X179375Y180639D01*
X179402Y180561D01*
X179426Y180481D01*
X179446Y180400D01*
X179463Y180318D01*
X179475Y180236D01*
X179485Y180153D01*
X179490Y180070D01*
X179492Y179987D01*
X177460Y177955D02*
X172380Y182019D01*
X177460Y186591D02*
X170348Y188623D01*
X177460Y186591D02*
X177460Y191671D01*
X175428Y190147D02*
X179492Y190147D01*
X175936Y195837D02*
X175936Y201933D01*
X174920Y206099D02*
X174740Y206101D01*
X174560Y206108D01*
X174381Y206118D01*
X174202Y206133D01*
X174023Y206153D01*
X173844Y206176D01*
X173667Y206204D01*
X173490Y206236D01*
X173313Y206272D01*
X173138Y206313D01*
X172964Y206357D01*
X172791Y206406D01*
X172619Y206459D01*
X172448Y206516D01*
X172279Y206577D01*
X172111Y206642D01*
X171945Y206711D01*
X171781Y206784D01*
X171618Y206861D01*
X171618Y206860D02*
X171540Y206888D01*
X171463Y206921D01*
X171388Y206956D01*
X171314Y206995D01*
X171242Y207037D01*
X171173Y207082D01*
X171105Y207131D01*
X171039Y207182D01*
X170976Y207236D01*
X170915Y207293D01*
X170856Y207352D01*
X170801Y207414D01*
X170748Y207479D01*
X170698Y207545D01*
X170651Y207614D01*
X170607Y207685D01*
X170567Y207758D01*
X170530Y207832D01*
X170495Y207908D01*
X170465Y207986D01*
X170438Y208064D01*
X170414Y208144D01*
X170394Y208225D01*
X170377Y208307D01*
X170365Y208389D01*
X170355Y208472D01*
X170350Y208555D01*
X170348Y208638D01*
X170350Y208721D01*
X170355Y208804D01*
X170365Y208887D01*
X170377Y208969D01*
X170394Y209051D01*
X170414Y209132D01*
X170438Y209212D01*
X170465Y209290D01*
X170495Y209368D01*
X170530Y209444D01*
X170567Y209518D01*
X170607Y209591D01*
X170651Y209662D01*
X170698Y209731D01*
X170748Y209797D01*
X170801Y209862D01*
X170856Y209924D01*
X170915Y209983D01*
X170976Y210040D01*
X171039Y210094D01*
X171105Y210145D01*
X171173Y210194D01*
X171242Y210239D01*
X171314Y210281D01*
X171388Y210320D01*
X171463Y210355D01*
X171540Y210388D01*
X171618Y210416D01*
X171781Y210493D01*
X171945Y210566D01*
X172111Y210635D01*
X172279Y210700D01*
X172448Y210761D01*
X172619Y210818D01*
X172791Y210871D01*
X172964Y210920D01*
X173138Y210964D01*
X173313Y211005D01*
X173490Y211041D01*
X173667Y211073D01*
X173844Y211101D01*
X174023Y211124D01*
X174202Y211144D01*
X174381Y211159D01*
X174560Y211169D01*
X174740Y211176D01*
X174920Y211178D01*
X174920Y206099D02*
X175100Y206101D01*
X175280Y206108D01*
X175459Y206118D01*
X175638Y206133D01*
X175817Y206153D01*
X175996Y206176D01*
X176173Y206204D01*
X176350Y206236D01*
X176527Y206272D01*
X176702Y206313D01*
X176876Y206357D01*
X177049Y206406D01*
X177221Y206459D01*
X177392Y206516D01*
X177561Y206577D01*
X177729Y206642D01*
X177895Y206711D01*
X178059Y206784D01*
X178222Y206861D01*
X178222Y206860D02*
X178300Y206888D01*
X178377Y206921D01*
X178452Y206956D01*
X178526Y206995D01*
X178598Y207037D01*
X178667Y207082D01*
X178735Y207131D01*
X178801Y207182D01*
X178864Y207236D01*
X178925Y207293D01*
X178984Y207352D01*
X179039Y207414D01*
X179092Y207479D01*
X179142Y207545D01*
X179189Y207614D01*
X179233Y207685D01*
X179273Y207758D01*
X179310Y207832D01*
X179345Y207908D01*
X179375Y207986D01*
X179402Y208064D01*
X179426Y208144D01*
X179446Y208225D01*
X179463Y208307D01*
X179475Y208389D01*
X179485Y208472D01*
X179490Y208555D01*
X179492Y208638D01*
X178222Y210416D02*
X178059Y210493D01*
X177895Y210566D01*
X177729Y210635D01*
X177561Y210700D01*
X177392Y210761D01*
X177221Y210818D01*
X177049Y210871D01*
X176876Y210920D01*
X176702Y210964D01*
X176527Y211005D01*
X176350Y211041D01*
X176173Y211073D01*
X175996Y211101D01*
X175817Y211124D01*
X175638Y211144D01*
X175459Y211159D01*
X175280Y211169D01*
X175100Y211176D01*
X174920Y211178D01*
X178222Y210416D02*
X178300Y210388D01*
X178377Y210355D01*
X178452Y210320D01*
X178526Y210281D01*
X178598Y210239D01*
X178667Y210194D01*
X178735Y210145D01*
X178801Y210094D01*
X178864Y210040D01*
X178925Y209983D01*
X178984Y209924D01*
X179039Y209862D01*
X179092Y209797D01*
X179142Y209731D01*
X179189Y209662D01*
X179233Y209591D01*
X179273Y209518D01*
X179310Y209444D01*
X179345Y209368D01*
X179375Y209290D01*
X179402Y209212D01*
X179426Y209132D01*
X179446Y209051D01*
X179463Y208969D01*
X179475Y208887D01*
X179485Y208804D01*
X179490Y208721D01*
X179492Y208638D01*
X177460Y206606D02*
X172380Y210670D01*
X175428Y217274D02*
X175428Y220322D01*
X175428Y217274D02*
X175426Y217185D01*
X175420Y217097D01*
X175411Y217009D01*
X175397Y216921D01*
X175380Y216834D01*
X175359Y216748D01*
X175334Y216663D01*
X175305Y216579D01*
X175273Y216496D01*
X175238Y216415D01*
X175198Y216336D01*
X175156Y216258D01*
X175110Y216182D01*
X175061Y216108D01*
X175008Y216037D01*
X174953Y215968D01*
X174894Y215901D01*
X174833Y215837D01*
X174769Y215776D01*
X174702Y215717D01*
X174633Y215662D01*
X174562Y215609D01*
X174488Y215560D01*
X174412Y215514D01*
X174334Y215472D01*
X174255Y215432D01*
X174174Y215397D01*
X174091Y215365D01*
X174007Y215336D01*
X173922Y215311D01*
X173836Y215290D01*
X173749Y215273D01*
X173661Y215259D01*
X173573Y215250D01*
X173485Y215244D01*
X173396Y215242D01*
X172888Y215242D01*
X172788Y215244D01*
X172689Y215250D01*
X172589Y215260D01*
X172491Y215273D01*
X172392Y215291D01*
X172295Y215312D01*
X172199Y215337D01*
X172103Y215366D01*
X172009Y215399D01*
X171916Y215435D01*
X171825Y215475D01*
X171735Y215519D01*
X171647Y215566D01*
X171561Y215616D01*
X171477Y215670D01*
X171395Y215727D01*
X171316Y215787D01*
X171238Y215851D01*
X171164Y215917D01*
X171092Y215986D01*
X171023Y216058D01*
X170957Y216132D01*
X170893Y216210D01*
X170833Y216289D01*
X170776Y216371D01*
X170722Y216455D01*
X170672Y216541D01*
X170625Y216629D01*
X170581Y216719D01*
X170541Y216810D01*
X170505Y216903D01*
X170472Y216997D01*
X170443Y217093D01*
X170418Y217189D01*
X170397Y217286D01*
X170379Y217385D01*
X170366Y217483D01*
X170356Y217583D01*
X170350Y217682D01*
X170348Y217782D01*
X170350Y217882D01*
X170356Y217981D01*
X170366Y218081D01*
X170379Y218179D01*
X170397Y218278D01*
X170418Y218375D01*
X170443Y218471D01*
X170472Y218567D01*
X170505Y218661D01*
X170541Y218754D01*
X170581Y218845D01*
X170625Y218935D01*
X170672Y219023D01*
X170722Y219109D01*
X170776Y219193D01*
X170833Y219275D01*
X170893Y219354D01*
X170957Y219432D01*
X171023Y219506D01*
X171092Y219578D01*
X171164Y219647D01*
X171238Y219713D01*
X171316Y219777D01*
X171395Y219837D01*
X171477Y219894D01*
X171561Y219948D01*
X171647Y219998D01*
X171735Y220045D01*
X171825Y220089D01*
X171916Y220129D01*
X172009Y220165D01*
X172103Y220198D01*
X172199Y220227D01*
X172295Y220252D01*
X172392Y220273D01*
X172491Y220291D01*
X172589Y220304D01*
X172689Y220314D01*
X172788Y220320D01*
X172888Y220322D01*
X175428Y220322D01*
X175553Y220320D01*
X175678Y220314D01*
X175803Y220305D01*
X175927Y220291D01*
X176051Y220274D01*
X176175Y220253D01*
X176297Y220228D01*
X176419Y220199D01*
X176540Y220167D01*
X176660Y220131D01*
X176779Y220091D01*
X176896Y220048D01*
X177012Y220001D01*
X177127Y219950D01*
X177239Y219896D01*
X177351Y219838D01*
X177460Y219778D01*
X177567Y219713D01*
X177673Y219646D01*
X177776Y219575D01*
X177877Y219501D01*
X177976Y219424D01*
X178072Y219344D01*
X178166Y219261D01*
X178257Y219176D01*
X178346Y219087D01*
X178431Y218996D01*
X178514Y218902D01*
X178594Y218806D01*
X178671Y218707D01*
X178745Y218606D01*
X178816Y218503D01*
X178883Y218397D01*
X178948Y218290D01*
X179008Y218181D01*
X179066Y218069D01*
X179120Y217957D01*
X179171Y217842D01*
X179218Y217726D01*
X179261Y217609D01*
X179301Y217490D01*
X179337Y217370D01*
X179369Y217249D01*
X179398Y217127D01*
X179423Y217005D01*
X179444Y216881D01*
X179461Y216757D01*
X179475Y216633D01*
X179484Y216508D01*
X179490Y216383D01*
X179492Y216258D01*
D11*
X112310Y237580D02*
X112310Y303080D01*
X167060Y303080D01*
X172060Y298080D01*
X172060Y242580D01*
X167060Y237580D01*
X112310Y237580D01*
D12*
X107394Y270330D03*
D10*
X44196Y269240D02*
X44196Y265176D01*
X44196Y269240D02*
X44198Y269340D01*
X44204Y269439D01*
X44214Y269539D01*
X44227Y269637D01*
X44245Y269736D01*
X44266Y269833D01*
X44291Y269929D01*
X44320Y270025D01*
X44353Y270119D01*
X44389Y270212D01*
X44429Y270303D01*
X44473Y270393D01*
X44520Y270481D01*
X44570Y270567D01*
X44624Y270651D01*
X44681Y270733D01*
X44741Y270812D01*
X44805Y270890D01*
X44871Y270964D01*
X44940Y271036D01*
X45012Y271105D01*
X45086Y271171D01*
X45164Y271235D01*
X45243Y271295D01*
X45325Y271352D01*
X45409Y271406D01*
X45495Y271456D01*
X45583Y271503D01*
X45673Y271547D01*
X45764Y271587D01*
X45857Y271623D01*
X45951Y271656D01*
X46047Y271685D01*
X46143Y271710D01*
X46240Y271731D01*
X46339Y271749D01*
X46437Y271762D01*
X46537Y271772D01*
X46636Y271778D01*
X46736Y271780D01*
X46836Y271778D01*
X46935Y271772D01*
X47035Y271762D01*
X47133Y271749D01*
X47232Y271731D01*
X47329Y271710D01*
X47425Y271685D01*
X47521Y271656D01*
X47615Y271623D01*
X47708Y271587D01*
X47799Y271547D01*
X47889Y271503D01*
X47977Y271456D01*
X48063Y271406D01*
X48147Y271352D01*
X48229Y271295D01*
X48308Y271235D01*
X48386Y271171D01*
X48460Y271105D01*
X48532Y271036D01*
X48601Y270964D01*
X48667Y270890D01*
X48731Y270812D01*
X48791Y270733D01*
X48848Y270651D01*
X48902Y270567D01*
X48952Y270481D01*
X48999Y270393D01*
X49043Y270303D01*
X49083Y270212D01*
X49119Y270119D01*
X49152Y270025D01*
X49181Y269929D01*
X49206Y269833D01*
X49227Y269736D01*
X49245Y269637D01*
X49258Y269539D01*
X49268Y269439D01*
X49274Y269340D01*
X49276Y269240D01*
X49276Y265176D01*
X49274Y265076D01*
X49268Y264977D01*
X49258Y264877D01*
X49245Y264779D01*
X49227Y264680D01*
X49206Y264583D01*
X49181Y264487D01*
X49152Y264391D01*
X49119Y264297D01*
X49083Y264204D01*
X49043Y264113D01*
X48999Y264023D01*
X48952Y263935D01*
X48902Y263849D01*
X48848Y263765D01*
X48791Y263683D01*
X48731Y263604D01*
X48667Y263526D01*
X48601Y263452D01*
X48532Y263380D01*
X48460Y263311D01*
X48386Y263245D01*
X48308Y263181D01*
X48229Y263121D01*
X48147Y263064D01*
X48063Y263010D01*
X47977Y262960D01*
X47889Y262913D01*
X47799Y262869D01*
X47708Y262829D01*
X47615Y262793D01*
X47521Y262760D01*
X47425Y262731D01*
X47329Y262706D01*
X47232Y262685D01*
X47133Y262667D01*
X47035Y262654D01*
X46935Y262644D01*
X46836Y262638D01*
X46736Y262636D01*
X46636Y262638D01*
X46537Y262644D01*
X46437Y262654D01*
X46339Y262667D01*
X46240Y262685D01*
X46143Y262706D01*
X46047Y262731D01*
X45951Y262760D01*
X45857Y262793D01*
X45764Y262829D01*
X45673Y262869D01*
X45583Y262913D01*
X45495Y262960D01*
X45409Y263010D01*
X45325Y263064D01*
X45243Y263121D01*
X45164Y263181D01*
X45086Y263245D01*
X45012Y263311D01*
X44940Y263380D01*
X44871Y263452D01*
X44805Y263526D01*
X44741Y263604D01*
X44681Y263683D01*
X44624Y263765D01*
X44570Y263849D01*
X44520Y263935D01*
X44473Y264023D01*
X44429Y264113D01*
X44389Y264204D01*
X44353Y264297D01*
X44320Y264391D01*
X44291Y264487D01*
X44266Y264583D01*
X44245Y264680D01*
X44227Y264779D01*
X44214Y264877D01*
X44204Y264977D01*
X44198Y265076D01*
X44196Y265176D01*
X48260Y264668D02*
X50292Y262636D01*
X53044Y269748D02*
X55584Y271780D01*
X55584Y262636D01*
X53044Y262636D02*
X58124Y262636D01*
X47598Y325270D02*
X47598Y329334D01*
X47600Y329434D01*
X47606Y329533D01*
X47616Y329633D01*
X47629Y329731D01*
X47647Y329830D01*
X47668Y329927D01*
X47693Y330023D01*
X47722Y330119D01*
X47755Y330213D01*
X47791Y330306D01*
X47831Y330397D01*
X47875Y330487D01*
X47922Y330575D01*
X47972Y330661D01*
X48026Y330745D01*
X48083Y330827D01*
X48143Y330906D01*
X48207Y330984D01*
X48273Y331058D01*
X48342Y331130D01*
X48414Y331199D01*
X48488Y331265D01*
X48566Y331329D01*
X48645Y331389D01*
X48727Y331446D01*
X48811Y331500D01*
X48897Y331550D01*
X48985Y331597D01*
X49075Y331641D01*
X49166Y331681D01*
X49259Y331717D01*
X49353Y331750D01*
X49449Y331779D01*
X49545Y331804D01*
X49642Y331825D01*
X49741Y331843D01*
X49839Y331856D01*
X49939Y331866D01*
X50038Y331872D01*
X50138Y331874D01*
X50238Y331872D01*
X50337Y331866D01*
X50437Y331856D01*
X50535Y331843D01*
X50634Y331825D01*
X50731Y331804D01*
X50827Y331779D01*
X50923Y331750D01*
X51017Y331717D01*
X51110Y331681D01*
X51201Y331641D01*
X51291Y331597D01*
X51379Y331550D01*
X51465Y331500D01*
X51549Y331446D01*
X51631Y331389D01*
X51710Y331329D01*
X51788Y331265D01*
X51862Y331199D01*
X51934Y331130D01*
X52003Y331058D01*
X52069Y330984D01*
X52133Y330906D01*
X52193Y330827D01*
X52250Y330745D01*
X52304Y330661D01*
X52354Y330575D01*
X52401Y330487D01*
X52445Y330397D01*
X52485Y330306D01*
X52521Y330213D01*
X52554Y330119D01*
X52583Y330023D01*
X52608Y329927D01*
X52629Y329830D01*
X52647Y329731D01*
X52660Y329633D01*
X52670Y329533D01*
X52676Y329434D01*
X52678Y329334D01*
X52678Y325270D01*
X52676Y325170D01*
X52670Y325071D01*
X52660Y324971D01*
X52647Y324873D01*
X52629Y324774D01*
X52608Y324677D01*
X52583Y324581D01*
X52554Y324485D01*
X52521Y324391D01*
X52485Y324298D01*
X52445Y324207D01*
X52401Y324117D01*
X52354Y324029D01*
X52304Y323943D01*
X52250Y323859D01*
X52193Y323777D01*
X52133Y323698D01*
X52069Y323620D01*
X52003Y323546D01*
X51934Y323474D01*
X51862Y323405D01*
X51788Y323339D01*
X51710Y323275D01*
X51631Y323215D01*
X51549Y323158D01*
X51465Y323104D01*
X51379Y323054D01*
X51291Y323007D01*
X51201Y322963D01*
X51110Y322923D01*
X51017Y322887D01*
X50923Y322854D01*
X50827Y322825D01*
X50731Y322800D01*
X50634Y322779D01*
X50535Y322761D01*
X50437Y322748D01*
X50337Y322738D01*
X50238Y322732D01*
X50138Y322730D01*
X50038Y322732D01*
X49939Y322738D01*
X49839Y322748D01*
X49741Y322761D01*
X49642Y322779D01*
X49545Y322800D01*
X49449Y322825D01*
X49353Y322854D01*
X49259Y322887D01*
X49166Y322923D01*
X49075Y322963D01*
X48985Y323007D01*
X48897Y323054D01*
X48811Y323104D01*
X48727Y323158D01*
X48645Y323215D01*
X48566Y323275D01*
X48488Y323339D01*
X48414Y323405D01*
X48342Y323474D01*
X48273Y323546D01*
X48207Y323620D01*
X48143Y323698D01*
X48083Y323777D01*
X48026Y323859D01*
X47972Y323943D01*
X47922Y324029D01*
X47875Y324117D01*
X47831Y324207D01*
X47791Y324298D01*
X47755Y324391D01*
X47722Y324485D01*
X47693Y324581D01*
X47668Y324677D01*
X47647Y324774D01*
X47629Y324873D01*
X47616Y324971D01*
X47606Y325071D01*
X47600Y325170D01*
X47598Y325270D01*
X51662Y324762D02*
X53694Y322730D01*
X61526Y329588D02*
X61524Y329682D01*
X61518Y329777D01*
X61508Y329871D01*
X61495Y329964D01*
X61477Y330057D01*
X61456Y330149D01*
X61431Y330240D01*
X61402Y330330D01*
X61370Y330419D01*
X61333Y330506D01*
X61294Y330592D01*
X61250Y330676D01*
X61204Y330758D01*
X61154Y330838D01*
X61100Y330916D01*
X61044Y330992D01*
X60984Y331065D01*
X60922Y331136D01*
X60856Y331204D01*
X60788Y331270D01*
X60717Y331332D01*
X60644Y331392D01*
X60568Y331448D01*
X60490Y331502D01*
X60410Y331552D01*
X60328Y331598D01*
X60244Y331642D01*
X60158Y331681D01*
X60071Y331718D01*
X59982Y331750D01*
X59892Y331779D01*
X59801Y331804D01*
X59709Y331825D01*
X59616Y331843D01*
X59523Y331856D01*
X59429Y331866D01*
X59334Y331872D01*
X59240Y331874D01*
X59134Y331872D01*
X59029Y331866D01*
X58924Y331857D01*
X58819Y331844D01*
X58715Y331827D01*
X58612Y331806D01*
X58509Y331782D01*
X58407Y331753D01*
X58307Y331722D01*
X58207Y331686D01*
X58109Y331648D01*
X58013Y331605D01*
X57917Y331559D01*
X57824Y331510D01*
X57733Y331458D01*
X57643Y331402D01*
X57555Y331343D01*
X57470Y331281D01*
X57387Y331216D01*
X57306Y331148D01*
X57228Y331077D01*
X57153Y331003D01*
X57080Y330927D01*
X57010Y330848D01*
X56943Y330767D01*
X56878Y330683D01*
X56817Y330597D01*
X56759Y330509D01*
X56704Y330419D01*
X56653Y330327D01*
X56604Y330233D01*
X56559Y330137D01*
X56518Y330040D01*
X56480Y329942D01*
X56446Y329842D01*
X60764Y327810D02*
X60831Y327877D01*
X60896Y327946D01*
X60958Y328018D01*
X61017Y328091D01*
X61073Y328168D01*
X61127Y328246D01*
X61177Y328326D01*
X61224Y328408D01*
X61268Y328492D01*
X61308Y328578D01*
X61346Y328665D01*
X61380Y328753D01*
X61410Y328843D01*
X61437Y328933D01*
X61461Y329025D01*
X61481Y329118D01*
X61497Y329211D01*
X61510Y329305D01*
X61519Y329399D01*
X61524Y329493D01*
X61526Y329588D01*
X60764Y327810D02*
X56446Y322730D01*
X61526Y322730D01*
X139118Y308020D02*
X148262Y308020D01*
X139118Y308020D02*
X139118Y310560D01*
X139120Y310660D01*
X139126Y310759D01*
X139136Y310859D01*
X139149Y310957D01*
X139167Y311056D01*
X139188Y311153D01*
X139213Y311249D01*
X139242Y311345D01*
X139275Y311439D01*
X139311Y311532D01*
X139351Y311623D01*
X139395Y311713D01*
X139442Y311801D01*
X139492Y311887D01*
X139546Y311971D01*
X139603Y312053D01*
X139663Y312132D01*
X139727Y312210D01*
X139793Y312284D01*
X139862Y312356D01*
X139934Y312425D01*
X140008Y312491D01*
X140086Y312555D01*
X140165Y312615D01*
X140247Y312672D01*
X140331Y312726D01*
X140417Y312776D01*
X140505Y312823D01*
X140595Y312867D01*
X140686Y312907D01*
X140779Y312943D01*
X140873Y312976D01*
X140969Y313005D01*
X141065Y313030D01*
X141162Y313051D01*
X141261Y313069D01*
X141359Y313082D01*
X141459Y313092D01*
X141558Y313098D01*
X141658Y313100D01*
X141758Y313098D01*
X141857Y313092D01*
X141957Y313082D01*
X142055Y313069D01*
X142154Y313051D01*
X142251Y313030D01*
X142347Y313005D01*
X142443Y312976D01*
X142537Y312943D01*
X142630Y312907D01*
X142721Y312867D01*
X142811Y312823D01*
X142899Y312776D01*
X142985Y312726D01*
X143069Y312672D01*
X143151Y312615D01*
X143230Y312555D01*
X143308Y312491D01*
X143382Y312425D01*
X143454Y312356D01*
X143523Y312284D01*
X143589Y312210D01*
X143653Y312132D01*
X143713Y312053D01*
X143770Y311971D01*
X143824Y311887D01*
X143874Y311801D01*
X143921Y311713D01*
X143965Y311623D01*
X144005Y311532D01*
X144041Y311439D01*
X144074Y311345D01*
X144103Y311249D01*
X144128Y311153D01*
X144149Y311056D01*
X144167Y310957D01*
X144180Y310859D01*
X144190Y310759D01*
X144196Y310660D01*
X144198Y310560D01*
X144198Y308020D01*
X144198Y311068D02*
X148262Y313100D01*
X141150Y317098D02*
X139118Y319638D01*
X148262Y319638D01*
X148262Y317098D02*
X148262Y322178D01*
X143690Y326242D02*
X143510Y326244D01*
X143330Y326251D01*
X143151Y326261D01*
X142972Y326276D01*
X142793Y326296D01*
X142614Y326319D01*
X142437Y326347D01*
X142260Y326379D01*
X142083Y326415D01*
X141908Y326456D01*
X141734Y326500D01*
X141561Y326549D01*
X141389Y326602D01*
X141218Y326659D01*
X141049Y326720D01*
X140881Y326785D01*
X140715Y326854D01*
X140551Y326927D01*
X140388Y327004D01*
X140310Y327032D01*
X140233Y327065D01*
X140158Y327100D01*
X140084Y327139D01*
X140012Y327181D01*
X139943Y327226D01*
X139875Y327275D01*
X139809Y327326D01*
X139746Y327380D01*
X139685Y327437D01*
X139626Y327496D01*
X139571Y327558D01*
X139518Y327623D01*
X139468Y327689D01*
X139421Y327758D01*
X139377Y327829D01*
X139337Y327902D01*
X139300Y327976D01*
X139265Y328052D01*
X139235Y328130D01*
X139208Y328208D01*
X139184Y328288D01*
X139164Y328369D01*
X139147Y328451D01*
X139135Y328533D01*
X139125Y328616D01*
X139120Y328699D01*
X139118Y328782D01*
X139120Y328865D01*
X139125Y328948D01*
X139135Y329031D01*
X139147Y329113D01*
X139164Y329195D01*
X139184Y329276D01*
X139208Y329356D01*
X139235Y329434D01*
X139265Y329512D01*
X139300Y329588D01*
X139337Y329662D01*
X139377Y329735D01*
X139421Y329806D01*
X139468Y329875D01*
X139518Y329941D01*
X139571Y330006D01*
X139626Y330068D01*
X139685Y330127D01*
X139746Y330184D01*
X139809Y330238D01*
X139875Y330289D01*
X139943Y330338D01*
X140012Y330383D01*
X140084Y330425D01*
X140158Y330464D01*
X140233Y330499D01*
X140310Y330532D01*
X140388Y330560D01*
X140551Y330637D01*
X140715Y330710D01*
X140881Y330779D01*
X141049Y330844D01*
X141218Y330905D01*
X141389Y330962D01*
X141561Y331015D01*
X141734Y331064D01*
X141908Y331108D01*
X142083Y331149D01*
X142260Y331185D01*
X142437Y331217D01*
X142614Y331245D01*
X142793Y331268D01*
X142972Y331288D01*
X143151Y331303D01*
X143330Y331313D01*
X143510Y331320D01*
X143690Y331322D01*
X143690Y326242D02*
X143870Y326244D01*
X144050Y326251D01*
X144229Y326261D01*
X144408Y326276D01*
X144587Y326296D01*
X144766Y326319D01*
X144943Y326347D01*
X145120Y326379D01*
X145297Y326415D01*
X145472Y326456D01*
X145646Y326500D01*
X145819Y326549D01*
X145991Y326602D01*
X146162Y326659D01*
X146331Y326720D01*
X146499Y326785D01*
X146665Y326854D01*
X146829Y326927D01*
X146992Y327004D01*
X147070Y327032D01*
X147147Y327065D01*
X147222Y327100D01*
X147296Y327139D01*
X147368Y327181D01*
X147437Y327226D01*
X147505Y327275D01*
X147571Y327326D01*
X147634Y327380D01*
X147695Y327437D01*
X147754Y327496D01*
X147809Y327558D01*
X147862Y327623D01*
X147912Y327689D01*
X147959Y327758D01*
X148003Y327829D01*
X148043Y327902D01*
X148080Y327976D01*
X148115Y328052D01*
X148145Y328130D01*
X148172Y328208D01*
X148196Y328288D01*
X148216Y328369D01*
X148233Y328451D01*
X148245Y328533D01*
X148255Y328616D01*
X148260Y328699D01*
X148262Y328782D01*
X146992Y330560D02*
X146829Y330637D01*
X146665Y330710D01*
X146499Y330779D01*
X146331Y330844D01*
X146162Y330905D01*
X145991Y330962D01*
X145819Y331015D01*
X145646Y331064D01*
X145472Y331108D01*
X145297Y331149D01*
X145120Y331185D01*
X144943Y331217D01*
X144766Y331245D01*
X144587Y331268D01*
X144408Y331288D01*
X144229Y331303D01*
X144050Y331313D01*
X143870Y331320D01*
X143690Y331322D01*
X146992Y330560D02*
X147070Y330532D01*
X147147Y330499D01*
X147222Y330464D01*
X147296Y330425D01*
X147368Y330383D01*
X147437Y330338D01*
X147505Y330289D01*
X147571Y330238D01*
X147634Y330184D01*
X147695Y330127D01*
X147754Y330068D01*
X147809Y330006D01*
X147862Y329941D01*
X147912Y329875D01*
X147959Y329806D01*
X148003Y329735D01*
X148043Y329662D01*
X148080Y329588D01*
X148115Y329512D01*
X148145Y329434D01*
X148172Y329356D01*
X148196Y329276D01*
X148216Y329195D01*
X148233Y329113D01*
X148245Y329031D01*
X148255Y328948D01*
X148260Y328865D01*
X148262Y328782D01*
X146230Y326750D02*
X141150Y330814D01*
X187452Y442468D02*
X196596Y442468D01*
X187452Y442468D02*
X187452Y445008D01*
X187454Y445108D01*
X187460Y445207D01*
X187470Y445307D01*
X187483Y445405D01*
X187501Y445504D01*
X187522Y445601D01*
X187547Y445697D01*
X187576Y445793D01*
X187609Y445887D01*
X187645Y445980D01*
X187685Y446071D01*
X187729Y446161D01*
X187776Y446249D01*
X187826Y446335D01*
X187880Y446419D01*
X187937Y446501D01*
X187997Y446580D01*
X188061Y446658D01*
X188127Y446732D01*
X188196Y446804D01*
X188268Y446873D01*
X188342Y446939D01*
X188420Y447003D01*
X188499Y447063D01*
X188581Y447120D01*
X188665Y447174D01*
X188751Y447224D01*
X188839Y447271D01*
X188929Y447315D01*
X189020Y447355D01*
X189113Y447391D01*
X189207Y447424D01*
X189303Y447453D01*
X189399Y447478D01*
X189496Y447499D01*
X189595Y447517D01*
X189693Y447530D01*
X189793Y447540D01*
X189892Y447546D01*
X189992Y447548D01*
X190092Y447546D01*
X190191Y447540D01*
X190291Y447530D01*
X190389Y447517D01*
X190488Y447499D01*
X190585Y447478D01*
X190681Y447453D01*
X190777Y447424D01*
X190871Y447391D01*
X190964Y447355D01*
X191055Y447315D01*
X191145Y447271D01*
X191233Y447224D01*
X191319Y447174D01*
X191403Y447120D01*
X191485Y447063D01*
X191564Y447003D01*
X191642Y446939D01*
X191716Y446873D01*
X191788Y446804D01*
X191857Y446732D01*
X191923Y446658D01*
X191987Y446580D01*
X192047Y446501D01*
X192104Y446419D01*
X192158Y446335D01*
X192208Y446249D01*
X192255Y446161D01*
X192299Y446071D01*
X192339Y445980D01*
X192375Y445887D01*
X192408Y445793D01*
X192437Y445697D01*
X192462Y445601D01*
X192483Y445504D01*
X192501Y445405D01*
X192514Y445307D01*
X192524Y445207D01*
X192530Y445108D01*
X192532Y445008D01*
X192532Y442468D01*
X192532Y445516D02*
X196596Y447548D01*
X189484Y451546D02*
X187452Y454086D01*
X196596Y454086D01*
X196596Y451546D02*
X196596Y456626D01*
X196596Y467868D02*
X187452Y467868D01*
X187452Y470408D01*
X187454Y470508D01*
X187460Y470607D01*
X187470Y470707D01*
X187483Y470805D01*
X187501Y470904D01*
X187522Y471001D01*
X187547Y471097D01*
X187576Y471193D01*
X187609Y471287D01*
X187645Y471380D01*
X187685Y471471D01*
X187729Y471561D01*
X187776Y471649D01*
X187826Y471735D01*
X187880Y471819D01*
X187937Y471901D01*
X187997Y471980D01*
X188061Y472058D01*
X188127Y472132D01*
X188196Y472204D01*
X188268Y472273D01*
X188342Y472339D01*
X188420Y472403D01*
X188499Y472463D01*
X188581Y472520D01*
X188665Y472574D01*
X188751Y472624D01*
X188839Y472671D01*
X188929Y472715D01*
X189020Y472755D01*
X189113Y472791D01*
X189207Y472824D01*
X189303Y472853D01*
X189399Y472878D01*
X189496Y472899D01*
X189595Y472917D01*
X189693Y472930D01*
X189793Y472940D01*
X189892Y472946D01*
X189992Y472948D01*
X190092Y472946D01*
X190191Y472940D01*
X190291Y472930D01*
X190389Y472917D01*
X190488Y472899D01*
X190585Y472878D01*
X190681Y472853D01*
X190777Y472824D01*
X190871Y472791D01*
X190964Y472755D01*
X191055Y472715D01*
X191145Y472671D01*
X191233Y472624D01*
X191319Y472574D01*
X191403Y472520D01*
X191485Y472463D01*
X191564Y472403D01*
X191642Y472339D01*
X191716Y472273D01*
X191788Y472204D01*
X191857Y472132D01*
X191923Y472058D01*
X191987Y471980D01*
X192047Y471901D01*
X192104Y471819D01*
X192158Y471735D01*
X192208Y471649D01*
X192255Y471561D01*
X192299Y471471D01*
X192339Y471380D01*
X192375Y471287D01*
X192408Y471193D01*
X192437Y471097D01*
X192462Y471001D01*
X192483Y470904D01*
X192501Y470805D01*
X192514Y470707D01*
X192524Y470607D01*
X192530Y470508D01*
X192532Y470408D01*
X192532Y467868D01*
X192532Y470916D02*
X196596Y472948D01*
X189738Y482026D02*
X189644Y482024D01*
X189549Y482018D01*
X189455Y482008D01*
X189362Y481995D01*
X189269Y481977D01*
X189177Y481956D01*
X189086Y481931D01*
X188996Y481902D01*
X188907Y481870D01*
X188820Y481833D01*
X188734Y481794D01*
X188650Y481750D01*
X188568Y481704D01*
X188488Y481654D01*
X188410Y481600D01*
X188334Y481544D01*
X188261Y481484D01*
X188190Y481422D01*
X188122Y481356D01*
X188056Y481288D01*
X187994Y481217D01*
X187934Y481144D01*
X187878Y481068D01*
X187824Y480990D01*
X187774Y480910D01*
X187728Y480828D01*
X187684Y480744D01*
X187645Y480658D01*
X187608Y480571D01*
X187576Y480482D01*
X187547Y480392D01*
X187522Y480301D01*
X187501Y480209D01*
X187483Y480116D01*
X187470Y480023D01*
X187460Y479929D01*
X187454Y479834D01*
X187452Y479740D01*
X187454Y479634D01*
X187460Y479529D01*
X187469Y479424D01*
X187482Y479319D01*
X187499Y479215D01*
X187520Y479112D01*
X187544Y479009D01*
X187573Y478907D01*
X187604Y478807D01*
X187640Y478707D01*
X187678Y478609D01*
X187721Y478513D01*
X187767Y478417D01*
X187816Y478324D01*
X187868Y478233D01*
X187924Y478143D01*
X187983Y478055D01*
X188045Y477970D01*
X188110Y477887D01*
X188178Y477806D01*
X188249Y477728D01*
X188323Y477653D01*
X188399Y477580D01*
X188478Y477510D01*
X188559Y477443D01*
X188643Y477378D01*
X188729Y477317D01*
X188817Y477259D01*
X188907Y477204D01*
X188999Y477153D01*
X189093Y477104D01*
X189189Y477059D01*
X189286Y477018D01*
X189384Y476980D01*
X189484Y476946D01*
X191516Y481263D02*
X191449Y481330D01*
X191380Y481395D01*
X191308Y481457D01*
X191235Y481516D01*
X191158Y481572D01*
X191080Y481626D01*
X191000Y481676D01*
X190918Y481723D01*
X190834Y481767D01*
X190748Y481807D01*
X190661Y481845D01*
X190573Y481879D01*
X190483Y481909D01*
X190393Y481936D01*
X190301Y481960D01*
X190208Y481980D01*
X190115Y481996D01*
X190021Y482009D01*
X189927Y482018D01*
X189833Y482023D01*
X189738Y482025D01*
X191516Y481264D02*
X196596Y476946D01*
X196596Y482026D01*
X12192Y439928D02*
X3048Y439928D01*
X3048Y442468D01*
X3050Y442568D01*
X3056Y442667D01*
X3066Y442767D01*
X3079Y442865D01*
X3097Y442964D01*
X3118Y443061D01*
X3143Y443157D01*
X3172Y443253D01*
X3205Y443347D01*
X3241Y443440D01*
X3281Y443531D01*
X3325Y443621D01*
X3372Y443709D01*
X3422Y443795D01*
X3476Y443879D01*
X3533Y443961D01*
X3593Y444040D01*
X3657Y444118D01*
X3723Y444192D01*
X3792Y444264D01*
X3864Y444333D01*
X3938Y444399D01*
X4016Y444463D01*
X4095Y444523D01*
X4177Y444580D01*
X4261Y444634D01*
X4347Y444684D01*
X4435Y444731D01*
X4525Y444775D01*
X4616Y444815D01*
X4709Y444851D01*
X4803Y444884D01*
X4899Y444913D01*
X4995Y444938D01*
X5092Y444959D01*
X5191Y444977D01*
X5289Y444990D01*
X5389Y445000D01*
X5488Y445006D01*
X5588Y445008D01*
X5688Y445006D01*
X5787Y445000D01*
X5887Y444990D01*
X5985Y444977D01*
X6084Y444959D01*
X6181Y444938D01*
X6277Y444913D01*
X6373Y444884D01*
X6467Y444851D01*
X6560Y444815D01*
X6651Y444775D01*
X6741Y444731D01*
X6829Y444684D01*
X6915Y444634D01*
X6999Y444580D01*
X7081Y444523D01*
X7160Y444463D01*
X7238Y444399D01*
X7312Y444333D01*
X7384Y444264D01*
X7453Y444192D01*
X7519Y444118D01*
X7583Y444040D01*
X7643Y443961D01*
X7700Y443879D01*
X7754Y443795D01*
X7804Y443709D01*
X7851Y443621D01*
X7895Y443531D01*
X7935Y443440D01*
X7971Y443347D01*
X8004Y443253D01*
X8033Y443157D01*
X8058Y443061D01*
X8079Y442964D01*
X8097Y442865D01*
X8110Y442767D01*
X8120Y442667D01*
X8126Y442568D01*
X8128Y442468D01*
X8128Y439928D01*
X8128Y442976D02*
X12192Y445008D01*
X12192Y449006D02*
X12192Y451546D01*
X12190Y451646D01*
X12184Y451745D01*
X12174Y451845D01*
X12161Y451943D01*
X12143Y452042D01*
X12122Y452139D01*
X12097Y452235D01*
X12068Y452331D01*
X12035Y452425D01*
X11999Y452518D01*
X11959Y452609D01*
X11915Y452699D01*
X11868Y452787D01*
X11818Y452873D01*
X11764Y452957D01*
X11707Y453039D01*
X11647Y453118D01*
X11583Y453196D01*
X11517Y453270D01*
X11448Y453342D01*
X11376Y453411D01*
X11302Y453477D01*
X11224Y453541D01*
X11145Y453601D01*
X11063Y453658D01*
X10979Y453712D01*
X10893Y453762D01*
X10805Y453809D01*
X10715Y453853D01*
X10624Y453893D01*
X10531Y453929D01*
X10437Y453962D01*
X10341Y453991D01*
X10245Y454016D01*
X10148Y454037D01*
X10049Y454055D01*
X9951Y454068D01*
X9851Y454078D01*
X9752Y454084D01*
X9652Y454086D01*
X9552Y454084D01*
X9453Y454078D01*
X9353Y454068D01*
X9255Y454055D01*
X9156Y454037D01*
X9059Y454016D01*
X8963Y453991D01*
X8867Y453962D01*
X8773Y453929D01*
X8680Y453893D01*
X8589Y453853D01*
X8499Y453809D01*
X8411Y453762D01*
X8325Y453712D01*
X8241Y453658D01*
X8159Y453601D01*
X8080Y453541D01*
X8002Y453477D01*
X7928Y453411D01*
X7856Y453342D01*
X7787Y453270D01*
X7721Y453196D01*
X7657Y453118D01*
X7597Y453039D01*
X7540Y452957D01*
X7486Y452873D01*
X7436Y452787D01*
X7389Y452699D01*
X7345Y452609D01*
X7305Y452518D01*
X7269Y452425D01*
X7236Y452331D01*
X7207Y452235D01*
X7182Y452139D01*
X7161Y452042D01*
X7143Y451943D01*
X7130Y451845D01*
X7120Y451745D01*
X7114Y451646D01*
X7112Y451546D01*
X3048Y452054D02*
X3048Y449006D01*
X3048Y452054D02*
X3050Y452143D01*
X3056Y452231D01*
X3065Y452319D01*
X3079Y452407D01*
X3096Y452494D01*
X3117Y452580D01*
X3142Y452665D01*
X3171Y452749D01*
X3203Y452832D01*
X3238Y452913D01*
X3278Y452992D01*
X3320Y453070D01*
X3366Y453146D01*
X3415Y453220D01*
X3468Y453291D01*
X3523Y453360D01*
X3582Y453427D01*
X3643Y453491D01*
X3707Y453552D01*
X3774Y453611D01*
X3843Y453666D01*
X3914Y453719D01*
X3988Y453768D01*
X4064Y453814D01*
X4142Y453856D01*
X4221Y453896D01*
X4302Y453931D01*
X4385Y453963D01*
X4469Y453992D01*
X4554Y454017D01*
X4640Y454038D01*
X4727Y454055D01*
X4815Y454069D01*
X4903Y454078D01*
X4991Y454084D01*
X5080Y454086D01*
X5169Y454084D01*
X5257Y454078D01*
X5345Y454069D01*
X5433Y454055D01*
X5520Y454038D01*
X5606Y454017D01*
X5691Y453992D01*
X5775Y453963D01*
X5858Y453931D01*
X5939Y453896D01*
X6018Y453856D01*
X6096Y453814D01*
X6172Y453768D01*
X6246Y453719D01*
X6317Y453666D01*
X6386Y453611D01*
X6453Y453552D01*
X6517Y453491D01*
X6578Y453427D01*
X6637Y453360D01*
X6692Y453291D01*
X6745Y453220D01*
X6794Y453146D01*
X6840Y453070D01*
X6882Y452992D01*
X6922Y452913D01*
X6957Y452832D01*
X6989Y452749D01*
X7018Y452665D01*
X7043Y452580D01*
X7064Y452494D01*
X7081Y452407D01*
X7095Y452319D01*
X7104Y452231D01*
X7110Y452143D01*
X7112Y452054D01*
X7112Y450022D01*
X3048Y467868D02*
X12192Y467868D01*
X3048Y467868D02*
X3048Y470408D01*
X3050Y470508D01*
X3056Y470607D01*
X3066Y470707D01*
X3079Y470805D01*
X3097Y470904D01*
X3118Y471001D01*
X3143Y471097D01*
X3172Y471193D01*
X3205Y471287D01*
X3241Y471380D01*
X3281Y471471D01*
X3325Y471561D01*
X3372Y471649D01*
X3422Y471735D01*
X3476Y471819D01*
X3533Y471901D01*
X3593Y471980D01*
X3657Y472058D01*
X3723Y472132D01*
X3792Y472204D01*
X3864Y472273D01*
X3938Y472339D01*
X4016Y472403D01*
X4095Y472463D01*
X4177Y472520D01*
X4261Y472574D01*
X4347Y472624D01*
X4435Y472671D01*
X4525Y472715D01*
X4616Y472755D01*
X4709Y472791D01*
X4803Y472824D01*
X4899Y472853D01*
X4995Y472878D01*
X5092Y472899D01*
X5191Y472917D01*
X5289Y472930D01*
X5389Y472940D01*
X5488Y472946D01*
X5588Y472948D01*
X5688Y472946D01*
X5787Y472940D01*
X5887Y472930D01*
X5985Y472917D01*
X6084Y472899D01*
X6181Y472878D01*
X6277Y472853D01*
X6373Y472824D01*
X6467Y472791D01*
X6560Y472755D01*
X6651Y472715D01*
X6741Y472671D01*
X6829Y472624D01*
X6915Y472574D01*
X6999Y472520D01*
X7081Y472463D01*
X7160Y472403D01*
X7238Y472339D01*
X7312Y472273D01*
X7384Y472204D01*
X7453Y472132D01*
X7519Y472058D01*
X7583Y471980D01*
X7643Y471901D01*
X7700Y471819D01*
X7754Y471735D01*
X7804Y471649D01*
X7851Y471561D01*
X7895Y471471D01*
X7935Y471380D01*
X7971Y471287D01*
X8004Y471193D01*
X8033Y471097D01*
X8058Y471001D01*
X8079Y470904D01*
X8097Y470805D01*
X8110Y470707D01*
X8120Y470607D01*
X8126Y470508D01*
X8128Y470408D01*
X8128Y467868D01*
X8128Y470916D02*
X12192Y472948D01*
X10160Y476946D02*
X3048Y478978D01*
X10160Y476946D02*
X10160Y482026D01*
X8128Y480502D02*
X12192Y480502D01*
X4070Y354276D02*
X4070Y345132D01*
X4070Y354276D02*
X6610Y354276D01*
X6710Y354274D01*
X6809Y354268D01*
X6909Y354258D01*
X7007Y354245D01*
X7106Y354227D01*
X7203Y354206D01*
X7299Y354181D01*
X7395Y354152D01*
X7489Y354119D01*
X7582Y354083D01*
X7673Y354043D01*
X7763Y353999D01*
X7851Y353952D01*
X7937Y353902D01*
X8021Y353848D01*
X8103Y353791D01*
X8182Y353731D01*
X8260Y353667D01*
X8334Y353601D01*
X8406Y353532D01*
X8475Y353460D01*
X8541Y353386D01*
X8605Y353308D01*
X8665Y353229D01*
X8722Y353147D01*
X8776Y353063D01*
X8826Y352977D01*
X8873Y352889D01*
X8917Y352799D01*
X8957Y352708D01*
X8993Y352615D01*
X9026Y352521D01*
X9055Y352425D01*
X9080Y352329D01*
X9101Y352232D01*
X9119Y352133D01*
X9132Y352035D01*
X9142Y351935D01*
X9148Y351836D01*
X9150Y351736D01*
X9148Y351636D01*
X9142Y351537D01*
X9132Y351437D01*
X9119Y351339D01*
X9101Y351240D01*
X9080Y351143D01*
X9055Y351047D01*
X9026Y350951D01*
X8993Y350857D01*
X8957Y350764D01*
X8917Y350673D01*
X8873Y350583D01*
X8826Y350495D01*
X8776Y350409D01*
X8722Y350325D01*
X8665Y350243D01*
X8605Y350164D01*
X8541Y350086D01*
X8475Y350012D01*
X8406Y349940D01*
X8334Y349871D01*
X8260Y349805D01*
X8182Y349741D01*
X8103Y349681D01*
X8021Y349624D01*
X7937Y349570D01*
X7851Y349520D01*
X7763Y349473D01*
X7673Y349429D01*
X7582Y349389D01*
X7489Y349353D01*
X7395Y349320D01*
X7299Y349291D01*
X7203Y349266D01*
X7106Y349245D01*
X7007Y349227D01*
X6909Y349214D01*
X6809Y349204D01*
X6710Y349198D01*
X6610Y349196D01*
X4070Y349196D01*
X7118Y349196D02*
X9150Y345132D01*
X13148Y345132D02*
X16196Y345132D01*
X16285Y345134D01*
X16373Y345140D01*
X16461Y345149D01*
X16549Y345163D01*
X16636Y345180D01*
X16722Y345201D01*
X16807Y345226D01*
X16891Y345255D01*
X16974Y345287D01*
X17055Y345322D01*
X17134Y345362D01*
X17212Y345404D01*
X17288Y345450D01*
X17362Y345499D01*
X17433Y345552D01*
X17502Y345607D01*
X17569Y345666D01*
X17633Y345727D01*
X17694Y345791D01*
X17753Y345858D01*
X17808Y345927D01*
X17861Y345998D01*
X17910Y346072D01*
X17956Y346148D01*
X17998Y346226D01*
X18038Y346305D01*
X18073Y346386D01*
X18105Y346469D01*
X18134Y346553D01*
X18159Y346638D01*
X18180Y346724D01*
X18197Y346811D01*
X18211Y346899D01*
X18220Y346987D01*
X18226Y347075D01*
X18228Y347164D01*
X18228Y348180D01*
X18226Y348269D01*
X18220Y348357D01*
X18211Y348445D01*
X18197Y348533D01*
X18180Y348620D01*
X18159Y348706D01*
X18134Y348791D01*
X18105Y348875D01*
X18073Y348958D01*
X18038Y349039D01*
X17998Y349118D01*
X17956Y349196D01*
X17910Y349272D01*
X17861Y349346D01*
X17808Y349417D01*
X17753Y349486D01*
X17694Y349553D01*
X17633Y349617D01*
X17569Y349678D01*
X17502Y349737D01*
X17433Y349792D01*
X17362Y349845D01*
X17288Y349894D01*
X17212Y349940D01*
X17134Y349982D01*
X17055Y350022D01*
X16974Y350057D01*
X16891Y350089D01*
X16807Y350118D01*
X16722Y350143D01*
X16636Y350164D01*
X16549Y350181D01*
X16461Y350195D01*
X16373Y350204D01*
X16285Y350210D01*
X16196Y350212D01*
X13148Y350212D01*
X13148Y354276D01*
X18228Y354276D01*
X19828Y152406D02*
X10684Y152406D01*
X10684Y154946D01*
X10686Y155046D01*
X10692Y155145D01*
X10702Y155245D01*
X10715Y155343D01*
X10733Y155442D01*
X10754Y155539D01*
X10779Y155635D01*
X10808Y155731D01*
X10841Y155825D01*
X10877Y155918D01*
X10917Y156009D01*
X10961Y156099D01*
X11008Y156187D01*
X11058Y156273D01*
X11112Y156357D01*
X11169Y156439D01*
X11229Y156518D01*
X11293Y156596D01*
X11359Y156670D01*
X11428Y156742D01*
X11500Y156811D01*
X11574Y156877D01*
X11652Y156941D01*
X11731Y157001D01*
X11813Y157058D01*
X11897Y157112D01*
X11983Y157162D01*
X12071Y157209D01*
X12161Y157253D01*
X12252Y157293D01*
X12345Y157329D01*
X12439Y157362D01*
X12535Y157391D01*
X12631Y157416D01*
X12728Y157437D01*
X12827Y157455D01*
X12925Y157468D01*
X13025Y157478D01*
X13124Y157484D01*
X13224Y157486D01*
X13324Y157484D01*
X13423Y157478D01*
X13523Y157468D01*
X13621Y157455D01*
X13720Y157437D01*
X13817Y157416D01*
X13913Y157391D01*
X14009Y157362D01*
X14103Y157329D01*
X14196Y157293D01*
X14287Y157253D01*
X14377Y157209D01*
X14465Y157162D01*
X14551Y157112D01*
X14635Y157058D01*
X14717Y157001D01*
X14796Y156941D01*
X14874Y156877D01*
X14948Y156811D01*
X15020Y156742D01*
X15089Y156670D01*
X15155Y156596D01*
X15219Y156518D01*
X15279Y156439D01*
X15336Y156357D01*
X15390Y156273D01*
X15440Y156187D01*
X15487Y156099D01*
X15531Y156009D01*
X15571Y155918D01*
X15607Y155825D01*
X15640Y155731D01*
X15669Y155635D01*
X15694Y155539D01*
X15715Y155442D01*
X15733Y155343D01*
X15746Y155245D01*
X15756Y155145D01*
X15762Y155046D01*
X15764Y154946D01*
X15764Y152406D01*
X15764Y155454D02*
X19828Y157486D01*
X14748Y161484D02*
X14748Y164532D01*
X14750Y164621D01*
X14756Y164709D01*
X14765Y164797D01*
X14779Y164885D01*
X14796Y164972D01*
X14817Y165058D01*
X14842Y165143D01*
X14871Y165227D01*
X14903Y165310D01*
X14938Y165391D01*
X14978Y165470D01*
X15020Y165548D01*
X15066Y165624D01*
X15115Y165698D01*
X15168Y165769D01*
X15223Y165838D01*
X15282Y165905D01*
X15343Y165969D01*
X15407Y166030D01*
X15474Y166089D01*
X15543Y166144D01*
X15614Y166197D01*
X15688Y166246D01*
X15764Y166292D01*
X15842Y166334D01*
X15921Y166374D01*
X16002Y166409D01*
X16085Y166441D01*
X16169Y166470D01*
X16254Y166495D01*
X16340Y166516D01*
X16427Y166533D01*
X16515Y166547D01*
X16603Y166556D01*
X16691Y166562D01*
X16780Y166564D01*
X17288Y166564D01*
X17388Y166562D01*
X17487Y166556D01*
X17587Y166546D01*
X17685Y166533D01*
X17784Y166515D01*
X17881Y166494D01*
X17977Y166469D01*
X18073Y166440D01*
X18167Y166407D01*
X18260Y166371D01*
X18351Y166331D01*
X18441Y166287D01*
X18529Y166240D01*
X18615Y166190D01*
X18699Y166136D01*
X18781Y166079D01*
X18860Y166019D01*
X18938Y165955D01*
X19012Y165889D01*
X19084Y165820D01*
X19153Y165748D01*
X19219Y165674D01*
X19283Y165596D01*
X19343Y165517D01*
X19400Y165435D01*
X19454Y165351D01*
X19504Y165265D01*
X19551Y165177D01*
X19595Y165087D01*
X19635Y164996D01*
X19671Y164903D01*
X19704Y164809D01*
X19733Y164713D01*
X19758Y164617D01*
X19779Y164520D01*
X19797Y164421D01*
X19810Y164323D01*
X19820Y164223D01*
X19826Y164124D01*
X19828Y164024D01*
X19826Y163924D01*
X19820Y163825D01*
X19810Y163725D01*
X19797Y163627D01*
X19779Y163528D01*
X19758Y163431D01*
X19733Y163335D01*
X19704Y163239D01*
X19671Y163145D01*
X19635Y163052D01*
X19595Y162961D01*
X19551Y162871D01*
X19504Y162783D01*
X19454Y162697D01*
X19400Y162613D01*
X19343Y162531D01*
X19283Y162452D01*
X19219Y162374D01*
X19153Y162300D01*
X19084Y162228D01*
X19012Y162159D01*
X18938Y162093D01*
X18860Y162029D01*
X18781Y161969D01*
X18699Y161912D01*
X18615Y161858D01*
X18529Y161808D01*
X18441Y161761D01*
X18351Y161717D01*
X18260Y161677D01*
X18167Y161641D01*
X18073Y161608D01*
X17977Y161579D01*
X17881Y161554D01*
X17784Y161533D01*
X17685Y161515D01*
X17587Y161502D01*
X17487Y161492D01*
X17388Y161486D01*
X17288Y161484D01*
X14748Y161484D01*
X14623Y161486D01*
X14498Y161492D01*
X14373Y161501D01*
X14249Y161515D01*
X14125Y161532D01*
X14001Y161553D01*
X13879Y161578D01*
X13757Y161607D01*
X13636Y161639D01*
X13516Y161675D01*
X13397Y161715D01*
X13280Y161758D01*
X13164Y161805D01*
X13049Y161856D01*
X12937Y161910D01*
X12825Y161968D01*
X12716Y162028D01*
X12609Y162093D01*
X12503Y162160D01*
X12400Y162231D01*
X12299Y162305D01*
X12200Y162382D01*
X12104Y162462D01*
X12010Y162545D01*
X11919Y162630D01*
X11830Y162719D01*
X11745Y162810D01*
X11662Y162904D01*
X11582Y163000D01*
X11505Y163099D01*
X11431Y163200D01*
X11360Y163303D01*
X11293Y163409D01*
X11228Y163516D01*
X11168Y163625D01*
X11110Y163737D01*
X11056Y163849D01*
X11005Y163964D01*
X10958Y164080D01*
X10915Y164197D01*
X10875Y164316D01*
X10839Y164436D01*
X10807Y164557D01*
X10778Y164679D01*
X10753Y164801D01*
X10732Y164925D01*
X10715Y165049D01*
X10701Y165173D01*
X10692Y165298D01*
X10686Y165423D01*
X10684Y165548D01*
X31728Y152406D02*
X40872Y152406D01*
X31728Y152406D02*
X31728Y154946D01*
X31730Y155046D01*
X31736Y155145D01*
X31746Y155245D01*
X31759Y155343D01*
X31777Y155442D01*
X31798Y155539D01*
X31823Y155635D01*
X31852Y155731D01*
X31885Y155825D01*
X31921Y155918D01*
X31961Y156009D01*
X32005Y156099D01*
X32052Y156187D01*
X32102Y156273D01*
X32156Y156357D01*
X32213Y156439D01*
X32273Y156518D01*
X32337Y156596D01*
X32403Y156670D01*
X32472Y156742D01*
X32544Y156811D01*
X32618Y156877D01*
X32696Y156941D01*
X32775Y157001D01*
X32857Y157058D01*
X32941Y157112D01*
X33027Y157162D01*
X33115Y157209D01*
X33205Y157253D01*
X33296Y157293D01*
X33389Y157329D01*
X33483Y157362D01*
X33579Y157391D01*
X33675Y157416D01*
X33772Y157437D01*
X33871Y157455D01*
X33969Y157468D01*
X34069Y157478D01*
X34168Y157484D01*
X34268Y157486D01*
X34368Y157484D01*
X34467Y157478D01*
X34567Y157468D01*
X34665Y157455D01*
X34764Y157437D01*
X34861Y157416D01*
X34957Y157391D01*
X35053Y157362D01*
X35147Y157329D01*
X35240Y157293D01*
X35331Y157253D01*
X35421Y157209D01*
X35509Y157162D01*
X35595Y157112D01*
X35679Y157058D01*
X35761Y157001D01*
X35840Y156941D01*
X35918Y156877D01*
X35992Y156811D01*
X36064Y156742D01*
X36133Y156670D01*
X36199Y156596D01*
X36263Y156518D01*
X36323Y156439D01*
X36380Y156357D01*
X36434Y156273D01*
X36484Y156187D01*
X36531Y156099D01*
X36575Y156009D01*
X36615Y155918D01*
X36651Y155825D01*
X36684Y155731D01*
X36713Y155635D01*
X36738Y155539D01*
X36759Y155442D01*
X36777Y155343D01*
X36790Y155245D01*
X36800Y155145D01*
X36806Y155046D01*
X36808Y154946D01*
X36808Y152406D01*
X36808Y155454D02*
X40872Y157486D01*
X32744Y161484D02*
X31728Y161484D01*
X31728Y166564D01*
X40872Y164024D01*
D13*
X63512Y254194D03*
D10*
X70184Y254774D02*
X70184Y263918D01*
X74248Y263918D01*
X74248Y259854D02*
X70184Y259854D01*
X77276Y254774D02*
X80324Y263918D01*
X83372Y254774D01*
X82610Y257060D02*
X78038Y257060D01*
X87232Y257314D02*
X87232Y263918D01*
X87232Y257314D02*
X87234Y257214D01*
X87240Y257115D01*
X87250Y257015D01*
X87263Y256917D01*
X87281Y256818D01*
X87302Y256721D01*
X87327Y256625D01*
X87356Y256529D01*
X87389Y256435D01*
X87425Y256342D01*
X87465Y256251D01*
X87509Y256161D01*
X87556Y256073D01*
X87606Y255987D01*
X87660Y255903D01*
X87717Y255821D01*
X87777Y255742D01*
X87841Y255664D01*
X87907Y255590D01*
X87976Y255518D01*
X88048Y255449D01*
X88122Y255383D01*
X88200Y255319D01*
X88279Y255259D01*
X88361Y255202D01*
X88445Y255148D01*
X88531Y255098D01*
X88619Y255051D01*
X88709Y255007D01*
X88800Y254967D01*
X88893Y254931D01*
X88987Y254898D01*
X89083Y254869D01*
X89179Y254844D01*
X89276Y254823D01*
X89375Y254805D01*
X89473Y254792D01*
X89573Y254782D01*
X89672Y254776D01*
X89772Y254774D01*
X89872Y254776D01*
X89971Y254782D01*
X90071Y254792D01*
X90169Y254805D01*
X90268Y254823D01*
X90365Y254844D01*
X90461Y254869D01*
X90557Y254898D01*
X90651Y254931D01*
X90744Y254967D01*
X90835Y255007D01*
X90925Y255051D01*
X91013Y255098D01*
X91099Y255148D01*
X91183Y255202D01*
X91265Y255259D01*
X91344Y255319D01*
X91422Y255383D01*
X91496Y255449D01*
X91568Y255518D01*
X91637Y255590D01*
X91703Y255664D01*
X91767Y255742D01*
X91827Y255821D01*
X91884Y255903D01*
X91938Y255987D01*
X91988Y256073D01*
X92035Y256161D01*
X92079Y256251D01*
X92119Y256342D01*
X92155Y256435D01*
X92188Y256529D01*
X92217Y256625D01*
X92242Y256721D01*
X92263Y256818D01*
X92281Y256917D01*
X92294Y257015D01*
X92304Y257115D01*
X92310Y257214D01*
X92312Y257314D01*
X92312Y263918D01*
X97006Y263918D02*
X97006Y254774D01*
X101070Y254774D01*
X106536Y254774D02*
X106536Y263918D01*
X103996Y263918D02*
X109076Y263918D01*
X73902Y275868D02*
X73902Y285012D01*
X76442Y285012D01*
X76542Y285010D01*
X76641Y285004D01*
X76741Y284994D01*
X76839Y284981D01*
X76938Y284963D01*
X77035Y284942D01*
X77131Y284917D01*
X77227Y284888D01*
X77321Y284855D01*
X77414Y284819D01*
X77505Y284779D01*
X77595Y284735D01*
X77683Y284688D01*
X77769Y284638D01*
X77853Y284584D01*
X77935Y284527D01*
X78014Y284467D01*
X78092Y284403D01*
X78166Y284337D01*
X78238Y284268D01*
X78307Y284196D01*
X78373Y284122D01*
X78437Y284044D01*
X78497Y283965D01*
X78554Y283883D01*
X78608Y283799D01*
X78658Y283713D01*
X78705Y283625D01*
X78749Y283535D01*
X78789Y283444D01*
X78825Y283351D01*
X78858Y283257D01*
X78887Y283161D01*
X78912Y283065D01*
X78933Y282968D01*
X78951Y282869D01*
X78964Y282771D01*
X78974Y282671D01*
X78980Y282572D01*
X78982Y282472D01*
X78980Y282372D01*
X78974Y282273D01*
X78964Y282173D01*
X78951Y282075D01*
X78933Y281976D01*
X78912Y281879D01*
X78887Y281783D01*
X78858Y281687D01*
X78825Y281593D01*
X78789Y281500D01*
X78749Y281409D01*
X78705Y281319D01*
X78658Y281231D01*
X78608Y281145D01*
X78554Y281061D01*
X78497Y280979D01*
X78437Y280900D01*
X78373Y280822D01*
X78307Y280748D01*
X78238Y280676D01*
X78166Y280607D01*
X78092Y280541D01*
X78014Y280477D01*
X77935Y280417D01*
X77853Y280360D01*
X77769Y280306D01*
X77683Y280256D01*
X77595Y280209D01*
X77505Y280165D01*
X77414Y280125D01*
X77321Y280089D01*
X77227Y280056D01*
X77131Y280027D01*
X77035Y280002D01*
X76938Y279981D01*
X76839Y279963D01*
X76741Y279950D01*
X76641Y279940D01*
X76542Y279934D01*
X76442Y279932D01*
X73902Y279932D01*
X76950Y279932D02*
X78982Y275868D01*
X82980Y278408D02*
X82982Y278508D01*
X82988Y278607D01*
X82998Y278707D01*
X83011Y278805D01*
X83029Y278904D01*
X83050Y279001D01*
X83075Y279097D01*
X83104Y279193D01*
X83137Y279287D01*
X83173Y279380D01*
X83213Y279471D01*
X83257Y279561D01*
X83304Y279649D01*
X83354Y279735D01*
X83408Y279819D01*
X83465Y279901D01*
X83525Y279980D01*
X83589Y280058D01*
X83655Y280132D01*
X83724Y280204D01*
X83796Y280273D01*
X83870Y280339D01*
X83948Y280403D01*
X84027Y280463D01*
X84109Y280520D01*
X84193Y280574D01*
X84279Y280624D01*
X84367Y280671D01*
X84457Y280715D01*
X84548Y280755D01*
X84641Y280791D01*
X84735Y280824D01*
X84831Y280853D01*
X84927Y280878D01*
X85024Y280899D01*
X85123Y280917D01*
X85221Y280930D01*
X85321Y280940D01*
X85420Y280946D01*
X85520Y280948D01*
X85620Y280946D01*
X85719Y280940D01*
X85819Y280930D01*
X85917Y280917D01*
X86016Y280899D01*
X86113Y280878D01*
X86209Y280853D01*
X86305Y280824D01*
X86399Y280791D01*
X86492Y280755D01*
X86583Y280715D01*
X86673Y280671D01*
X86761Y280624D01*
X86847Y280574D01*
X86931Y280520D01*
X87013Y280463D01*
X87092Y280403D01*
X87170Y280339D01*
X87244Y280273D01*
X87316Y280204D01*
X87385Y280132D01*
X87451Y280058D01*
X87515Y279980D01*
X87575Y279901D01*
X87632Y279819D01*
X87686Y279735D01*
X87736Y279649D01*
X87783Y279561D01*
X87827Y279471D01*
X87867Y279380D01*
X87903Y279287D01*
X87936Y279193D01*
X87965Y279097D01*
X87990Y279001D01*
X88011Y278904D01*
X88029Y278805D01*
X88042Y278707D01*
X88052Y278607D01*
X88058Y278508D01*
X88060Y278408D01*
X88058Y278308D01*
X88052Y278209D01*
X88042Y278109D01*
X88029Y278011D01*
X88011Y277912D01*
X87990Y277815D01*
X87965Y277719D01*
X87936Y277623D01*
X87903Y277529D01*
X87867Y277436D01*
X87827Y277345D01*
X87783Y277255D01*
X87736Y277167D01*
X87686Y277081D01*
X87632Y276997D01*
X87575Y276915D01*
X87515Y276836D01*
X87451Y276758D01*
X87385Y276684D01*
X87316Y276612D01*
X87244Y276543D01*
X87170Y276477D01*
X87092Y276413D01*
X87013Y276353D01*
X86931Y276296D01*
X86847Y276242D01*
X86761Y276192D01*
X86673Y276145D01*
X86583Y276101D01*
X86492Y276061D01*
X86399Y276025D01*
X86305Y275992D01*
X86209Y275963D01*
X86113Y275938D01*
X86016Y275917D01*
X85917Y275899D01*
X85819Y275886D01*
X85719Y275876D01*
X85620Y275870D01*
X85520Y275868D01*
X85420Y275870D01*
X85321Y275876D01*
X85221Y275886D01*
X85123Y275899D01*
X85024Y275917D01*
X84927Y275938D01*
X84831Y275963D01*
X84735Y275992D01*
X84641Y276025D01*
X84548Y276061D01*
X84457Y276101D01*
X84367Y276145D01*
X84279Y276192D01*
X84193Y276242D01*
X84109Y276296D01*
X84027Y276353D01*
X83948Y276413D01*
X83870Y276477D01*
X83796Y276543D01*
X83724Y276612D01*
X83655Y276684D01*
X83589Y276758D01*
X83525Y276836D01*
X83465Y276915D01*
X83408Y276997D01*
X83354Y277081D01*
X83304Y277167D01*
X83257Y277255D01*
X83213Y277345D01*
X83173Y277436D01*
X83137Y277529D01*
X83104Y277623D01*
X83075Y277719D01*
X83050Y277815D01*
X83029Y277912D01*
X83011Y278011D01*
X82998Y278109D01*
X82988Y278209D01*
X82982Y278308D01*
X82980Y278408D01*
X83488Y282980D02*
X83490Y283069D01*
X83496Y283157D01*
X83505Y283245D01*
X83519Y283333D01*
X83536Y283420D01*
X83557Y283506D01*
X83582Y283591D01*
X83611Y283675D01*
X83643Y283758D01*
X83678Y283839D01*
X83718Y283918D01*
X83760Y283996D01*
X83806Y284072D01*
X83855Y284146D01*
X83908Y284217D01*
X83963Y284286D01*
X84022Y284353D01*
X84083Y284417D01*
X84147Y284478D01*
X84214Y284537D01*
X84283Y284592D01*
X84354Y284645D01*
X84428Y284694D01*
X84504Y284740D01*
X84582Y284782D01*
X84661Y284822D01*
X84742Y284857D01*
X84825Y284889D01*
X84909Y284918D01*
X84994Y284943D01*
X85080Y284964D01*
X85167Y284981D01*
X85255Y284995D01*
X85343Y285004D01*
X85431Y285010D01*
X85520Y285012D01*
X85609Y285010D01*
X85697Y285004D01*
X85785Y284995D01*
X85873Y284981D01*
X85960Y284964D01*
X86046Y284943D01*
X86131Y284918D01*
X86215Y284889D01*
X86298Y284857D01*
X86379Y284822D01*
X86458Y284782D01*
X86536Y284740D01*
X86612Y284694D01*
X86686Y284645D01*
X86757Y284592D01*
X86826Y284537D01*
X86893Y284478D01*
X86957Y284417D01*
X87018Y284353D01*
X87077Y284286D01*
X87132Y284217D01*
X87185Y284146D01*
X87234Y284072D01*
X87280Y283996D01*
X87322Y283918D01*
X87362Y283839D01*
X87397Y283758D01*
X87429Y283675D01*
X87458Y283591D01*
X87483Y283506D01*
X87504Y283420D01*
X87521Y283333D01*
X87535Y283245D01*
X87544Y283157D01*
X87550Y283069D01*
X87552Y282980D01*
X87550Y282891D01*
X87544Y282803D01*
X87535Y282715D01*
X87521Y282627D01*
X87504Y282540D01*
X87483Y282454D01*
X87458Y282369D01*
X87429Y282285D01*
X87397Y282202D01*
X87362Y282121D01*
X87322Y282042D01*
X87280Y281964D01*
X87234Y281888D01*
X87185Y281814D01*
X87132Y281743D01*
X87077Y281674D01*
X87018Y281607D01*
X86957Y281543D01*
X86893Y281482D01*
X86826Y281423D01*
X86757Y281368D01*
X86686Y281315D01*
X86612Y281266D01*
X86536Y281220D01*
X86458Y281178D01*
X86379Y281138D01*
X86298Y281103D01*
X86215Y281071D01*
X86131Y281042D01*
X86046Y281017D01*
X85960Y280996D01*
X85873Y280979D01*
X85785Y280965D01*
X85697Y280956D01*
X85609Y280950D01*
X85520Y280948D01*
X85431Y280950D01*
X85343Y280956D01*
X85255Y280965D01*
X85167Y280979D01*
X85080Y280996D01*
X84994Y281017D01*
X84909Y281042D01*
X84825Y281071D01*
X84742Y281103D01*
X84661Y281138D01*
X84582Y281178D01*
X84504Y281220D01*
X84428Y281266D01*
X84354Y281315D01*
X84283Y281368D01*
X84214Y281423D01*
X84147Y281482D01*
X84083Y281543D01*
X84022Y281607D01*
X83963Y281674D01*
X83908Y281743D01*
X83855Y281814D01*
X83806Y281888D01*
X83760Y281964D01*
X83718Y282042D01*
X83678Y282121D01*
X83643Y282202D01*
X83611Y282285D01*
X83582Y282369D01*
X83557Y282454D01*
X83536Y282540D01*
X83519Y282627D01*
X83505Y282715D01*
X83496Y282803D01*
X83490Y282891D01*
X83488Y282980D01*
D14*
X156030Y231430D02*
X156030Y208570D01*
X181430Y206030D02*
X181530Y206032D01*
X181629Y206038D01*
X181729Y206048D01*
X181827Y206061D01*
X181926Y206079D01*
X182023Y206100D01*
X182119Y206125D01*
X182215Y206154D01*
X182309Y206187D01*
X182402Y206223D01*
X182493Y206263D01*
X182583Y206307D01*
X182671Y206354D01*
X182757Y206404D01*
X182841Y206458D01*
X182923Y206515D01*
X183002Y206575D01*
X183080Y206639D01*
X183154Y206705D01*
X183226Y206774D01*
X183295Y206846D01*
X183361Y206920D01*
X183425Y206998D01*
X183485Y207077D01*
X183542Y207159D01*
X183596Y207243D01*
X183646Y207329D01*
X183693Y207417D01*
X183737Y207507D01*
X183777Y207598D01*
X183813Y207691D01*
X183846Y207785D01*
X183875Y207881D01*
X183900Y207977D01*
X183921Y208074D01*
X183939Y208173D01*
X183952Y208271D01*
X183962Y208371D01*
X183968Y208470D01*
X183970Y208570D01*
X183970Y231430D02*
X183968Y231530D01*
X183962Y231629D01*
X183952Y231729D01*
X183939Y231827D01*
X183921Y231926D01*
X183900Y232023D01*
X183875Y232119D01*
X183846Y232215D01*
X183813Y232309D01*
X183777Y232402D01*
X183737Y232493D01*
X183693Y232583D01*
X183646Y232671D01*
X183596Y232757D01*
X183542Y232841D01*
X183485Y232923D01*
X183425Y233002D01*
X183361Y233080D01*
X183295Y233154D01*
X183226Y233226D01*
X183154Y233295D01*
X183080Y233361D01*
X183002Y233425D01*
X182923Y233485D01*
X182841Y233542D01*
X182757Y233596D01*
X182671Y233646D01*
X182583Y233693D01*
X182493Y233737D01*
X182402Y233777D01*
X182309Y233813D01*
X182215Y233846D01*
X182119Y233875D01*
X182023Y233900D01*
X181926Y233921D01*
X181827Y233939D01*
X181729Y233952D01*
X181629Y233962D01*
X181530Y233968D01*
X181430Y233970D01*
X158570Y233970D02*
X158470Y233968D01*
X158371Y233962D01*
X158271Y233952D01*
X158173Y233939D01*
X158074Y233921D01*
X157977Y233900D01*
X157881Y233875D01*
X157785Y233846D01*
X157691Y233813D01*
X157598Y233777D01*
X157507Y233737D01*
X157417Y233693D01*
X157329Y233646D01*
X157243Y233596D01*
X157159Y233542D01*
X157077Y233485D01*
X156998Y233425D01*
X156920Y233361D01*
X156846Y233295D01*
X156774Y233226D01*
X156705Y233154D01*
X156639Y233080D01*
X156575Y233002D01*
X156515Y232923D01*
X156458Y232841D01*
X156404Y232757D01*
X156354Y232671D01*
X156307Y232583D01*
X156263Y232493D01*
X156223Y232402D01*
X156187Y232309D01*
X156154Y232215D01*
X156125Y232119D01*
X156100Y232023D01*
X156079Y231926D01*
X156061Y231827D01*
X156048Y231729D01*
X156038Y231629D01*
X156032Y231530D01*
X156030Y231430D01*
X156030Y208570D02*
X156032Y208470D01*
X156038Y208371D01*
X156048Y208271D01*
X156061Y208173D01*
X156079Y208074D01*
X156100Y207977D01*
X156125Y207881D01*
X156154Y207785D01*
X156187Y207691D01*
X156223Y207598D01*
X156263Y207507D01*
X156307Y207417D01*
X156354Y207329D01*
X156404Y207243D01*
X156458Y207159D01*
X156515Y207077D01*
X156575Y206998D01*
X156639Y206920D01*
X156705Y206846D01*
X156774Y206774D01*
X156846Y206705D01*
X156920Y206639D01*
X156998Y206575D01*
X157077Y206515D01*
X157159Y206458D01*
X157243Y206404D01*
X157329Y206354D01*
X157417Y206307D01*
X157507Y206263D01*
X157598Y206223D01*
X157691Y206187D01*
X157785Y206154D01*
X157881Y206125D01*
X157977Y206100D01*
X158074Y206079D01*
X158173Y206061D01*
X158271Y206048D01*
X158371Y206038D01*
X158470Y206032D01*
X158570Y206030D01*
X181430Y206030D01*
X181430Y233970D02*
X158570Y233970D01*
X183970Y231430D02*
X183970Y208570D01*
D10*
X193476Y215588D02*
X193565Y215586D01*
X193653Y215580D01*
X193741Y215571D01*
X193829Y215557D01*
X193916Y215540D01*
X194002Y215519D01*
X194087Y215494D01*
X194171Y215465D01*
X194254Y215433D01*
X194335Y215398D01*
X194414Y215358D01*
X194492Y215316D01*
X194568Y215270D01*
X194642Y215221D01*
X194713Y215168D01*
X194782Y215113D01*
X194849Y215054D01*
X194913Y214993D01*
X194974Y214929D01*
X195033Y214862D01*
X195088Y214793D01*
X195141Y214722D01*
X195190Y214648D01*
X195236Y214572D01*
X195278Y214494D01*
X195318Y214415D01*
X195353Y214334D01*
X195385Y214251D01*
X195414Y214167D01*
X195439Y214082D01*
X195460Y213996D01*
X195477Y213909D01*
X195491Y213821D01*
X195500Y213733D01*
X195506Y213645D01*
X195508Y213556D01*
X195506Y213426D01*
X195500Y213295D01*
X195490Y213165D01*
X195476Y213036D01*
X195459Y212907D01*
X195437Y212778D01*
X195411Y212650D01*
X195382Y212523D01*
X195349Y212397D01*
X195312Y212272D01*
X195271Y212148D01*
X195226Y212026D01*
X195178Y211905D01*
X195126Y211785D01*
X195070Y211667D01*
X195011Y211551D01*
X194948Y211437D01*
X194882Y211324D01*
X194813Y211214D01*
X194740Y211106D01*
X194664Y211000D01*
X194585Y210896D01*
X194503Y210795D01*
X194417Y210697D01*
X194329Y210601D01*
X194238Y210508D01*
X188396Y210762D02*
X188307Y210764D01*
X188219Y210770D01*
X188131Y210779D01*
X188043Y210793D01*
X187956Y210810D01*
X187870Y210831D01*
X187785Y210856D01*
X187701Y210885D01*
X187618Y210917D01*
X187537Y210952D01*
X187458Y210992D01*
X187380Y211034D01*
X187304Y211080D01*
X187230Y211129D01*
X187159Y211182D01*
X187090Y211237D01*
X187023Y211296D01*
X186959Y211357D01*
X186898Y211421D01*
X186839Y211488D01*
X186784Y211557D01*
X186731Y211628D01*
X186682Y211702D01*
X186636Y211778D01*
X186594Y211856D01*
X186554Y211935D01*
X186519Y212016D01*
X186487Y212099D01*
X186458Y212183D01*
X186433Y212268D01*
X186412Y212354D01*
X186395Y212441D01*
X186381Y212529D01*
X186372Y212617D01*
X186366Y212705D01*
X186364Y212794D01*
X186366Y212917D01*
X186372Y213039D01*
X186382Y213161D01*
X186396Y213283D01*
X186413Y213404D01*
X186435Y213525D01*
X186460Y213645D01*
X186490Y213764D01*
X186523Y213882D01*
X186560Y213999D01*
X186600Y214114D01*
X186644Y214229D01*
X186692Y214342D01*
X186744Y214453D01*
X186799Y214562D01*
X186858Y214670D01*
X186920Y214776D01*
X186985Y214879D01*
X187054Y214981D01*
X187126Y215080D01*
X190174Y211778D02*
X190127Y211702D01*
X190077Y211628D01*
X190024Y211557D01*
X189967Y211488D01*
X189908Y211421D01*
X189846Y211357D01*
X189781Y211295D01*
X189713Y211237D01*
X189643Y211182D01*
X189571Y211129D01*
X189497Y211080D01*
X189420Y211034D01*
X189342Y210991D01*
X189261Y210952D01*
X189179Y210916D01*
X189096Y210884D01*
X189012Y210856D01*
X188926Y210831D01*
X188839Y210810D01*
X188751Y210793D01*
X188663Y210779D01*
X188574Y210770D01*
X188485Y210764D01*
X188396Y210762D01*
X191698Y214572D02*
X191745Y214648D01*
X191795Y214722D01*
X191848Y214793D01*
X191905Y214862D01*
X191964Y214929D01*
X192026Y214993D01*
X192091Y215055D01*
X192159Y215113D01*
X192229Y215168D01*
X192301Y215221D01*
X192375Y215270D01*
X192452Y215316D01*
X192530Y215359D01*
X192611Y215398D01*
X192693Y215434D01*
X192776Y215466D01*
X192860Y215494D01*
X192946Y215519D01*
X193033Y215540D01*
X193121Y215557D01*
X193209Y215571D01*
X193298Y215580D01*
X193387Y215586D01*
X193476Y215588D01*
X191698Y214572D02*
X190174Y211778D01*
X193476Y221421D02*
X186364Y221421D01*
X193476Y221421D02*
X193565Y221419D01*
X193653Y221413D01*
X193741Y221404D01*
X193829Y221390D01*
X193916Y221373D01*
X194002Y221352D01*
X194087Y221327D01*
X194171Y221298D01*
X194254Y221266D01*
X194335Y221231D01*
X194414Y221191D01*
X194492Y221149D01*
X194568Y221103D01*
X194642Y221054D01*
X194713Y221001D01*
X194782Y220946D01*
X194849Y220887D01*
X194913Y220826D01*
X194974Y220762D01*
X195033Y220695D01*
X195088Y220626D01*
X195141Y220555D01*
X195190Y220481D01*
X195236Y220405D01*
X195278Y220327D01*
X195318Y220248D01*
X195353Y220167D01*
X195385Y220084D01*
X195414Y220000D01*
X195439Y219915D01*
X195460Y219829D01*
X195477Y219742D01*
X195491Y219654D01*
X195500Y219566D01*
X195506Y219478D01*
X195508Y219389D01*
X195508Y218373D01*
X188396Y225748D02*
X186364Y228288D01*
X195508Y228288D01*
X195508Y225748D02*
X195508Y230828D01*
D14*
X183570Y416294D02*
X183570Y439154D01*
X158170Y441694D02*
X158070Y441692D01*
X157971Y441686D01*
X157871Y441676D01*
X157773Y441663D01*
X157674Y441645D01*
X157577Y441624D01*
X157481Y441599D01*
X157385Y441570D01*
X157291Y441537D01*
X157198Y441501D01*
X157107Y441461D01*
X157017Y441417D01*
X156929Y441370D01*
X156843Y441320D01*
X156759Y441266D01*
X156677Y441209D01*
X156598Y441149D01*
X156520Y441085D01*
X156446Y441019D01*
X156374Y440950D01*
X156305Y440878D01*
X156239Y440804D01*
X156175Y440726D01*
X156115Y440647D01*
X156058Y440565D01*
X156004Y440481D01*
X155954Y440395D01*
X155907Y440307D01*
X155863Y440217D01*
X155823Y440126D01*
X155787Y440033D01*
X155754Y439939D01*
X155725Y439843D01*
X155700Y439747D01*
X155679Y439650D01*
X155661Y439551D01*
X155648Y439453D01*
X155638Y439353D01*
X155632Y439254D01*
X155630Y439154D01*
X155630Y416294D02*
X155632Y416194D01*
X155638Y416095D01*
X155648Y415995D01*
X155661Y415897D01*
X155679Y415798D01*
X155700Y415701D01*
X155725Y415605D01*
X155754Y415509D01*
X155787Y415415D01*
X155823Y415322D01*
X155863Y415231D01*
X155907Y415141D01*
X155954Y415053D01*
X156004Y414967D01*
X156058Y414883D01*
X156115Y414801D01*
X156175Y414722D01*
X156239Y414644D01*
X156305Y414570D01*
X156374Y414498D01*
X156446Y414429D01*
X156520Y414363D01*
X156598Y414299D01*
X156677Y414239D01*
X156759Y414182D01*
X156843Y414128D01*
X156929Y414078D01*
X157017Y414031D01*
X157107Y413987D01*
X157198Y413947D01*
X157291Y413911D01*
X157385Y413878D01*
X157481Y413849D01*
X157577Y413824D01*
X157674Y413803D01*
X157773Y413785D01*
X157871Y413772D01*
X157971Y413762D01*
X158070Y413756D01*
X158170Y413754D01*
X181030Y413754D02*
X181130Y413756D01*
X181229Y413762D01*
X181329Y413772D01*
X181427Y413785D01*
X181526Y413803D01*
X181623Y413824D01*
X181719Y413849D01*
X181815Y413878D01*
X181909Y413911D01*
X182002Y413947D01*
X182093Y413987D01*
X182183Y414031D01*
X182271Y414078D01*
X182357Y414128D01*
X182441Y414182D01*
X182523Y414239D01*
X182602Y414299D01*
X182680Y414363D01*
X182754Y414429D01*
X182826Y414498D01*
X182895Y414570D01*
X182961Y414644D01*
X183025Y414722D01*
X183085Y414801D01*
X183142Y414883D01*
X183196Y414967D01*
X183246Y415053D01*
X183293Y415141D01*
X183337Y415231D01*
X183377Y415322D01*
X183413Y415415D01*
X183446Y415509D01*
X183475Y415605D01*
X183500Y415701D01*
X183521Y415798D01*
X183539Y415897D01*
X183552Y415995D01*
X183562Y416095D01*
X183568Y416194D01*
X183570Y416294D01*
X183570Y439154D02*
X183568Y439254D01*
X183562Y439353D01*
X183552Y439453D01*
X183539Y439551D01*
X183521Y439650D01*
X183500Y439747D01*
X183475Y439843D01*
X183446Y439939D01*
X183413Y440033D01*
X183377Y440126D01*
X183337Y440217D01*
X183293Y440307D01*
X183246Y440395D01*
X183196Y440481D01*
X183142Y440565D01*
X183085Y440647D01*
X183025Y440726D01*
X182961Y440804D01*
X182895Y440878D01*
X182826Y440950D01*
X182754Y441019D01*
X182680Y441085D01*
X182602Y441149D01*
X182523Y441209D01*
X182441Y441266D01*
X182357Y441320D01*
X182271Y441370D01*
X182183Y441417D01*
X182093Y441461D01*
X182002Y441501D01*
X181909Y441537D01*
X181815Y441570D01*
X181719Y441599D01*
X181623Y441624D01*
X181526Y441645D01*
X181427Y441663D01*
X181329Y441676D01*
X181229Y441686D01*
X181130Y441692D01*
X181030Y441694D01*
X158170Y441694D01*
X158170Y413754D02*
X181030Y413754D01*
X155630Y416294D02*
X155630Y439154D01*
D10*
X194564Y422148D02*
X194653Y422146D01*
X194741Y422140D01*
X194829Y422131D01*
X194917Y422117D01*
X195004Y422100D01*
X195090Y422079D01*
X195175Y422054D01*
X195259Y422025D01*
X195342Y421993D01*
X195423Y421958D01*
X195502Y421918D01*
X195580Y421876D01*
X195656Y421830D01*
X195730Y421781D01*
X195801Y421728D01*
X195870Y421673D01*
X195937Y421614D01*
X196001Y421553D01*
X196062Y421489D01*
X196121Y421422D01*
X196176Y421353D01*
X196229Y421282D01*
X196278Y421208D01*
X196324Y421132D01*
X196366Y421054D01*
X196406Y420975D01*
X196441Y420894D01*
X196473Y420811D01*
X196502Y420727D01*
X196527Y420642D01*
X196548Y420556D01*
X196565Y420469D01*
X196579Y420381D01*
X196588Y420293D01*
X196594Y420205D01*
X196596Y420116D01*
X196594Y419986D01*
X196588Y419855D01*
X196578Y419725D01*
X196564Y419596D01*
X196547Y419467D01*
X196525Y419338D01*
X196499Y419210D01*
X196470Y419083D01*
X196437Y418957D01*
X196400Y418832D01*
X196359Y418708D01*
X196314Y418586D01*
X196266Y418465D01*
X196214Y418345D01*
X196158Y418227D01*
X196099Y418111D01*
X196036Y417997D01*
X195970Y417884D01*
X195901Y417774D01*
X195828Y417666D01*
X195752Y417560D01*
X195673Y417456D01*
X195591Y417355D01*
X195505Y417257D01*
X195417Y417161D01*
X195326Y417068D01*
X189484Y417322D02*
X189395Y417324D01*
X189307Y417330D01*
X189219Y417339D01*
X189131Y417353D01*
X189044Y417370D01*
X188958Y417391D01*
X188873Y417416D01*
X188789Y417445D01*
X188706Y417477D01*
X188625Y417512D01*
X188546Y417552D01*
X188468Y417594D01*
X188392Y417640D01*
X188318Y417689D01*
X188247Y417742D01*
X188178Y417797D01*
X188111Y417856D01*
X188047Y417917D01*
X187986Y417981D01*
X187927Y418048D01*
X187872Y418117D01*
X187819Y418188D01*
X187770Y418262D01*
X187724Y418338D01*
X187682Y418416D01*
X187642Y418495D01*
X187607Y418576D01*
X187575Y418659D01*
X187546Y418743D01*
X187521Y418828D01*
X187500Y418914D01*
X187483Y419001D01*
X187469Y419089D01*
X187460Y419177D01*
X187454Y419265D01*
X187452Y419354D01*
X187454Y419477D01*
X187460Y419599D01*
X187470Y419721D01*
X187484Y419843D01*
X187501Y419964D01*
X187523Y420085D01*
X187548Y420205D01*
X187578Y420324D01*
X187611Y420442D01*
X187648Y420559D01*
X187688Y420674D01*
X187732Y420789D01*
X187780Y420902D01*
X187832Y421013D01*
X187887Y421122D01*
X187946Y421230D01*
X188008Y421336D01*
X188073Y421439D01*
X188142Y421541D01*
X188214Y421640D01*
X191262Y418338D02*
X191215Y418262D01*
X191165Y418188D01*
X191112Y418117D01*
X191055Y418048D01*
X190996Y417981D01*
X190934Y417917D01*
X190869Y417855D01*
X190801Y417797D01*
X190731Y417742D01*
X190659Y417689D01*
X190585Y417640D01*
X190508Y417594D01*
X190430Y417551D01*
X190349Y417512D01*
X190267Y417476D01*
X190184Y417444D01*
X190100Y417416D01*
X190014Y417391D01*
X189927Y417370D01*
X189839Y417353D01*
X189751Y417339D01*
X189662Y417330D01*
X189573Y417324D01*
X189484Y417322D01*
X192786Y421132D02*
X192833Y421208D01*
X192883Y421282D01*
X192936Y421353D01*
X192993Y421422D01*
X193052Y421489D01*
X193114Y421553D01*
X193179Y421615D01*
X193247Y421673D01*
X193317Y421728D01*
X193389Y421781D01*
X193463Y421830D01*
X193540Y421876D01*
X193618Y421919D01*
X193699Y421958D01*
X193781Y421994D01*
X193864Y422026D01*
X193948Y422054D01*
X194034Y422079D01*
X194121Y422100D01*
X194209Y422117D01*
X194297Y422131D01*
X194386Y422140D01*
X194475Y422146D01*
X194564Y422148D01*
X192786Y421132D02*
X191262Y418338D01*
X194564Y427981D02*
X187452Y427981D01*
X194564Y427981D02*
X194653Y427979D01*
X194741Y427973D01*
X194829Y427964D01*
X194917Y427950D01*
X195004Y427933D01*
X195090Y427912D01*
X195175Y427887D01*
X195259Y427858D01*
X195342Y427826D01*
X195423Y427791D01*
X195502Y427751D01*
X195580Y427709D01*
X195656Y427663D01*
X195730Y427614D01*
X195801Y427561D01*
X195870Y427506D01*
X195937Y427447D01*
X196001Y427386D01*
X196062Y427322D01*
X196121Y427255D01*
X196176Y427186D01*
X196229Y427115D01*
X196278Y427041D01*
X196324Y426965D01*
X196366Y426887D01*
X196406Y426808D01*
X196441Y426727D01*
X196473Y426644D01*
X196502Y426560D01*
X196527Y426475D01*
X196548Y426389D01*
X196565Y426302D01*
X196579Y426214D01*
X196588Y426126D01*
X196594Y426038D01*
X196596Y425949D01*
X196596Y424933D01*
X187452Y435102D02*
X187454Y435196D01*
X187460Y435291D01*
X187470Y435385D01*
X187483Y435478D01*
X187501Y435571D01*
X187522Y435663D01*
X187547Y435754D01*
X187576Y435844D01*
X187608Y435933D01*
X187645Y436020D01*
X187684Y436106D01*
X187728Y436190D01*
X187774Y436272D01*
X187824Y436352D01*
X187878Y436430D01*
X187934Y436506D01*
X187994Y436579D01*
X188056Y436650D01*
X188122Y436718D01*
X188190Y436784D01*
X188261Y436846D01*
X188334Y436906D01*
X188410Y436962D01*
X188488Y437016D01*
X188568Y437066D01*
X188650Y437112D01*
X188734Y437156D01*
X188820Y437195D01*
X188907Y437232D01*
X188996Y437264D01*
X189086Y437293D01*
X189177Y437318D01*
X189269Y437339D01*
X189362Y437357D01*
X189455Y437370D01*
X189549Y437380D01*
X189644Y437386D01*
X189738Y437388D01*
X187452Y435102D02*
X187454Y434996D01*
X187460Y434891D01*
X187469Y434786D01*
X187482Y434681D01*
X187499Y434577D01*
X187520Y434474D01*
X187544Y434371D01*
X187573Y434269D01*
X187604Y434169D01*
X187640Y434069D01*
X187678Y433971D01*
X187721Y433875D01*
X187767Y433779D01*
X187816Y433686D01*
X187868Y433595D01*
X187924Y433505D01*
X187983Y433417D01*
X188045Y433332D01*
X188110Y433249D01*
X188178Y433168D01*
X188249Y433090D01*
X188323Y433015D01*
X188399Y432942D01*
X188478Y432872D01*
X188559Y432805D01*
X188643Y432740D01*
X188729Y432679D01*
X188817Y432621D01*
X188907Y432566D01*
X188999Y432515D01*
X189093Y432466D01*
X189189Y432421D01*
X189286Y432380D01*
X189384Y432342D01*
X189484Y432308D01*
X191516Y436626D02*
X191449Y436693D01*
X191380Y436758D01*
X191308Y436820D01*
X191235Y436879D01*
X191158Y436935D01*
X191080Y436989D01*
X191000Y437039D01*
X190918Y437086D01*
X190834Y437130D01*
X190748Y437170D01*
X190661Y437208D01*
X190573Y437242D01*
X190483Y437272D01*
X190393Y437299D01*
X190301Y437323D01*
X190208Y437343D01*
X190115Y437359D01*
X190021Y437372D01*
X189927Y437381D01*
X189833Y437386D01*
X189738Y437388D01*
X191516Y436626D02*
X196596Y432308D01*
X196596Y437388D01*
X5322Y294404D02*
X5322Y285260D01*
X5322Y294404D02*
X7862Y294404D01*
X7962Y294402D01*
X8061Y294396D01*
X8161Y294386D01*
X8259Y294373D01*
X8358Y294355D01*
X8455Y294334D01*
X8551Y294309D01*
X8647Y294280D01*
X8741Y294247D01*
X8834Y294211D01*
X8925Y294171D01*
X9015Y294127D01*
X9103Y294080D01*
X9189Y294030D01*
X9273Y293976D01*
X9355Y293919D01*
X9434Y293859D01*
X9512Y293795D01*
X9586Y293729D01*
X9658Y293660D01*
X9727Y293588D01*
X9793Y293514D01*
X9857Y293436D01*
X9917Y293357D01*
X9974Y293275D01*
X10028Y293191D01*
X10078Y293105D01*
X10125Y293017D01*
X10169Y292927D01*
X10209Y292836D01*
X10245Y292743D01*
X10278Y292649D01*
X10307Y292553D01*
X10332Y292457D01*
X10353Y292360D01*
X10371Y292261D01*
X10384Y292163D01*
X10394Y292063D01*
X10400Y291964D01*
X10402Y291864D01*
X10400Y291764D01*
X10394Y291665D01*
X10384Y291565D01*
X10371Y291467D01*
X10353Y291368D01*
X10332Y291271D01*
X10307Y291175D01*
X10278Y291079D01*
X10245Y290985D01*
X10209Y290892D01*
X10169Y290801D01*
X10125Y290711D01*
X10078Y290623D01*
X10028Y290537D01*
X9974Y290453D01*
X9917Y290371D01*
X9857Y290292D01*
X9793Y290214D01*
X9727Y290140D01*
X9658Y290068D01*
X9586Y289999D01*
X9512Y289933D01*
X9434Y289869D01*
X9355Y289809D01*
X9273Y289752D01*
X9189Y289698D01*
X9103Y289648D01*
X9015Y289601D01*
X8925Y289557D01*
X8834Y289517D01*
X8741Y289481D01*
X8647Y289448D01*
X8551Y289419D01*
X8455Y289394D01*
X8358Y289373D01*
X8259Y289355D01*
X8161Y289342D01*
X8061Y289332D01*
X7962Y289326D01*
X7862Y289324D01*
X5322Y289324D01*
X8370Y289324D02*
X10402Y285260D01*
X16432Y289324D02*
X19480Y289324D01*
X16432Y289324D02*
X16343Y289326D01*
X16255Y289332D01*
X16167Y289341D01*
X16079Y289355D01*
X15992Y289372D01*
X15906Y289393D01*
X15821Y289418D01*
X15737Y289447D01*
X15654Y289479D01*
X15573Y289514D01*
X15494Y289554D01*
X15416Y289596D01*
X15340Y289642D01*
X15266Y289691D01*
X15195Y289744D01*
X15126Y289799D01*
X15059Y289858D01*
X14995Y289919D01*
X14934Y289983D01*
X14875Y290050D01*
X14820Y290119D01*
X14767Y290190D01*
X14718Y290264D01*
X14672Y290340D01*
X14630Y290418D01*
X14590Y290497D01*
X14555Y290578D01*
X14523Y290661D01*
X14494Y290745D01*
X14469Y290830D01*
X14448Y290916D01*
X14431Y291003D01*
X14417Y291091D01*
X14408Y291179D01*
X14402Y291267D01*
X14400Y291356D01*
X14400Y291864D01*
X14402Y291964D01*
X14408Y292063D01*
X14418Y292163D01*
X14431Y292261D01*
X14449Y292360D01*
X14470Y292457D01*
X14495Y292553D01*
X14524Y292649D01*
X14557Y292743D01*
X14593Y292836D01*
X14633Y292927D01*
X14677Y293017D01*
X14724Y293105D01*
X14774Y293191D01*
X14828Y293275D01*
X14885Y293357D01*
X14945Y293436D01*
X15009Y293514D01*
X15075Y293588D01*
X15144Y293660D01*
X15216Y293729D01*
X15290Y293795D01*
X15368Y293859D01*
X15447Y293919D01*
X15529Y293976D01*
X15613Y294030D01*
X15699Y294080D01*
X15787Y294127D01*
X15877Y294171D01*
X15968Y294211D01*
X16061Y294247D01*
X16155Y294280D01*
X16251Y294309D01*
X16347Y294334D01*
X16444Y294355D01*
X16543Y294373D01*
X16641Y294386D01*
X16741Y294396D01*
X16840Y294402D01*
X16940Y294404D01*
X17040Y294402D01*
X17139Y294396D01*
X17239Y294386D01*
X17337Y294373D01*
X17436Y294355D01*
X17533Y294334D01*
X17629Y294309D01*
X17725Y294280D01*
X17819Y294247D01*
X17912Y294211D01*
X18003Y294171D01*
X18093Y294127D01*
X18181Y294080D01*
X18267Y294030D01*
X18351Y293976D01*
X18433Y293919D01*
X18512Y293859D01*
X18590Y293795D01*
X18664Y293729D01*
X18736Y293660D01*
X18805Y293588D01*
X18871Y293514D01*
X18935Y293436D01*
X18995Y293357D01*
X19052Y293275D01*
X19106Y293191D01*
X19156Y293105D01*
X19203Y293017D01*
X19247Y292927D01*
X19287Y292836D01*
X19323Y292743D01*
X19356Y292649D01*
X19385Y292553D01*
X19410Y292457D01*
X19431Y292360D01*
X19449Y292261D01*
X19462Y292163D01*
X19472Y292063D01*
X19478Y291964D01*
X19480Y291864D01*
X19480Y289324D01*
X19478Y289199D01*
X19472Y289074D01*
X19463Y288949D01*
X19449Y288825D01*
X19432Y288701D01*
X19411Y288577D01*
X19386Y288455D01*
X19357Y288333D01*
X19325Y288212D01*
X19289Y288092D01*
X19249Y287973D01*
X19206Y287856D01*
X19159Y287740D01*
X19108Y287625D01*
X19054Y287513D01*
X18996Y287401D01*
X18936Y287292D01*
X18871Y287185D01*
X18804Y287079D01*
X18733Y286976D01*
X18659Y286875D01*
X18582Y286776D01*
X18502Y286680D01*
X18419Y286586D01*
X18334Y286495D01*
X18245Y286406D01*
X18154Y286321D01*
X18060Y286238D01*
X17964Y286158D01*
X17865Y286081D01*
X17764Y286007D01*
X17661Y285936D01*
X17555Y285869D01*
X17448Y285804D01*
X17339Y285744D01*
X17227Y285686D01*
X17115Y285632D01*
X17000Y285581D01*
X16884Y285534D01*
X16767Y285491D01*
X16648Y285451D01*
X16528Y285415D01*
X16407Y285383D01*
X16285Y285354D01*
X16163Y285329D01*
X16039Y285308D01*
X15915Y285291D01*
X15791Y285277D01*
X15666Y285268D01*
X15541Y285262D01*
X15416Y285260D01*
D11*
X35144Y236860D02*
X25144Y231860D01*
X25144Y241860D02*
X35144Y236860D01*
X25144Y241860D02*
X25144Y231860D01*
D15*
X35732Y236860D03*
D10*
X23997Y222382D02*
X23997Y213238D01*
X23997Y222382D02*
X26537Y222382D01*
X26637Y222380D01*
X26736Y222374D01*
X26836Y222364D01*
X26934Y222351D01*
X27033Y222333D01*
X27130Y222312D01*
X27226Y222287D01*
X27322Y222258D01*
X27416Y222225D01*
X27509Y222189D01*
X27600Y222149D01*
X27690Y222105D01*
X27778Y222058D01*
X27864Y222008D01*
X27948Y221954D01*
X28030Y221897D01*
X28109Y221837D01*
X28187Y221773D01*
X28261Y221707D01*
X28333Y221638D01*
X28402Y221566D01*
X28468Y221492D01*
X28532Y221414D01*
X28592Y221335D01*
X28649Y221253D01*
X28703Y221169D01*
X28753Y221083D01*
X28800Y220995D01*
X28844Y220905D01*
X28884Y220814D01*
X28920Y220721D01*
X28953Y220627D01*
X28982Y220531D01*
X29007Y220435D01*
X29028Y220338D01*
X29046Y220239D01*
X29059Y220141D01*
X29069Y220041D01*
X29075Y219942D01*
X29077Y219842D01*
X29077Y215778D01*
X29075Y215678D01*
X29069Y215579D01*
X29059Y215479D01*
X29046Y215381D01*
X29028Y215282D01*
X29007Y215185D01*
X28982Y215089D01*
X28953Y214993D01*
X28920Y214899D01*
X28884Y214806D01*
X28844Y214715D01*
X28800Y214625D01*
X28753Y214537D01*
X28703Y214451D01*
X28649Y214367D01*
X28592Y214285D01*
X28532Y214206D01*
X28468Y214128D01*
X28402Y214054D01*
X28333Y213982D01*
X28261Y213913D01*
X28187Y213847D01*
X28109Y213783D01*
X28030Y213723D01*
X27948Y213666D01*
X27864Y213612D01*
X27778Y213562D01*
X27690Y213515D01*
X27600Y213471D01*
X27509Y213431D01*
X27416Y213395D01*
X27322Y213362D01*
X27226Y213333D01*
X27130Y213308D01*
X27033Y213287D01*
X26934Y213269D01*
X26836Y213256D01*
X26736Y213246D01*
X26637Y213240D01*
X26537Y213238D01*
X23997Y213238D01*
X33446Y220350D02*
X35986Y222382D01*
X35986Y213238D01*
X33446Y213238D02*
X38526Y213238D01*
M02*
