G04 EAGLE Gerber RS-274X export*
G75*
%MOMM*%
%FSLAX34Y34*%
%LPD*%
%INSoldermask Bottom*%
%IPPOS*%
%AMOC8*
5,1,8,0,0,1.08239X$1,22.5*%
G01*
%ADD10C,9.401600*%
%ADD11C,0.451600*%
%ADD12C,14.851600*%


D10*
X100000Y360000D03*
D11*
X74600Y360000D03*
X125400Y360000D03*
X100000Y385400D03*
X100000Y334600D03*
X82220Y342220D03*
X82220Y377780D03*
X117780Y377780D03*
X117780Y342220D03*
X59360Y360000D03*
X100000Y400640D03*
X100000Y319360D03*
X140640Y360000D03*
X127940Y387940D03*
X127940Y332060D03*
X72060Y332060D03*
X72060Y387940D03*
D10*
X100000Y180000D03*
D11*
X125400Y180000D03*
X74600Y180000D03*
X100000Y154600D03*
X100000Y205400D03*
X117780Y197780D03*
X117780Y162220D03*
X82220Y162220D03*
X82220Y197780D03*
X140640Y180000D03*
X100000Y139360D03*
X100000Y220640D03*
X59360Y180000D03*
X72060Y152060D03*
X72060Y207940D03*
X127940Y207940D03*
X127940Y152060D03*
D12*
X100000Y80000D03*
D11*
X66980Y80000D03*
X133020Y80000D03*
X100000Y113020D03*
X100000Y46980D03*
X72060Y97780D03*
X82220Y107940D03*
X117780Y107940D03*
X127940Y97780D03*
X127940Y62220D03*
X117780Y52060D03*
X82220Y52060D03*
X72060Y62220D03*
X33960Y80000D03*
X166040Y80000D03*
X100000Y146040D03*
X100000Y13960D03*
X54280Y125720D03*
X145720Y34280D03*
X54280Y34280D03*
X145720Y125720D03*
X39040Y105400D03*
X39040Y54600D03*
X160960Y54600D03*
X160960Y105400D03*
X74600Y140960D03*
X74600Y19040D03*
X125400Y19040D03*
X125400Y140960D03*
D10*
X100000Y450000D03*
D11*
X125400Y450000D03*
X74600Y450000D03*
X100000Y424600D03*
X100000Y475400D03*
X117780Y467780D03*
X117780Y432220D03*
X82220Y432220D03*
X82220Y467780D03*
X140640Y450000D03*
X100000Y409360D03*
X100000Y490640D03*
X59360Y450000D03*
X72060Y422060D03*
X72060Y477940D03*
X127940Y477940D03*
X127940Y422060D03*
M02*
