G04 EAGLE Gerber RS-274X export*
G75*
%MOMM*%
%FSLAX34Y34*%
%LPD*%
%INSoldermask Top*%
%IPPOS*%
%AMOC8*
5,1,8,0,0,1.08239X$1,22.5*%
G01*
%ADD10R,6.301600X5.501600*%
%ADD11R,1.701600X1.101600*%
%ADD12R,1.101600X1.501600*%
%ADD13R,1.501600X1.101600*%
%ADD14R,3.501600X2.001600*%
%ADD15R,3.301600X1.901600*%
%ADD16R,1.401600X1.601600*%
%ADD17R,1.601600X1.401600*%
%ADD18R,0.901600X0.901600*%
%ADD19R,0.609600X1.117600*%
%ADD20R,0.914400X0.508000*%
%ADD21R,1.501600X1.901600*%
%ADD22C,9.401600*%
%ADD23R,6.200000X7.100000*%
%ADD24C,0.451600*%
%ADD25C,14.851600*%
%ADD26R,10.200000X11.400000*%

G36*
X178536Y418211D02*
X178536Y418211D01*
X178631Y418216D01*
X178648Y418223D01*
X178666Y418225D01*
X178750Y418266D01*
X178837Y418303D01*
X178853Y418317D01*
X178867Y418324D01*
X178902Y418361D01*
X178977Y418428D01*
X180434Y420176D01*
X180457Y420216D01*
X180499Y420271D01*
X181617Y422253D01*
X181632Y422296D01*
X181664Y422357D01*
X182407Y424508D01*
X182414Y424554D01*
X182434Y424620D01*
X182698Y426351D01*
X182776Y426869D01*
X182775Y426915D01*
X182783Y426984D01*
X182715Y429259D01*
X182705Y429304D01*
X182701Y429373D01*
X182223Y431597D01*
X182206Y431640D01*
X182189Y431707D01*
X181318Y433809D01*
X181294Y433848D01*
X181265Y433911D01*
X180029Y435822D01*
X179998Y435856D01*
X179959Y435912D01*
X178399Y437569D01*
X178362Y437596D01*
X178313Y437645D01*
X176480Y438994D01*
X176439Y439014D01*
X176382Y439053D01*
X174336Y440050D01*
X174292Y440062D01*
X174229Y440090D01*
X172037Y440701D01*
X171991Y440706D01*
X171924Y440722D01*
X169657Y440928D01*
X169612Y440924D01*
X169543Y440928D01*
X167276Y440722D01*
X167232Y440710D01*
X167163Y440701D01*
X164971Y440090D01*
X164930Y440070D01*
X164864Y440050D01*
X162818Y439053D01*
X162781Y439026D01*
X162720Y438994D01*
X160887Y437645D01*
X160856Y437612D01*
X160801Y437569D01*
X159241Y435912D01*
X159217Y435874D01*
X159171Y435822D01*
X157935Y433911D01*
X157917Y433869D01*
X157882Y433809D01*
X157011Y431707D01*
X157001Y431662D01*
X156977Y431597D01*
X156499Y429373D01*
X156498Y429327D01*
X156485Y429259D01*
X156417Y426984D01*
X156423Y426939D01*
X156424Y426869D01*
X156766Y424620D01*
X156781Y424576D01*
X156793Y424508D01*
X157536Y422357D01*
X157558Y422317D01*
X157583Y422253D01*
X158701Y420271D01*
X158730Y420235D01*
X158766Y420176D01*
X160223Y418428D01*
X160295Y418367D01*
X160363Y418303D01*
X160380Y418296D01*
X160395Y418284D01*
X160483Y418252D01*
X160570Y418215D01*
X160589Y418215D01*
X160606Y418208D01*
X160700Y418210D01*
X160794Y418205D01*
X160812Y418211D01*
X160830Y418211D01*
X160918Y418245D01*
X161008Y418274D01*
X161024Y418286D01*
X161040Y418292D01*
X161077Y418325D01*
X161158Y418386D01*
X164968Y422196D01*
X164987Y422222D01*
X165011Y422243D01*
X165041Y422296D01*
X165071Y422333D01*
X165077Y422352D01*
X165097Y422380D01*
X165105Y422411D01*
X165120Y422439D01*
X165131Y422512D01*
X165143Y422546D01*
X165142Y422558D01*
X165153Y422597D01*
X165149Y422629D01*
X165154Y422661D01*
X165138Y422740D01*
X165137Y422748D01*
X165136Y422770D01*
X165134Y422776D01*
X165129Y422820D01*
X165115Y422849D01*
X165109Y422880D01*
X165053Y422975D01*
X165052Y422978D01*
X165051Y422979D01*
X165030Y423021D01*
X165021Y423029D01*
X165014Y423042D01*
X164093Y424185D01*
X163466Y425436D01*
X163120Y426792D01*
X163070Y428191D01*
X163319Y429568D01*
X163854Y430861D01*
X164653Y432011D01*
X165677Y432965D01*
X166881Y433679D01*
X168208Y434121D01*
X169600Y434270D01*
X170992Y434121D01*
X172319Y433679D01*
X173523Y432965D01*
X174547Y432011D01*
X175346Y430861D01*
X175881Y429568D01*
X176130Y428191D01*
X176080Y426792D01*
X175734Y425436D01*
X175107Y424185D01*
X174186Y423042D01*
X174171Y423014D01*
X174149Y422991D01*
X174131Y422948D01*
X174129Y422946D01*
X174126Y422937D01*
X174117Y422916D01*
X174078Y422845D01*
X174074Y422813D01*
X174061Y422784D01*
X174059Y422740D01*
X174057Y422733D01*
X174058Y422708D01*
X174058Y422703D01*
X174046Y422623D01*
X174053Y422592D01*
X174051Y422560D01*
X174063Y422522D01*
X174064Y422509D01*
X174078Y422474D01*
X174093Y422404D01*
X174110Y422377D01*
X174120Y422346D01*
X174142Y422317D01*
X174148Y422301D01*
X174176Y422271D01*
X174188Y422254D01*
X174213Y422214D01*
X174223Y422207D01*
X174232Y422196D01*
X178042Y418386D01*
X178119Y418332D01*
X178193Y418274D01*
X178211Y418268D01*
X178226Y418257D01*
X178317Y418234D01*
X178407Y418205D01*
X178425Y418206D01*
X178443Y418202D01*
X178536Y418211D01*
G37*
G36*
X172324Y207002D02*
X172324Y207002D01*
X172368Y207014D01*
X172437Y207023D01*
X174629Y207634D01*
X174670Y207654D01*
X174736Y207674D01*
X176782Y208671D01*
X176819Y208698D01*
X176880Y208730D01*
X178713Y210079D01*
X178739Y210106D01*
X178760Y210118D01*
X178773Y210134D01*
X178799Y210155D01*
X180359Y211812D01*
X180384Y211850D01*
X180429Y211902D01*
X181665Y213813D01*
X181683Y213855D01*
X181718Y213915D01*
X182589Y216017D01*
X182599Y216062D01*
X182623Y216127D01*
X183101Y218351D01*
X183102Y218397D01*
X183115Y218465D01*
X183183Y220740D01*
X183177Y220785D01*
X183176Y220855D01*
X182834Y223104D01*
X182819Y223148D01*
X182807Y223216D01*
X182064Y225367D01*
X182042Y225407D01*
X182017Y225471D01*
X180899Y227453D01*
X180870Y227489D01*
X180834Y227548D01*
X179377Y229296D01*
X179305Y229357D01*
X179237Y229421D01*
X179220Y229428D01*
X179205Y229440D01*
X179117Y229472D01*
X179030Y229509D01*
X179011Y229509D01*
X178994Y229516D01*
X178900Y229514D01*
X178806Y229519D01*
X178788Y229513D01*
X178770Y229513D01*
X178682Y229479D01*
X178592Y229450D01*
X178576Y229438D01*
X178560Y229432D01*
X178523Y229399D01*
X178442Y229338D01*
X174632Y225528D01*
X174613Y225502D01*
X174589Y225481D01*
X174550Y225411D01*
X174503Y225344D01*
X174495Y225313D01*
X174480Y225285D01*
X174468Y225205D01*
X174448Y225127D01*
X174451Y225095D01*
X174446Y225063D01*
X174462Y224984D01*
X174471Y224904D01*
X174485Y224875D01*
X174491Y224844D01*
X174549Y224745D01*
X174570Y224703D01*
X174579Y224695D01*
X174586Y224682D01*
X175507Y223539D01*
X176134Y222288D01*
X176480Y220932D01*
X176530Y219533D01*
X176281Y218156D01*
X175746Y216863D01*
X174947Y215713D01*
X173923Y214759D01*
X172719Y214045D01*
X171392Y213603D01*
X170000Y213454D01*
X168608Y213603D01*
X167281Y214045D01*
X166077Y214759D01*
X165053Y215713D01*
X164254Y216863D01*
X163719Y218156D01*
X163470Y219533D01*
X163520Y220932D01*
X163866Y222288D01*
X164493Y223539D01*
X165414Y224682D01*
X165429Y224710D01*
X165451Y224733D01*
X165483Y224808D01*
X165522Y224879D01*
X165526Y224911D01*
X165539Y224940D01*
X165542Y225021D01*
X165554Y225101D01*
X165547Y225132D01*
X165549Y225164D01*
X165524Y225241D01*
X165507Y225320D01*
X165490Y225347D01*
X165480Y225378D01*
X165412Y225470D01*
X165387Y225510D01*
X165377Y225517D01*
X165368Y225528D01*
X161558Y229338D01*
X161481Y229392D01*
X161407Y229450D01*
X161389Y229456D01*
X161374Y229467D01*
X161283Y229490D01*
X161193Y229519D01*
X161175Y229518D01*
X161157Y229523D01*
X161064Y229513D01*
X160969Y229508D01*
X160952Y229501D01*
X160934Y229499D01*
X160850Y229458D01*
X160763Y229421D01*
X160747Y229407D01*
X160733Y229400D01*
X160698Y229363D01*
X160623Y229296D01*
X159166Y227548D01*
X159143Y227508D01*
X159101Y227453D01*
X157983Y225471D01*
X157968Y225428D01*
X157936Y225367D01*
X157193Y223216D01*
X157186Y223170D01*
X157166Y223104D01*
X156824Y220855D01*
X156824Y220841D01*
X156825Y220808D01*
X156817Y220740D01*
X156885Y218465D01*
X156895Y218420D01*
X156899Y218351D01*
X157377Y216127D01*
X157394Y216084D01*
X157411Y216017D01*
X158282Y213915D01*
X158306Y213876D01*
X158335Y213813D01*
X159571Y211902D01*
X159602Y211868D01*
X159641Y211812D01*
X161201Y210155D01*
X161238Y210128D01*
X161253Y210113D01*
X161269Y210095D01*
X161273Y210093D01*
X161287Y210079D01*
X163120Y208730D01*
X163161Y208710D01*
X163218Y208671D01*
X165264Y207674D01*
X165308Y207662D01*
X165371Y207634D01*
X167563Y207023D01*
X167609Y207018D01*
X167676Y207002D01*
X169943Y206796D01*
X169988Y206800D01*
X170057Y206796D01*
X172324Y207002D01*
G37*
G36*
X172726Y424056D02*
X172726Y424056D01*
X172806Y424062D01*
X172836Y424076D01*
X172869Y424081D01*
X172937Y424122D01*
X173010Y424155D01*
X173037Y424181D01*
X173062Y424196D01*
X173092Y424232D01*
X173146Y424283D01*
X173773Y425079D01*
X173797Y425123D01*
X173851Y425206D01*
X174276Y426126D01*
X174288Y426175D01*
X174322Y426268D01*
X174519Y427262D01*
X174520Y427312D01*
X174531Y427411D01*
X174491Y428423D01*
X174480Y428472D01*
X174468Y428570D01*
X174193Y429546D01*
X174171Y429591D01*
X174136Y429683D01*
X173641Y430568D01*
X173609Y430606D01*
X173553Y430688D01*
X172865Y431432D01*
X172825Y431463D01*
X172761Y431521D01*
X172759Y431523D01*
X172752Y431529D01*
X171909Y432092D01*
X171863Y432112D01*
X171776Y432160D01*
X170826Y432511D01*
X170776Y432519D01*
X170681Y432545D01*
X169675Y432664D01*
X169624Y432661D01*
X169525Y432664D01*
X168519Y432545D01*
X168471Y432531D01*
X168374Y432511D01*
X167424Y432160D01*
X167380Y432134D01*
X167291Y432092D01*
X166448Y431529D01*
X166425Y431507D01*
X166412Y431499D01*
X166400Y431484D01*
X166335Y431432D01*
X165647Y430688D01*
X165620Y430646D01*
X165559Y430568D01*
X165064Y429683D01*
X165048Y429636D01*
X165007Y429546D01*
X164732Y428570D01*
X164727Y428520D01*
X164709Y428423D01*
X164669Y427411D01*
X164676Y427361D01*
X164681Y427262D01*
X164878Y426268D01*
X164897Y426221D01*
X164924Y426126D01*
X165349Y425206D01*
X165378Y425165D01*
X165427Y425079D01*
X166054Y424283D01*
X166113Y424231D01*
X166167Y424172D01*
X166197Y424157D01*
X166222Y424135D01*
X166296Y424106D01*
X166367Y424069D01*
X166404Y424064D01*
X166431Y424053D01*
X166478Y424053D01*
X166552Y424042D01*
X172648Y424042D01*
X172726Y424056D01*
G37*
G36*
X171081Y215179D02*
X171081Y215179D01*
X171129Y215193D01*
X171226Y215214D01*
X172176Y215564D01*
X172220Y215590D01*
X172309Y215632D01*
X173152Y216195D01*
X173188Y216230D01*
X173265Y216292D01*
X173953Y217036D01*
X173980Y217078D01*
X174041Y217156D01*
X174536Y218041D01*
X174552Y218088D01*
X174593Y218178D01*
X174868Y219154D01*
X174873Y219204D01*
X174891Y219301D01*
X174931Y220313D01*
X174924Y220363D01*
X174919Y220462D01*
X174722Y221456D01*
X174703Y221503D01*
X174676Y221598D01*
X174251Y222518D01*
X174222Y222559D01*
X174173Y222645D01*
X173546Y223441D01*
X173487Y223493D01*
X173433Y223552D01*
X173403Y223567D01*
X173378Y223590D01*
X173304Y223618D01*
X173233Y223655D01*
X173196Y223660D01*
X173169Y223671D01*
X173122Y223671D01*
X173048Y223682D01*
X166952Y223682D01*
X166874Y223668D01*
X166795Y223662D01*
X166764Y223649D01*
X166731Y223643D01*
X166663Y223602D01*
X166590Y223569D01*
X166563Y223543D01*
X166538Y223528D01*
X166508Y223492D01*
X166454Y223441D01*
X165827Y222645D01*
X165803Y222601D01*
X165749Y222518D01*
X165324Y221598D01*
X165312Y221549D01*
X165278Y221456D01*
X165081Y220462D01*
X165080Y220412D01*
X165069Y220313D01*
X165109Y219301D01*
X165120Y219252D01*
X165132Y219154D01*
X165407Y218178D01*
X165429Y218133D01*
X165464Y218041D01*
X165959Y217156D01*
X165991Y217118D01*
X166047Y217036D01*
X166735Y216292D01*
X166775Y216261D01*
X166848Y216195D01*
X167691Y215632D01*
X167737Y215612D01*
X167824Y215564D01*
X168774Y215214D01*
X168824Y215205D01*
X168919Y215179D01*
X169925Y215060D01*
X169976Y215063D01*
X170075Y215060D01*
X171081Y215179D01*
G37*
D10*
X158810Y270330D03*
D11*
X85810Y293130D03*
X85810Y247530D03*
D12*
X28040Y279872D03*
X37540Y257872D03*
X18540Y257872D03*
D13*
X16028Y336396D03*
X38028Y345896D03*
X38028Y326896D03*
D14*
X170000Y320500D03*
X170000Y359500D03*
D15*
X170000Y391492D03*
X170000Y447492D03*
X170000Y528000D03*
X170000Y472000D03*
X30000Y528000D03*
X30000Y472000D03*
X30000Y391492D03*
X30000Y447492D03*
D16*
X36672Y366068D03*
X17672Y366068D03*
D17*
X15256Y179228D03*
X15256Y198228D03*
X36300Y179228D03*
X36300Y198228D03*
D18*
X63512Y247944D03*
X63512Y262944D03*
D17*
X62460Y283604D03*
X62460Y302604D03*
D19*
X170000Y222540D03*
D20*
X170000Y209840D03*
D19*
X169600Y425184D03*
D20*
X169600Y437884D03*
D16*
X17412Y307612D03*
X36412Y307612D03*
D21*
X47144Y236860D03*
X13144Y236860D03*
D22*
X100000Y360000D03*
D23*
X100000Y425500D03*
D24*
X74600Y360000D03*
X125400Y360000D03*
X100000Y385400D03*
X100000Y334600D03*
X82220Y342220D03*
X82220Y377780D03*
X117780Y377780D03*
X117780Y342220D03*
X59360Y360000D03*
X100000Y400640D03*
X100000Y319360D03*
X140640Y360000D03*
X127940Y387940D03*
X127940Y332060D03*
X72060Y332060D03*
X72060Y387940D03*
D22*
X100000Y180000D03*
D23*
X100000Y114500D03*
D24*
X125400Y180000D03*
X74600Y180000D03*
X100000Y154600D03*
X100000Y205400D03*
X117780Y197780D03*
X117780Y162220D03*
X82220Y162220D03*
X82220Y197780D03*
X140640Y180000D03*
X100000Y139360D03*
X100000Y220640D03*
X59360Y180000D03*
X72060Y152060D03*
X72060Y207940D03*
X127940Y207940D03*
X127940Y152060D03*
D25*
X100000Y80000D03*
D26*
X100000Y167000D03*
D24*
X66980Y80000D03*
X133020Y80000D03*
X100000Y113020D03*
X100000Y46980D03*
X72060Y97780D03*
X82220Y107940D03*
X117780Y107940D03*
X127940Y97780D03*
X127940Y62220D03*
X117780Y52060D03*
X82220Y52060D03*
X72060Y62220D03*
X33960Y80000D03*
X166040Y80000D03*
X100000Y146040D03*
X100000Y13960D03*
X54280Y125720D03*
X145720Y34280D03*
X54280Y34280D03*
X145720Y125720D03*
X39040Y105400D03*
X39040Y54600D03*
X160960Y54600D03*
X160960Y105400D03*
X74600Y140960D03*
X74600Y19040D03*
X125400Y19040D03*
X125400Y140960D03*
D22*
X100000Y450000D03*
D23*
X100000Y384500D03*
D24*
X125400Y450000D03*
X74600Y450000D03*
X100000Y424600D03*
X100000Y475400D03*
X117780Y467780D03*
X117780Y432220D03*
X82220Y432220D03*
X82220Y467780D03*
X140640Y450000D03*
X100000Y409360D03*
X100000Y490640D03*
X59360Y450000D03*
X72060Y422060D03*
X72060Y477940D03*
X127940Y477940D03*
X127940Y422060D03*
M02*
