  0
SECTION
  2
HEADER
  9
$ACADVER
  1
AC1009
  9
$FILLMODE
 70
1
  9
$EXTMIN
 10
-0.6604
 20
-2.3927
 30
0.0000
  9
$EXTMAX
 10
99.7204
 20
61.0362
 30
0.0000
  0
ENDSEC
  0
SECTION
  2
TABLES
  0
TABLE
  2
LTYPE
 70
1
  0
LTYPE
  2
CONTINUOUS
 70
64
  3
Solid line
 72
65
 73
0
 40
0
  0
ENDTAB
  0
TABLE
  2
LAYER
 70
255
  0
LAYER
  2
20
 70
64
 62
30
  6
CONTINUOUS
  0
LAYER
  2
115
 70
64
 62
151
  6
CONTINUOUS
  0
LAYER
  2
117
 70
64
 62
190
  6
CONTINUOUS
  0
ENDTAB
  0
ENDSEC
  0
SECTION
  2
BLOCKS
  0
BLOCK
  8
0
  2
RECT
 70
64
 10
0.0000
 20
0.0000
 30
0.0000
  3
RECT
  0
SOLID
  8
0
 10
-0.5000
 20
-0.5000
 30
0.0000
 11
0.5000
 21
-0.5000
 31
0.0000
 12
-0.5000
 22
0.5000
 32
0.0000
 13
0.5000
 23
0.5000
 33
0.0000
  0
ENDBLK
  8
0
  0
BLOCK
  8
0
  2
PIE
 70
64
 10
0.0000
 20
0.0000
 30
0.0000
  3
PIE
  0
POLYLINE
  8
0
 66
1
 10
0.0000
 20
0.0000
 30
0.0000
 40
0.5000
 41
0.5000
 70
0
  0
VERTEX
  8
0
 10
0.0000
 20
-0.2500
 30
0.0000
 42
1.0000
  0
VERTEX
  8
0
 10
0.0000
 20
0.2500
 30
0.0000
 42
1.0000
  0
VERTEX
  8
0
 10
0.0000
 20
-0.2500
 30
0.0000
  0
SEQEND
  8
0
  0
ENDBLK
  8
0
  0
BLOCK
  8
0
  2
OCTAGONP
 70
64
 10
0.0000
 20
0.0000
 30
0.0000
  3
OCTAGONP
  0
POLYLINE
  8
0
 66
1
 10
0.0000
 20
0.0000
 30
0.0000
 40
0.5000
 41
0.5000
 70
0
  0
VERTEX
  8
0
 10
-0.2500
 20
-0.1036
 30
0.0000
  0
VERTEX
  8
0
 10
-0.2500
 20
0.1036
 30
0.0000
  0
VERTEX
  8
0
 10
-0.1036
 20
0.2500
 30
0.0000
  0
VERTEX
  8
0
 10
0.1036
 20
0.2500
 30
0.0000
  0
VERTEX
  8
0
 10
0.2500
 20
0.1036
 30
0.0000
  0
VERTEX
  8
0
 10
0.2500
 20
-0.1036
 30
0.0000
  0
VERTEX
  8
0
 10
0.1036
 20
-0.2500
 30
0.0000
  0
VERTEX
  8
0
 10
-0.1036
 20
-0.2500
 30
0.0000
  0
VERTEX
  8
0
 10
-0.2500
 20
-0.1036
 30
0.0000
  0
VERTEX
  8
0
 10
-0.2500
 20
0.1036
 30
0.0000
  0
SEQEND
  8
0
  0
ENDBLK
  8
0
  0
BLOCK
  8
0
  2
SQUAREP
 70
64
 10
0.0000
 20
0.0000
 30
0.0000
  3
SQUAREP
  0
SOLID
  8
0
 10
-0.5000
 20
-0.5000
 30
0.0000
 11
0.5000
 21
-0.5000
 31
0.0000
 12
-0.5000
 22
0.5000
 32
0.0000
 13
0.5000
 23
0.5000
 33
0.0000
  0
ENDBLK
  8
0
  0
BLOCK
  8
0
  2
ROUNDP
 70
64
 10
0.0000
 20
0.0000
 30
0.0000
  3
ROUNDP
  0
POLYLINE
  8
0
 66
1
 10
0.0000
 20
0.0000
 30
0.0000
 40
0.5000
 41
0.5000
 70
0
  0
VERTEX
  8
0
 10
0.0000
 20
-0.2500
 30
0.0000
 42
1.0000
  0
VERTEX
  8
0
 10
0.0000
 20
0.2500
 30
0.0000
 42
1.0000
  0
VERTEX
  8
0
 10
0.0000
 20
-0.2500
 30
0.0000
  0
SEQEND
  8
0
  0
ENDBLK
  8
0
  0
BLOCK
  8
0
  2
ANNULUSP
 70
64
 10
0.0000
 20
0.0000
 30
0.0000
  3
ANNULUSP
  0
POLYLINE
  8
0
 66
1
 10
0.0000
 20
0.0000
 30
0.0000
 40
0.5000
 41
0.5000
 70
0
  0
VERTEX
  8
0
 10
0.0000
 20
-0.2500
 30
0.0000
 42
1.0000
  0
VERTEX
  8
0
 10
0.0000
 20
0.2500
 30
0.0000
 42
1.0000
  0
VERTEX
  8
0
 10
0.0000
 20
-0.2500
 30
0.0000
  0
SEQEND
  8
0
  0
ENDBLK
  8
0
  0
BLOCK
  8
0
  2
THERMALP
 70
64
 10
0.0000
 20
0.0000
 30
0.0000
  3
THERMALP
  0
POLYLINE
  8
0
 66
1
 10
0.0000
 20
0.0000
 30
0.0000
 40
0.1000
 41
0.1000
 70
0
  0
VERTEX
  8
0
 10
-0.2379
 20
0.4500
 30
0.0000
  0
VERTEX
  8
0
 10
0.2379
 20
0.4500
 30
0.0000
  0
SEQEND
  8
0
  0
POLYLINE
  8
0
 66
1
 10
0.0000
 20
0.0000
 30
0.0000
 40
0.0500
 41
0.0500
 70
0
  0
VERTEX
  8
0
 10
0.2379
 20
0.4250
 30
0.0000
 42
1.0000
  0
VERTEX
  8
0
 10
0.2379
 20
0.4750
 30
0.0000
  0
SEQEND
  8
0
  0
POLYLINE
  8
0
 66
1
 10
0.0000
 20
0.0000
 30
0.0000
 40
0.0500
 41
0.0500
 70
0
  0
VERTEX
  8
0
 10
-0.2379
 20
0.4750
 30
0.0000
 42
1.0000
  0
VERTEX
  8
0
 10
-0.2379
 20
0.4250
 30
0.0000
  0
SEQEND
  8
0
  0
POLYLINE
  8
0
 66
1
 10
0.0000
 20
0.0000
 30
0.0000
 40
0.1000
 41
0.1000
 70
0
  0
VERTEX
  8
0
 10
0.4500
 20
0.2379
 30
0.0000
  0
VERTEX
  8
0
 10
0.4500
 20
-0.2379
 30
0.0000
  0
SEQEND
  8
0
  0
POLYLINE
  8
0
 66
1
 10
0.0000
 20
0.0000
 30
0.0000
 40
0.0500
 41
0.0500
 70
0
  0
VERTEX
  8
0
 10
0.4250
 20
-0.2379
 30
0.0000
 42
1.0000
  0
VERTEX
  8
0
 10
0.4750
 20
-0.2379
 30
0.0000
  0
SEQEND
  8
0
  0
POLYLINE
  8
0
 66
1
 10
0.0000
 20
0.0000
 30
0.0000
 40
0.0500
 41
0.0500
 70
0
  0
VERTEX
  8
0
 10
0.4750
 20
0.2379
 30
0.0000
 42
1.0000
  0
VERTEX
  8
0
 10
0.4250
 20
0.2379
 30
0.0000
  0
SEQEND
  8
0
  0
POLYLINE
  8
0
 66
1
 10
0.0000
 20
0.0000
 30
0.0000
 40
0.1000
 41
0.1000
 70
0
  0
VERTEX
  8
0
 10
0.2379
 20
-0.4500
 30
0.0000
  0
VERTEX
  8
0
 10
-0.2379
 20
-0.4500
 30
0.0000
  0
SEQEND
  8
0
  0
POLYLINE
  8
0
 66
1
 10
0.0000
 20
0.0000
 30
0.0000
 40
0.0500
 41
0.0500
 70
0
  0
VERTEX
  8
0
 10
-0.2379
 20
-0.4250
 30
0.0000
 42
1.0000
  0
VERTEX
  8
0
 10
-0.2379
 20
-0.4750
 30
0.0000
  0
SEQEND
  8
0
  0
POLYLINE
  8
0
 66
1
 10
0.0000
 20
0.0000
 30
0.0000
 40
0.0500
 41
0.0500
 70
0
  0
VERTEX
  8
0
 10
0.2379
 20
-0.4750
 30
0.0000
 42
1.0000
  0
VERTEX
  8
0
 10
0.2379
 20
-0.4250
 30
0.0000
  0
SEQEND
  8
0
  0
POLYLINE
  8
0
 66
1
 10
0.0000
 20
0.0000
 30
0.0000
 40
0.1000
 41
0.1000
 70
0
  0
VERTEX
  8
0
 10
-0.4500
 20
-0.2379
 30
0.0000
  0
VERTEX
  8
0
 10
-0.4500
 20
0.2379
 30
0.0000
  0
SEQEND
  8
0
  0
POLYLINE
  8
0
 66
1
 10
0.0000
 20
0.0000
 30
0.0000
 40
0.0500
 41
0.0500
 70
0
  0
VERTEX
  8
0
 10
-0.4250
 20
0.2379
 30
0.0000
 42
1.0000
  0
VERTEX
  8
0
 10
-0.4750
 20
0.2379
 30
0.0000
  0
SEQEND
  8
0
  0
POLYLINE
  8
0
 66
1
 10
0.0000
 20
0.0000
 30
0.0000
 40
0.0500
 41
0.0500
 70
0
  0
VERTEX
  8
0
 10
-0.4750
 20
-0.2379
 30
0.0000
 42
1.0000
  0
VERTEX
  8
0
 10
-0.4250
 20
-0.2379
 30
0.0000
  0
SEQEND
  8
0
  0
ENDBLK
  8
0
  0
BLOCK
  8
0
  2
OCTAGONV
 70
64
 10
0.0000
 20
0.0000
 30
0.0000
  3
OCTAGONV
  0
POLYLINE
  8
0
 66
1
 10
0.0000
 20
0.0000
 30
0.0000
 40
0.5000
 41
0.5000
 70
0
  0
VERTEX
  8
0
 10
-0.2500
 20
-0.1036
 30
0.0000
  0
VERTEX
  8
0
 10
-0.2500
 20
0.1036
 30
0.0000
  0
VERTEX
  8
0
 10
-0.1036
 20
0.2500
 30
0.0000
  0
VERTEX
  8
0
 10
0.1036
 20
0.2500
 30
0.0000
  0
VERTEX
  8
0
 10
0.2500
 20
0.1036
 30
0.0000
  0
VERTEX
  8
0
 10
0.2500
 20
-0.1036
 30
0.0000
  0
VERTEX
  8
0
 10
0.1036
 20
-0.2500
 30
0.0000
  0
VERTEX
  8
0
 10
-0.1036
 20
-0.2500
 30
0.0000
  0
VERTEX
  8
0
 10
-0.2500
 20
-0.1036
 30
0.0000
  0
VERTEX
  8
0
 10
-0.2500
 20
0.1036
 30
0.0000
  0
SEQEND
  8
0
  0
ENDBLK
  8
0
  0
BLOCK
  8
0
  2
SQUAREV
 70
64
 10
0.0000
 20
0.0000
 30
0.0000
  3
SQUAREV
  0
SOLID
  8
0
 10
-0.5000
 20
-0.5000
 30
0.0000
 11
0.5000
 21
-0.5000
 31
0.0000
 12
-0.5000
 22
0.5000
 32
0.0000
 13
0.5000
 23
0.5000
 33
0.0000
  0
ENDBLK
  8
0
  0
BLOCK
  8
0
  2
ROUNDV
 70
64
 10
0.0000
 20
0.0000
 30
0.0000
  3
ROUNDV
  0
POLYLINE
  8
0
 66
1
 10
0.0000
 20
0.0000
 30
0.0000
 40
0.5000
 41
0.5000
 70
0
  0
VERTEX
  8
0
 10
0.0000
 20
-0.2500
 30
0.0000
 42
1.0000
  0
VERTEX
  8
0
 10
0.0000
 20
0.2500
 30
0.0000
 42
1.0000
  0
VERTEX
  8
0
 10
0.0000
 20
-0.2500
 30
0.0000
  0
SEQEND
  8
0
  0
ENDBLK
  8
0
  0
BLOCK
  8
0
  2
ANNULUSV
 70
64
 10
0.0000
 20
0.0000
 30
0.0000
  3
ANNULUSV
  0
POLYLINE
  8
0
 66
1
 10
0.0000
 20
0.0000
 30
0.0000
 40
0.5000
 41
0.5000
 70
0
  0
VERTEX
  8
0
 10
0.0000
 20
-0.2500
 30
0.0000
 42
1.0000
  0
VERTEX
  8
0
 10
0.0000
 20
0.2500
 30
0.0000
 42
1.0000
  0
VERTEX
  8
0
 10
0.0000
 20
-0.2500
 30
0.0000
  0
SEQEND
  8
0
  0
ENDBLK
  8
0
  0
BLOCK
  8
0
  2
THERMALV
 70
64
 10
0.0000
 20
0.0000
 30
0.0000
  3
THERMALV
  0
POLYLINE
  8
0
 66
1
 10
0.0000
 20
0.0000
 30
0.0000
 40
0.1000
 41
0.1000
 70
0
  0
VERTEX
  8
0
 10
-0.2379
 20
0.4500
 30
0.0000
  0
VERTEX
  8
0
 10
0.2379
 20
0.4500
 30
0.0000
  0
SEQEND
  8
0
  0
POLYLINE
  8
0
 66
1
 10
0.0000
 20
0.0000
 30
0.0000
 40
0.0500
 41
0.0500
 70
0
  0
VERTEX
  8
0
 10
0.2379
 20
0.4250
 30
0.0000
 42
1.0000
  0
VERTEX
  8
0
 10
0.2379
 20
0.4750
 30
0.0000
  0
SEQEND
  8
0
  0
POLYLINE
  8
0
 66
1
 10
0.0000
 20
0.0000
 30
0.0000
 40
0.0500
 41
0.0500
 70
0
  0
VERTEX
  8
0
 10
-0.2379
 20
0.4750
 30
0.0000
 42
1.0000
  0
VERTEX
  8
0
 10
-0.2379
 20
0.4250
 30
0.0000
  0
SEQEND
  8
0
  0
POLYLINE
  8
0
 66
1
 10
0.0000
 20
0.0000
 30
0.0000
 40
0.1000
 41
0.1000
 70
0
  0
VERTEX
  8
0
 10
0.4500
 20
0.2379
 30
0.0000
  0
VERTEX
  8
0
 10
0.4500
 20
-0.2379
 30
0.0000
  0
SEQEND
  8
0
  0
POLYLINE
  8
0
 66
1
 10
0.0000
 20
0.0000
 30
0.0000
 40
0.0500
 41
0.0500
 70
0
  0
VERTEX
  8
0
 10
0.4250
 20
-0.2379
 30
0.0000
 42
1.0000
  0
VERTEX
  8
0
 10
0.4750
 20
-0.2379
 30
0.0000
  0
SEQEND
  8
0
  0
POLYLINE
  8
0
 66
1
 10
0.0000
 20
0.0000
 30
0.0000
 40
0.0500
 41
0.0500
 70
0
  0
VERTEX
  8
0
 10
0.4750
 20
0.2379
 30
0.0000
 42
1.0000
  0
VERTEX
  8
0
 10
0.4250
 20
0.2379
 30
0.0000
  0
SEQEND
  8
0
  0
POLYLINE
  8
0
 66
1
 10
0.0000
 20
0.0000
 30
0.0000
 40
0.1000
 41
0.1000
 70
0
  0
VERTEX
  8
0
 10
0.2379
 20
-0.4500
 30
0.0000
  0
VERTEX
  8
0
 10
-0.2379
 20
-0.4500
 30
0.0000
  0
SEQEND
  8
0
  0
POLYLINE
  8
0
 66
1
 10
0.0000
 20
0.0000
 30
0.0000
 40
0.0500
 41
0.0500
 70
0
  0
VERTEX
  8
0
 10
-0.2379
 20
-0.4250
 30
0.0000
 42
1.0000
  0
VERTEX
  8
0
 10
-0.2379
 20
-0.4750
 30
0.0000
  0
SEQEND
  8
0
  0
POLYLINE
  8
0
 66
1
 10
0.0000
 20
0.0000
 30
0.0000
 40
0.0500
 41
0.0500
 70
0
  0
VERTEX
  8
0
 10
0.2379
 20
-0.4750
 30
0.0000
 42
1.0000
  0
VERTEX
  8
0
 10
0.2379
 20
-0.4250
 30
0.0000
  0
SEQEND
  8
0
  0
POLYLINE
  8
0
 66
1
 10
0.0000
 20
0.0000
 30
0.0000
 40
0.1000
 41
0.1000
 70
0
  0
VERTEX
  8
0
 10
-0.4500
 20
-0.2379
 30
0.0000
  0
VERTEX
  8
0
 10
-0.4500
 20
0.2379
 30
0.0000
  0
SEQEND
  8
0
  0
POLYLINE
  8
0
 66
1
 10
0.0000
 20
0.0000
 30
0.0000
 40
0.0500
 41
0.0500
 70
0
  0
VERTEX
  8
0
 10
-0.4250
 20
0.2379
 30
0.0000
 42
1.0000
  0
VERTEX
  8
0
 10
-0.4750
 20
0.2379
 30
0.0000
  0
SEQEND
  8
0
  0
POLYLINE
  8
0
 66
1
 10
0.0000
 20
0.0000
 30
0.0000
 40
0.0500
 41
0.0500
 70
0
  0
VERTEX
  8
0
 10
-0.4750
 20
-0.2379
 30
0.0000
 42
1.0000
  0
VERTEX
  8
0
 10
-0.4250
 20
-0.2379
 30
0.0000
  0
SEQEND
  8
0
  0
ENDBLK
  8
0
  0
ENDSEC
  0
SECTION
  2
ENTITIES
  0
LINE
  8
20
 10
0.0000
 20
0.0000
 30
0.0000
 11
99.0600
 21
0.0000
 31
0.0000
  0
LINE
  8
20
 10
99.0600
 20
0.0000
 30
0.0000
 11
99.0600
 21
60.9600
 31
0.0000
  0
LINE
  8
20
 10
99.0600
 20
60.9600
 30
0.0000
 11
0.0000
 21
60.9600
 31
0.0000
  0
LINE
  8
20
 10
0.0000
 20
60.9600
 30
0.0000
 11
0.0000
 21
0.0000
 31
0.0000
  0
POLYLINE
  8
115
 66
1
 10
0.0000
 20
0.0000
 30
0.0000
 40
1.0160
 41
1.0160
 70
0
  0
VERTEX
  8
115
 10
0.0000
 20
55.8800
 30
0.0000
  0
VERTEX
  8
115
 10
10.1600
 20
55.8800
 30
0.0000
  0
SEQEND
  8
0
  0
POLYLINE
  8
115
 66
1
 10
0.0000
 20
0.0000
 30
0.0000
 40
0.5080
 41
0.5080
 70
0
  0
VERTEX
  8
115
 10
10.1600
 20
55.6260
 30
0.0000
 42
1.0000
  0
VERTEX
  8
115
 10
10.1600
 20
56.1340
 30
0.0000
  0
SEQEND
  8
0
  0
POLYLINE
  8
115
 66
1
 10
0.0000
 20
0.0000
 30
0.0000
 40
0.5080
 41
0.5080
 70
0
  0
VERTEX
  8
115
 10
0.0000
 20
56.1340
 30
0.0000
 42
1.0000
  0
VERTEX
  8
115
 10
0.0000
 20
55.6260
 30
0.0000
  0
SEQEND
  8
0
  0
POLYLINE
  8
115
 66
1
 10
0.0000
 20
0.0000
 30
0.0000
 40
1.0160
 41
1.0160
 70
0
  0
VERTEX
  8
115
 10
10.1600
 20
55.8800
 30
0.0000
  0
VERTEX
  8
115
 10
55.8800
 20
55.8800
 30
0.0000
  0
SEQEND
  8
0
  0
POLYLINE
  8
115
 66
1
 10
0.0000
 20
0.0000
 30
0.0000
 40
0.5080
 41
0.5080
 70
0
  0
VERTEX
  8
115
 10
55.8800
 20
55.6260
 30
0.0000
 42
1.0000
  0
VERTEX
  8
115
 10
55.8800
 20
56.1340
 30
0.0000
  0
SEQEND
  8
0
  0
POLYLINE
  8
115
 66
1
 10
0.0000
 20
0.0000
 30
0.0000
 40
0.5080
 41
0.5080
 70
0
  0
VERTEX
  8
115
 10
10.1600
 20
56.1340
 30
0.0000
 42
1.0000
  0
VERTEX
  8
115
 10
10.1600
 20
55.6260
 30
0.0000
  0
SEQEND
  8
0
  0
POLYLINE
  8
115
 66
1
 10
0.0000
 20
0.0000
 30
0.0000
 40
1.0160
 41
1.0160
 70
0
  0
VERTEX
  8
115
 10
55.8800
 20
55.8800
 30
0.0000
  0
VERTEX
  8
115
 10
71.1200
 20
55.8800
 30
0.0000
  0
SEQEND
  8
0
  0
POLYLINE
  8
115
 66
1
 10
0.0000
 20
0.0000
 30
0.0000
 40
0.5080
 41
0.5080
 70
0
  0
VERTEX
  8
115
 10
71.1200
 20
55.6260
 30
0.0000
 42
1.0000
  0
VERTEX
  8
115
 10
71.1200
 20
56.1340
 30
0.0000
  0
SEQEND
  8
0
  0
POLYLINE
  8
115
 66
1
 10
0.0000
 20
0.0000
 30
0.0000
 40
0.5080
 41
0.5080
 70
0
  0
VERTEX
  8
115
 10
55.8800
 20
56.1340
 30
0.0000
 42
1.0000
  0
VERTEX
  8
115
 10
55.8800
 20
55.6260
 30
0.0000
  0
SEQEND
  8
0
  0
POLYLINE
  8
115
 66
1
 10
0.0000
 20
0.0000
 30
0.0000
 40
1.0160
 41
1.0160
 70
0
  0
VERTEX
  8
115
 10
55.8800
 20
55.8800
 30
0.0000
  0
VERTEX
  8
115
 10
66.0400
 20
45.7200
 30
0.0000
  0
SEQEND
  8
0
  0
POLYLINE
  8
115
 66
1
 10
0.0000
 20
0.0000
 30
0.0000
 40
0.5080
 41
0.5080
 70
0
  0
VERTEX
  8
115
 10
65.8604
 20
45.5404
 30
0.0000
 42
1.0000
  0
VERTEX
  8
115
 10
66.2196
 20
45.8996
 30
0.0000
  0
SEQEND
  8
0
  0
POLYLINE
  8
115
 66
1
 10
0.0000
 20
0.0000
 30
0.0000
 40
0.5080
 41
0.5080
 70
0
  0
VERTEX
  8
115
 10
56.0596
 20
56.0596
 30
0.0000
 42
1.0000
  0
VERTEX
  8
115
 10
55.7004
 20
55.7004
 30
0.0000
  0
SEQEND
  8
0
  0
POLYLINE
  8
115
 66
1
 10
0.0000
 20
0.0000
 30
0.0000
 40
1.0160
 41
1.0160
 70
0
  0
VERTEX
  8
115
 10
66.0400
 20
45.7200
 30
0.0000
  0
VERTEX
  8
115
 10
20.3200
 20
45.7200
 30
0.0000
  0
SEQEND
  8
0
  0
POLYLINE
  8
115
 66
1
 10
0.0000
 20
0.0000
 30
0.0000
 40
0.5080
 41
0.5080
 70
0
  0
VERTEX
  8
115
 10
20.3200
 20
45.9740
 30
0.0000
 42
1.0000
  0
VERTEX
  8
115
 10
20.3200
 20
45.4660
 30
0.0000
  0
SEQEND
  8
0
  0
POLYLINE
  8
115
 66
1
 10
0.0000
 20
0.0000
 30
0.0000
 40
0.5080
 41
0.5080
 70
0
  0
VERTEX
  8
115
 10
66.0400
 20
45.4660
 30
0.0000
 42
1.0000
  0
VERTEX
  8
115
 10
66.0400
 20
45.9740
 30
0.0000
  0
SEQEND
  8
0
  0
POLYLINE
  8
115
 66
1
 10
0.0000
 20
0.0000
 30
0.0000
 40
1.0160
 41
1.0160
 70
0
  0
VERTEX
  8
115
 10
20.3200
 20
45.7200
 30
0.0000
  0
VERTEX
  8
115
 10
0.0000
 20
45.7200
 30
0.0000
  0
SEQEND
  8
0
  0
POLYLINE
  8
115
 66
1
 10
0.0000
 20
0.0000
 30
0.0000
 40
0.5080
 41
0.5080
 70
0
  0
VERTEX
  8
115
 10
0.0000
 20
45.9740
 30
0.0000
 42
1.0000
  0
VERTEX
  8
115
 10
0.0000
 20
45.4660
 30
0.0000
  0
SEQEND
  8
0
  0
POLYLINE
  8
115
 66
1
 10
0.0000
 20
0.0000
 30
0.0000
 40
0.5080
 41
0.5080
 70
0
  0
VERTEX
  8
115
 10
20.3200
 20
45.4660
 30
0.0000
 42
1.0000
  0
VERTEX
  8
115
 10
20.3200
 20
45.9740
 30
0.0000
  0
SEQEND
  8
0
  0
POLYLINE
  8
115
 66
1
 10
0.0000
 20
0.0000
 30
0.0000
 40
1.0160
 41
1.0160
 70
0
  0
VERTEX
  8
115
 10
66.0400
 20
45.7200
 30
0.0000
  0
VERTEX
  8
115
 10
76.2000
 20
35.5600
 30
0.0000
  0
SEQEND
  8
0
  0
POLYLINE
  8
115
 66
1
 10
0.0000
 20
0.0000
 30
0.0000
 40
0.5080
 41
0.5080
 70
0
  0
VERTEX
  8
115
 10
76.0204
 20
35.3804
 30
0.0000
 42
1.0000
  0
VERTEX
  8
115
 10
76.3796
 20
35.7396
 30
0.0000
  0
SEQEND
  8
0
  0
POLYLINE
  8
115
 66
1
 10
0.0000
 20
0.0000
 30
0.0000
 40
0.5080
 41
0.5080
 70
0
  0
VERTEX
  8
115
 10
66.2196
 20
45.8996
 30
0.0000
 42
1.0000
  0
VERTEX
  8
115
 10
65.8604
 20
45.5404
 30
0.0000
  0
SEQEND
  8
0
  0
POLYLINE
  8
115
 66
1
 10
0.0000
 20
0.0000
 30
0.0000
 40
1.0160
 41
1.0160
 70
0
  0
VERTEX
  8
115
 10
76.2000
 20
35.5600
 30
0.0000
  0
VERTEX
  8
115
 10
86.3600
 20
35.5600
 30
0.0000
  0
SEQEND
  8
0
  0
POLYLINE
  8
115
 66
1
 10
0.0000
 20
0.0000
 30
0.0000
 40
0.5080
 41
0.5080
 70
0
  0
VERTEX
  8
115
 10
86.3600
 20
35.3060
 30
0.0000
 42
1.0000
  0
VERTEX
  8
115
 10
86.3600
 20
35.8140
 30
0.0000
  0
SEQEND
  8
0
  0
POLYLINE
  8
115
 66
1
 10
0.0000
 20
0.0000
 30
0.0000
 40
0.5080
 41
0.5080
 70
0
  0
VERTEX
  8
115
 10
76.2000
 20
35.8140
 30
0.0000
 42
1.0000
  0
VERTEX
  8
115
 10
76.2000
 20
35.3060
 30
0.0000
  0
SEQEND
  8
0
  0
POLYLINE
  8
115
 66
1
 10
0.0000
 20
0.0000
 30
0.0000
 40
1.0160
 41
1.0160
 70
0
  0
VERTEX
  8
115
 10
76.2000
 20
35.5600
 30
0.0000
  0
VERTEX
  8
115
 10
0.0000
 20
35.5600
 30
0.0000
  0
SEQEND
  8
0
  0
POLYLINE
  8
115
 66
1
 10
0.0000
 20
0.0000
 30
0.0000
 40
0.5080
 41
0.5080
 70
0
  0
VERTEX
  8
115
 10
0.0000
 20
35.8140
 30
0.0000
 42
1.0000
  0
VERTEX
  8
115
 10
0.0000
 20
35.3060
 30
0.0000
  0
SEQEND
  8
0
  0
POLYLINE
  8
115
 66
1
 10
0.0000
 20
0.0000
 30
0.0000
 40
0.5080
 41
0.5080
 70
0
  0
VERTEX
  8
115
 10
76.2000
 20
35.3060
 30
0.0000
 42
1.0000
  0
VERTEX
  8
115
 10
76.2000
 20
35.8140
 30
0.0000
  0
SEQEND
  8
0
  0
POLYLINE
  8
115
 66
1
 10
0.0000
 20
0.0000
 30
0.0000
 40
1.0160
 41
1.0160
 70
0
  0
VERTEX
  8
115
 10
0.0000
 20
5.0800
 30
0.0000
  0
VERTEX
  8
115
 10
10.1600
 20
5.0800
 30
0.0000
  0
SEQEND
  8
0
  0
POLYLINE
  8
115
 66
1
 10
0.0000
 20
0.0000
 30
0.0000
 40
0.5080
 41
0.5080
 70
0
  0
VERTEX
  8
115
 10
10.1600
 20
4.8260
 30
0.0000
 42
1.0000
  0
VERTEX
  8
115
 10
10.1600
 20
5.3340
 30
0.0000
  0
SEQEND
  8
0
  0
POLYLINE
  8
115
 66
1
 10
0.0000
 20
0.0000
 30
0.0000
 40
0.5080
 41
0.5080
 70
0
  0
VERTEX
  8
115
 10
0.0000
 20
5.3340
 30
0.0000
 42
1.0000
  0
VERTEX
  8
115
 10
0.0000
 20
4.8260
 30
0.0000
  0
SEQEND
  8
0
  0
POLYLINE
  8
115
 66
1
 10
0.0000
 20
0.0000
 30
0.0000
 40
1.0160
 41
1.0160
 70
0
  0
VERTEX
  8
115
 10
10.1600
 20
5.0800
 30
0.0000
  0
VERTEX
  8
115
 10
55.8800
 20
5.0800
 30
0.0000
  0
SEQEND
  8
0
  0
POLYLINE
  8
115
 66
1
 10
0.0000
 20
0.0000
 30
0.0000
 40
0.5080
 41
0.5080
 70
0
  0
VERTEX
  8
115
 10
55.8800
 20
4.8260
 30
0.0000
 42
1.0000
  0
VERTEX
  8
115
 10
55.8800
 20
5.3340
 30
0.0000
  0
SEQEND
  8
0
  0
POLYLINE
  8
115
 66
1
 10
0.0000
 20
0.0000
 30
0.0000
 40
0.5080
 41
0.5080
 70
0
  0
VERTEX
  8
115
 10
10.1600
 20
5.3340
 30
0.0000
 42
1.0000
  0
VERTEX
  8
115
 10
10.1600
 20
4.8260
 30
0.0000
  0
SEQEND
  8
0
  0
POLYLINE
  8
115
 66
1
 10
0.0000
 20
0.0000
 30
0.0000
 40
1.0160
 41
1.0160
 70
0
  0
VERTEX
  8
115
 10
55.8800
 20
5.0800
 30
0.0000
  0
VERTEX
  8
115
 10
71.1200
 20
5.0800
 30
0.0000
  0
SEQEND
  8
0
  0
POLYLINE
  8
115
 66
1
 10
0.0000
 20
0.0000
 30
0.0000
 40
0.5080
 41
0.5080
 70
0
  0
VERTEX
  8
115
 10
71.1200
 20
4.8260
 30
0.0000
 42
1.0000
  0
VERTEX
  8
115
 10
71.1200
 20
5.3340
 30
0.0000
  0
SEQEND
  8
0
  0
POLYLINE
  8
115
 66
1
 10
0.0000
 20
0.0000
 30
0.0000
 40
0.5080
 41
0.5080
 70
0
  0
VERTEX
  8
115
 10
55.8800
 20
5.3340
 30
0.0000
 42
1.0000
  0
VERTEX
  8
115
 10
55.8800
 20
4.8260
 30
0.0000
  0
SEQEND
  8
0
  0
POLYLINE
  8
115
 66
1
 10
0.0000
 20
0.0000
 30
0.0000
 40
1.0160
 41
1.0160
 70
0
  0
VERTEX
  8
115
 10
55.8800
 20
5.0800
 30
0.0000
  0
VERTEX
  8
115
 10
66.0400
 20
15.2400
 30
0.0000
  0
SEQEND
  8
0
  0
POLYLINE
  8
115
 66
1
 10
0.0000
 20
0.0000
 30
0.0000
 40
0.5080
 41
0.5080
 70
0
  0
VERTEX
  8
115
 10
66.2196
 20
15.0604
 30
0.0000
 42
1.0000
  0
VERTEX
  8
115
 10
65.8604
 20
15.4196
 30
0.0000
  0
SEQEND
  8
0
  0
POLYLINE
  8
115
 66
1
 10
0.0000
 20
0.0000
 30
0.0000
 40
0.5080
 41
0.5080
 70
0
  0
VERTEX
  8
115
 10
55.7004
 20
5.2596
 30
0.0000
 42
1.0000
  0
VERTEX
  8
115
 10
56.0596
 20
4.9004
 30
0.0000
  0
SEQEND
  8
0
  0
POLYLINE
  8
115
 66
1
 10
0.0000
 20
0.0000
 30
0.0000
 40
1.0160
 41
1.0160
 70
0
  0
VERTEX
  8
115
 10
66.0400
 20
15.2400
 30
0.0000
  0
VERTEX
  8
115
 10
76.2000
 20
25.4000
 30
0.0000
  0
SEQEND
  8
0
  0
POLYLINE
  8
115
 66
1
 10
0.0000
 20
0.0000
 30
0.0000
 40
0.5080
 41
0.5080
 70
0
  0
VERTEX
  8
115
 10
76.3796
 20
25.2204
 30
0.0000
 42
1.0000
  0
VERTEX
  8
115
 10
76.0204
 20
25.5796
 30
0.0000
  0
SEQEND
  8
0
  0
POLYLINE
  8
115
 66
1
 10
0.0000
 20
0.0000
 30
0.0000
 40
0.5080
 41
0.5080
 70
0
  0
VERTEX
  8
115
 10
65.8604
 20
15.4196
 30
0.0000
 42
1.0000
  0
VERTEX
  8
115
 10
66.2196
 20
15.0604
 30
0.0000
  0
SEQEND
  8
0
  0
POLYLINE
  8
115
 66
1
 10
0.0000
 20
0.0000
 30
0.0000
 40
1.0160
 41
1.0160
 70
0
  0
VERTEX
  8
115
 10
76.2000
 20
25.4000
 30
0.0000
  0
VERTEX
  8
115
 10
86.3600
 20
25.4000
 30
0.0000
  0
SEQEND
  8
0
  0
POLYLINE
  8
115
 66
1
 10
0.0000
 20
0.0000
 30
0.0000
 40
0.5080
 41
0.5080
 70
0
  0
VERTEX
  8
115
 10
86.3600
 20
25.1460
 30
0.0000
 42
1.0000
  0
VERTEX
  8
115
 10
86.3600
 20
25.6540
 30
0.0000
  0
SEQEND
  8
0
  0
POLYLINE
  8
115
 66
1
 10
0.0000
 20
0.0000
 30
0.0000
 40
0.5080
 41
0.5080
 70
0
  0
VERTEX
  8
115
 10
76.2000
 20
25.6540
 30
0.0000
 42
1.0000
  0
VERTEX
  8
115
 10
76.2000
 20
25.1460
 30
0.0000
  0
SEQEND
  8
0
  0
POLYLINE
  8
115
 66
1
 10
0.0000
 20
0.0000
 30
0.0000
 40
1.0160
 41
1.0160
 70
0
  0
VERTEX
  8
115
 10
86.3600
 20
25.4000
 30
0.0000
  0
VERTEX
  8
115
 10
99.0600
 20
25.4000
 30
0.0000
  0
SEQEND
  8
0
  0
POLYLINE
  8
115
 66
1
 10
0.0000
 20
0.0000
 30
0.0000
 40
0.5080
 41
0.5080
 70
0
  0
VERTEX
  8
115
 10
99.0600
 20
25.1460
 30
0.0000
 42
1.0000
  0
VERTEX
  8
115
 10
99.0600
 20
25.6540
 30
0.0000
  0
SEQEND
  8
0
  0
POLYLINE
  8
115
 66
1
 10
0.0000
 20
0.0000
 30
0.0000
 40
0.5080
 41
0.5080
 70
0
  0
VERTEX
  8
115
 10
86.3600
 20
25.6540
 30
0.0000
 42
1.0000
  0
VERTEX
  8
115
 10
86.3600
 20
25.1460
 30
0.0000
  0
SEQEND
  8
0
  0
POLYLINE
  8
115
 66
1
 10
0.0000
 20
0.0000
 30
0.0000
 40
1.0160
 41
1.0160
 70
0
  0
VERTEX
  8
115
 10
76.2000
 20
25.4000
 30
0.0000
  0
VERTEX
  8
115
 10
0.0000
 20
25.4000
 30
0.0000
  0
SEQEND
  8
0
  0
POLYLINE
  8
115
 66
1
 10
0.0000
 20
0.0000
 30
0.0000
 40
0.5080
 41
0.5080
 70
0
  0
VERTEX
  8
115
 10
0.0000
 20
25.6540
 30
0.0000
 42
1.0000
  0
VERTEX
  8
115
 10
0.0000
 20
25.1460
 30
0.0000
  0
SEQEND
  8
0
  0
POLYLINE
  8
115
 66
1
 10
0.0000
 20
0.0000
 30
0.0000
 40
0.5080
 41
0.5080
 70
0
  0
VERTEX
  8
115
 10
76.2000
 20
25.1460
 30
0.0000
 42
1.0000
  0
VERTEX
  8
115
 10
76.2000
 20
25.6540
 30
0.0000
  0
SEQEND
  8
0
  0
POLYLINE
  8
115
 66
1
 10
0.0000
 20
0.0000
 30
0.0000
 40
1.0160
 41
1.0160
 70
0
  0
VERTEX
  8
115
 10
66.0400
 20
15.2400
 30
0.0000
  0
VERTEX
  8
115
 10
20.3200
 20
15.2400
 30
0.0000
  0
SEQEND
  8
0
  0
POLYLINE
  8
115
 66
1
 10
0.0000
 20
0.0000
 30
0.0000
 40
0.5080
 41
0.5080
 70
0
  0
VERTEX
  8
115
 10
20.3200
 20
15.4940
 30
0.0000
 42
1.0000
  0
VERTEX
  8
115
 10
20.3200
 20
14.9860
 30
0.0000
  0
SEQEND
  8
0
  0
POLYLINE
  8
115
 66
1
 10
0.0000
 20
0.0000
 30
0.0000
 40
0.5080
 41
0.5080
 70
0
  0
VERTEX
  8
115
 10
66.0400
 20
14.9860
 30
0.0000
 42
1.0000
  0
VERTEX
  8
115
 10
66.0400
 20
15.4940
 30
0.0000
  0
SEQEND
  8
0
  0
POLYLINE
  8
115
 66
1
 10
0.0000
 20
0.0000
 30
0.0000
 40
1.0160
 41
1.0160
 70
0
  0
VERTEX
  8
115
 10
20.3200
 20
15.2400
 30
0.0000
  0
VERTEX
  8
115
 10
0.0000
 20
15.2400
 30
0.0000
  0
SEQEND
  8
0
  0
POLYLINE
  8
115
 66
1
 10
0.0000
 20
0.0000
 30
0.0000
 40
0.5080
 41
0.5080
 70
0
  0
VERTEX
  8
115
 10
0.0000
 20
15.4940
 30
0.0000
 42
1.0000
  0
VERTEX
  8
115
 10
0.0000
 20
14.9860
 30
0.0000
  0
SEQEND
  8
0
  0
POLYLINE
  8
115
 66
1
 10
0.0000
 20
0.0000
 30
0.0000
 40
0.5080
 41
0.5080
 70
0
  0
VERTEX
  8
115
 10
20.3200
 20
14.9860
 30
0.0000
 42
1.0000
  0
VERTEX
  8
115
 10
20.3200
 20
15.4940
 30
0.0000
  0
SEQEND
  8
0
  0
POLYLINE
  8
115
 66
1
 10
0.0000
 20
0.0000
 30
0.0000
 40
1.0160
 41
1.0160
 70
0
  0
VERTEX
  8
115
 10
76.2000
 20
25.4000
 30
0.0000
  0
VERTEX
  8
115
 10
81.2800
 20
30.4800
 30
0.0000
  0
SEQEND
  8
0
  0
POLYLINE
  8
115
 66
1
 10
0.0000
 20
0.0000
 30
0.0000
 40
0.5080
 41
0.5080
 70
0
  0
VERTEX
  8
115
 10
81.4596
 20
30.3004
 30
0.0000
 42
1.0000
  0
VERTEX
  8
115
 10
81.1004
 20
30.6596
 30
0.0000
  0
SEQEND
  8
0
  0
POLYLINE
  8
115
 66
1
 10
0.0000
 20
0.0000
 30
0.0000
 40
0.5080
 41
0.5080
 70
0
  0
VERTEX
  8
115
 10
76.0204
 20
25.5796
 30
0.0000
 42
1.0000
  0
VERTEX
  8
115
 10
76.3796
 20
25.2204
 30
0.0000
  0
SEQEND
  8
0
  0
POLYLINE
  8
115
 66
1
 10
0.0000
 20
0.0000
 30
0.0000
 40
1.0160
 41
1.0160
 70
0
  0
VERTEX
  8
115
 10
81.2800
 20
30.4800
 30
0.0000
  0
VERTEX
  8
115
 10
96.5200
 20
30.4800
 30
0.0000
  0
SEQEND
  8
0
  0
POLYLINE
  8
115
 66
1
 10
0.0000
 20
0.0000
 30
0.0000
 40
0.5080
 41
0.5080
 70
0
  0
VERTEX
  8
115
 10
96.5200
 20
30.2260
 30
0.0000
 42
1.0000
  0
VERTEX
  8
115
 10
96.5200
 20
30.7340
 30
0.0000
  0
SEQEND
  8
0
  0
POLYLINE
  8
115
 66
1
 10
0.0000
 20
0.0000
 30
0.0000
 40
0.5080
 41
0.5080
 70
0
  0
VERTEX
  8
115
 10
81.2800
 20
30.7340
 30
0.0000
 42
1.0000
  0
VERTEX
  8
115
 10
81.2800
 20
30.2260
 30
0.0000
  0
SEQEND
  8
0
  0
POLYLINE
  8
115
 66
1
 10
0.0000
 20
0.0000
 30
0.0000
 40
1.0160
 41
1.0160
 70
0
  0
VERTEX
  8
115
 10
76.2000
 20
35.5600
 30
0.0000
  0
VERTEX
  8
115
 10
81.2800
 20
30.4800
 30
0.0000
  0
SEQEND
  8
0
  0
POLYLINE
  8
115
 66
1
 10
0.0000
 20
0.0000
 30
0.0000
 40
0.5080
 41
0.5080
 70
0
  0
VERTEX
  8
115
 10
81.1004
 20
30.3004
 30
0.0000
 42
1.0000
  0
VERTEX
  8
115
 10
81.4596
 20
30.6596
 30
0.0000
  0
SEQEND
  8
0
  0
POLYLINE
  8
115
 66
1
 10
0.0000
 20
0.0000
 30
0.0000
 40
0.5080
 41
0.5080
 70
0
  0
VERTEX
  8
115
 10
76.3796
 20
35.7396
 30
0.0000
 42
1.0000
  0
VERTEX
  8
115
 10
76.0204
 20
35.3804
 30
0.0000
  0
SEQEND
  8
0
  0
POLYLINE
  8
115
 66
1
 10
0.0000
 20
0.0000
 30
0.0000
 40
1.0160
 41
1.0160
 70
0
  0
VERTEX
  8
115
 10
20.3200
 20
15.2400
 30
0.0000
  0
VERTEX
  8
115
 10
10.1600
 20
5.0800
 30
0.0000
  0
SEQEND
  8
0
  0
POLYLINE
  8
115
 66
1
 10
0.0000
 20
0.0000
 30
0.0000
 40
0.5080
 41
0.5080
 70
0
  0
VERTEX
  8
115
 10
9.9804
 20
5.2596
 30
0.0000
 42
1.0000
  0
VERTEX
  8
115
 10
10.3396
 20
4.9004
 30
0.0000
  0
SEQEND
  8
0
  0
POLYLINE
  8
115
 66
1
 10
0.0000
 20
0.0000
 30
0.0000
 40
0.5080
 41
0.5080
 70
0
  0
VERTEX
  8
115
 10
20.4996
 20
15.0604
 30
0.0000
 42
1.0000
  0
VERTEX
  8
115
 10
20.1404
 20
15.4196
 30
0.0000
  0
SEQEND
  8
0
  0
POLYLINE
  8
115
 66
1
 10
0.0000
 20
0.0000
 30
0.0000
 40
1.0160
 41
1.0160
 70
0
  0
VERTEX
  8
115
 10
20.3200
 20
45.7200
 30
0.0000
  0
VERTEX
  8
115
 10
10.1600
 20
55.8800
 30
0.0000
  0
SEQEND
  8
0
  0
POLYLINE
  8
115
 66
1
 10
0.0000
 20
0.0000
 30
0.0000
 40
0.5080
 41
0.5080
 70
0
  0
VERTEX
  8
115
 10
10.3396
 20
56.0596
 30
0.0000
 42
1.0000
  0
VERTEX
  8
115
 10
9.9804
 20
55.7004
 30
0.0000
  0
SEQEND
  8
0
  0
POLYLINE
  8
115
 66
1
 10
0.0000
 20
0.0000
 30
0.0000
 40
0.5080
 41
0.5080
 70
0
  0
VERTEX
  8
115
 10
20.1404
 20
45.5404
 30
0.0000
 42
1.0000
  0
VERTEX
  8
115
 10
20.4996
 20
45.8996
 30
0.0000
  0
SEQEND
  8
0
  0
POLYLINE
  8
115
 66
1
 10
0.0000
 20
0.0000
 30
0.0000
 40
1.0160
 41
1.0160
 70
0
  0
VERTEX
  8
115
 10
86.3600
 20
35.5600
 30
0.0000
  0
VERTEX
  8
115
 10
91.4400
 20
40.6400
 30
0.0000
  0
SEQEND
  8
0
  0
POLYLINE
  8
115
 66
1
 10
0.0000
 20
0.0000
 30
0.0000
 40
0.5080
 41
0.5080
 70
0
  0
VERTEX
  8
115
 10
91.6196
 20
40.4604
 30
0.0000
 42
1.0000
  0
VERTEX
  8
115
 10
91.2604
 20
40.8196
 30
0.0000
  0
SEQEND
  8
0
  0
POLYLINE
  8
115
 66
1
 10
0.0000
 20
0.0000
 30
0.0000
 40
0.5080
 41
0.5080
 70
0
  0
VERTEX
  8
115
 10
86.1804
 20
35.7396
 30
0.0000
 42
1.0000
  0
VERTEX
  8
115
 10
86.5396
 20
35.3804
 30
0.0000
  0
SEQEND
  8
0
  0
POLYLINE
  8
115
 66
1
 10
0.0000
 20
0.0000
 30
0.0000
 40
1.0160
 41
1.0160
 70
0
  0
VERTEX
  8
115
 10
91.4400
 20
40.6400
 30
0.0000
  0
VERTEX
  8
115
 10
99.0600
 20
40.6400
 30
0.0000
  0
SEQEND
  8
0
  0
POLYLINE
  8
115
 66
1
 10
0.0000
 20
0.0000
 30
0.0000
 40
0.5080
 41
0.5080
 70
0
  0
VERTEX
  8
115
 10
99.0600
 20
40.3860
 30
0.0000
 42
1.0000
  0
VERTEX
  8
115
 10
99.0600
 20
40.8940
 30
0.0000
  0
SEQEND
  8
0
  0
POLYLINE
  8
115
 66
1
 10
0.0000
 20
0.0000
 30
0.0000
 40
0.5080
 41
0.5080
 70
0
  0
VERTEX
  8
115
 10
91.4400
 20
40.8940
 30
0.0000
 42
1.0000
  0
VERTEX
  8
115
 10
91.4400
 20
40.3860
 30
0.0000
  0
SEQEND
  8
0
  0
POLYLINE
  8
115
 66
1
 10
0.0000
 20
0.0000
 30
0.0000
 40
1.0160
 41
1.0160
 70
0
  0
VERTEX
  8
115
 10
86.3600
 20
35.5600
 30
0.0000
  0
VERTEX
  8
115
 10
99.0600
 20
35.5600
 30
0.0000
  0
SEQEND
  8
0
  0
POLYLINE
  8
115
 66
1
 10
0.0000
 20
0.0000
 30
0.0000
 40
0.5080
 41
0.5080
 70
0
  0
VERTEX
  8
115
 10
99.0600
 20
35.3060
 30
0.0000
 42
1.0000
  0
VERTEX
  8
115
 10
99.0600
 20
35.8140
 30
0.0000
  0
SEQEND
  8
0
  0
POLYLINE
  8
115
 66
1
 10
0.0000
 20
0.0000
 30
0.0000
 40
0.5080
 41
0.5080
 70
0
  0
VERTEX
  8
115
 10
86.3600
 20
35.8140
 30
0.0000
 42
1.0000
  0
VERTEX
  8
115
 10
86.3600
 20
35.3060
 30
0.0000
  0
SEQEND
  8
0
  0
POLYLINE
  8
115
 66
1
 10
0.0000
 20
0.0000
 30
0.0000
 40
1.0160
 41
1.0160
 70
0
  0
VERTEX
  8
115
 10
86.3600
 20
25.4000
 30
0.0000
  0
VERTEX
  8
115
 10
91.4400
 20
20.3200
 30
0.0000
  0
SEQEND
  8
0
  0
POLYLINE
  8
115
 66
1
 10
0.0000
 20
0.0000
 30
0.0000
 40
0.5080
 41
0.5080
 70
0
  0
VERTEX
  8
115
 10
91.2604
 20
20.1404
 30
0.0000
 42
1.0000
  0
VERTEX
  8
115
 10
91.6196
 20
20.4996
 30
0.0000
  0
SEQEND
  8
0
  0
POLYLINE
  8
115
 66
1
 10
0.0000
 20
0.0000
 30
0.0000
 40
0.5080
 41
0.5080
 70
0
  0
VERTEX
  8
115
 10
86.5396
 20
25.5796
 30
0.0000
 42
1.0000
  0
VERTEX
  8
115
 10
86.1804
 20
25.2204
 30
0.0000
  0
SEQEND
  8
0
  0
POLYLINE
  8
115
 66
1
 10
0.0000
 20
0.0000
 30
0.0000
 40
1.0160
 41
1.0160
 70
0
  0
VERTEX
  8
115
 10
91.4400
 20
20.3200
 30
0.0000
  0
VERTEX
  8
115
 10
99.0600
 20
20.3200
 30
0.0000
  0
SEQEND
  8
0
  0
POLYLINE
  8
115
 66
1
 10
0.0000
 20
0.0000
 30
0.0000
 40
0.5080
 41
0.5080
 70
0
  0
VERTEX
  8
115
 10
99.0600
 20
20.0660
 30
0.0000
 42
1.0000
  0
VERTEX
  8
115
 10
99.0600
 20
20.5740
 30
0.0000
  0
SEQEND
  8
0
  0
POLYLINE
  8
115
 66
1
 10
0.0000
 20
0.0000
 30
0.0000
 40
0.5080
 41
0.5080
 70
0
  0
VERTEX
  8
115
 10
91.4400
 20
20.5740
 30
0.0000
 42
1.0000
  0
VERTEX
  8
115
 10
91.4400
 20
20.0660
 30
0.0000
  0
SEQEND
  8
0
  0
POLYLINE
  8
117
 66
1
 10
0.0000
 20
0.0000
 30
0.0000
 40
0.1524
 41
0.1524
 70
0
  0
VERTEX
  8
117
 10
75.6920
 20
60.9600
 30
0.0000
  0
VERTEX
  8
117
 10
75.6920
 20
51.3080
 30
0.0000
  0
SEQEND
  8
0
  0
POLYLINE
  8
117
 66
1
 10
0.0000
 20
0.0000
 30
0.0000
 40
0.0762
 41
0.0762
 70
0
  0
VERTEX
  8
117
 10
75.6539
 20
51.3080
 30
0.0000
 42
1.0000
  0
VERTEX
  8
117
 10
75.7301
 20
51.3080
 30
0.0000
  0
SEQEND
  8
0
  0
POLYLINE
  8
117
 66
1
 10
0.0000
 20
0.0000
 30
0.0000
 40
0.0762
 41
0.0762
 70
0
  0
VERTEX
  8
117
 10
75.7301
 20
60.9600
 30
0.0000
 42
1.0000
  0
VERTEX
  8
117
 10
75.6539
 20
60.9600
 30
0.0000
  0
SEQEND
  8
0
  0
POLYLINE
  8
117
 66
1
 10
0.0000
 20
0.0000
 30
0.0000
 40
0.1524
 41
0.1524
 70
0
  0
VERTEX
  8
117
 10
75.6920
 20
51.3080
 30
0.0000
  0
VERTEX
  8
117
 10
99.0600
 20
51.3080
 30
0.0000
  0
SEQEND
  8
0
  0
POLYLINE
  8
117
 66
1
 10
0.0000
 20
0.0000
 30
0.0000
 40
0.0762
 41
0.0762
 70
0
  0
VERTEX
  8
117
 10
99.0600
 20
51.2699
 30
0.0000
 42
1.0000
  0
VERTEX
  8
117
 10
99.0600
 20
51.3461
 30
0.0000
  0
SEQEND
  8
0
  0
POLYLINE
  8
117
 66
1
 10
0.0000
 20
0.0000
 30
0.0000
 40
0.0762
 41
0.0762
 70
0
  0
VERTEX
  8
117
 10
75.6920
 20
51.3461
 30
0.0000
 42
1.0000
  0
VERTEX
  8
117
 10
75.6920
 20
51.2699
 30
0.0000
  0
SEQEND
  8
0
  0
POLYLINE
  8
117
 66
1
 10
0.0000
 20
0.0000
 30
0.0000
 40
0.1524
 41
0.1524
 70
0
  0
VERTEX
  8
117
 10
75.6920
 20
0.0000
 30
0.0000
  0
VERTEX
  8
117
 10
75.6920
 20
9.6520
 30
0.0000
  0
SEQEND
  8
0
  0
POLYLINE
  8
117
 66
1
 10
0.0000
 20
0.0000
 30
0.0000
 40
0.0762
 41
0.0762
 70
0
  0
VERTEX
  8
117
 10
75.7301
 20
9.6520
 30
0.0000
 42
1.0000
  0
VERTEX
  8
117
 10
75.6539
 20
9.6520
 30
0.0000
  0
SEQEND
  8
0
  0
POLYLINE
  8
117
 66
1
 10
0.0000
 20
0.0000
 30
0.0000
 40
0.0762
 41
0.0762
 70
0
  0
VERTEX
  8
117
 10
75.6539
 20
0.0000
 30
0.0000
 42
1.0000
  0
VERTEX
  8
117
 10
75.7301
 20
0.0000
 30
0.0000
  0
SEQEND
  8
0
  0
POLYLINE
  8
117
 66
1
 10
0.0000
 20
0.0000
 30
0.0000
 40
0.1524
 41
0.1524
 70
0
  0
VERTEX
  8
117
 10
75.6920
 20
9.6520
 30
0.0000
  0
VERTEX
  8
117
 10
99.0600
 20
9.6520
 30
0.0000
  0
SEQEND
  8
0
  0
POLYLINE
  8
117
 66
1
 10
0.0000
 20
0.0000
 30
0.0000
 40
0.0762
 41
0.0762
 70
0
  0
VERTEX
  8
117
 10
99.0600
 20
9.6139
 30
0.0000
 42
1.0000
  0
VERTEX
  8
117
 10
99.0600
 20
9.6901
 30
0.0000
  0
SEQEND
  8
0
  0
POLYLINE
  8
117
 66
1
 10
0.0000
 20
0.0000
 30
0.0000
 40
0.0762
 41
0.0762
 70
0
  0
VERTEX
  8
117
 10
75.6920
 20
9.6901
 30
0.0000
 42
1.0000
  0
VERTEX
  8
117
 10
75.6920
 20
9.6139
 30
0.0000
  0
SEQEND
  8
0
  0
POLYLINE
  8
117
 66
1
 10
0.0000
 20
0.0000
 30
0.0000
 40
0.1270
 41
0.1270
 70
0
  0
VERTEX
  8
117
 10
88.9000
 20
29.9750
 30
0.0000
 42
1.0000
  0
VERTEX
  8
117
 10
88.9000
 20
30.9850
 30
0.0000
 42
1.0000
  0
VERTEX
  8
117
 10
88.9000
 20
29.9750
 30
0.0000
  0
SEQEND
  8
0
  0
POLYLINE
  8
117
 66
1
 10
0.0000
 20
0.0000
 30
0.0000
 40
0.1270
 41
0.1270
 70
0
  0
VERTEX
  8
117
 10
39.3700
 20
4.5750
 30
0.0000
 42
1.0000
  0
VERTEX
  8
117
 10
39.3700
 20
5.5850
 30
0.0000
 42
1.0000
  0
VERTEX
  8
117
 10
39.3700
 20
4.5750
 30
0.0000
  0
SEQEND
  8
0
  0
POLYLINE
  8
117
 66
1
 10
0.0000
 20
0.0000
 30
0.0000
 40
0.1270
 41
0.1270
 70
0
  0
VERTEX
  8
117
 10
39.3700
 20
14.7350
 30
0.0000
 42
1.0000
  0
VERTEX
  8
117
 10
39.3700
 20
15.7450
 30
0.0000
 42
1.0000
  0
VERTEX
  8
117
 10
39.3700
 20
14.7350
 30
0.0000
  0
SEQEND
  8
0
  0
POLYLINE
  8
117
 66
1
 10
0.0000
 20
0.0000
 30
0.0000
 40
0.1270
 41
0.1270
 70
0
  0
VERTEX
  8
117
 10
39.3700
 20
24.8950
 30
0.0000
 42
1.0000
  0
VERTEX
  8
117
 10
39.3700
 20
25.9050
 30
0.0000
 42
1.0000
  0
VERTEX
  8
117
 10
39.3700
 20
24.8950
 30
0.0000
  0
SEQEND
  8
0
  0
POLYLINE
  8
117
 66
1
 10
0.0000
 20
0.0000
 30
0.0000
 40
0.1270
 41
0.1270
 70
0
  0
VERTEX
  8
117
 10
39.3700
 20
35.0550
 30
0.0000
 42
1.0000
  0
VERTEX
  8
117
 10
39.3700
 20
36.0650
 30
0.0000
 42
1.0000
  0
VERTEX
  8
117
 10
39.3700
 20
35.0550
 30
0.0000
  0
SEQEND
  8
0
  0
POLYLINE
  8
117
 66
1
 10
0.0000
 20
0.0000
 30
0.0000
 40
0.1270
 41
0.1270
 70
0
  0
VERTEX
  8
117
 10
39.3700
 20
45.2150
 30
0.0000
 42
1.0000
  0
VERTEX
  8
117
 10
39.3700
 20
46.2250
 30
0.0000
 42
1.0000
  0
VERTEX
  8
117
 10
39.3700
 20
45.2150
 30
0.0000
  0
SEQEND
  8
0
  0
POLYLINE
  8
117
 66
1
 10
0.0000
 20
0.0000
 30
0.0000
 40
0.1270
 41
0.1270
 70
0
  0
VERTEX
  8
117
 10
39.3700
 20
55.3750
 30
0.0000
 42
1.0000
  0
VERTEX
  8
117
 10
39.3700
 20
56.3850
 30
0.0000
 42
1.0000
  0
VERTEX
  8
117
 10
39.3700
 20
55.3750
 30
0.0000
  0
SEQEND
  8
0
  0
POLYLINE
  8
117
 66
1
 10
0.0000
 20
0.0000
 30
0.0000
 40
0.1270
 41
0.1270
 70
0
  0
VERTEX
  8
117
 10
80.0100
 20
28.7050
 30
0.0000
 42
1.0000
  0
VERTEX
  8
117
 10
80.0100
 20
29.7150
 30
0.0000
 42
1.0000
  0
VERTEX
  8
117
 10
80.0100
 20
28.7050
 30
0.0000
  0
SEQEND
  8
0
  0
POLYLINE
  8
117
 66
1
 10
0.0000
 20
0.0000
 30
0.0000
 40
0.1270
 41
0.1270
 70
0
  0
VERTEX
  8
117
 10
80.0100
 20
31.2450
 30
0.0000
 42
1.0000
  0
VERTEX
  8
117
 10
80.0100
 20
32.2550
 30
0.0000
 42
1.0000
  0
VERTEX
  8
117
 10
80.0100
 20
31.2450
 30
0.0000
  0
SEQEND
  8
0
  0
POLYLINE
  8
117
 66
1
 10
0.0000
 20
0.0000
 30
0.0000
 40
0.1270
 41
0.1270
 70
0
  0
VERTEX
  8
117
 10
81.2800
 20
24.8950
 30
0.0000
 42
1.0000
  0
VERTEX
  8
117
 10
81.2800
 20
25.9050
 30
0.0000
 42
1.0000
  0
VERTEX
  8
117
 10
81.2800
 20
24.8950
 30
0.0000
  0
SEQEND
  8
0
  0
POLYLINE
  8
117
 66
1
 10
0.0000
 20
0.0000
 30
0.0000
 40
0.1270
 41
0.1270
 70
0
  0
VERTEX
  8
117
 10
78.7400
 20
27.4350
 30
0.0000
 42
1.0000
  0
VERTEX
  8
117
 10
78.7400
 20
28.4450
 30
0.0000
 42
1.0000
  0
VERTEX
  8
117
 10
78.7400
 20
27.4350
 30
0.0000
  0
SEQEND
  8
0
  0
POLYLINE
  8
117
 66
1
 10
0.0000
 20
0.0000
 30
0.0000
 40
0.1270
 41
0.1270
 70
0
  0
VERTEX
  8
117
 10
71.1200
 20
24.8950
 30
0.0000
 42
1.0000
  0
VERTEX
  8
117
 10
71.1200
 20
25.9050
 30
0.0000
 42
1.0000
  0
VERTEX
  8
117
 10
71.1200
 20
24.8950
 30
0.0000
  0
SEQEND
  8
0
  0
POLYLINE
  8
117
 66
1
 10
0.0000
 20
0.0000
 30
0.0000
 40
0.1270
 41
0.1270
 70
0
  0
VERTEX
  8
117
 10
72.3900
 20
21.0850
 30
0.0000
 42
1.0000
  0
VERTEX
  8
117
 10
72.3900
 20
22.0950
 30
0.0000
 42
1.0000
  0
VERTEX
  8
117
 10
72.3900
 20
21.0850
 30
0.0000
  0
SEQEND
  8
0
  0
POLYLINE
  8
117
 66
1
 10
0.0000
 20
0.0000
 30
0.0000
 40
0.1270
 41
0.1270
 70
0
  0
VERTEX
  8
117
 10
78.7400
 20
32.5150
 30
0.0000
 42
1.0000
  0
VERTEX
  8
117
 10
78.7400
 20
33.5250
 30
0.0000
 42
1.0000
  0
VERTEX
  8
117
 10
78.7400
 20
32.5150
 30
0.0000
  0
SEQEND
  8
0
  0
POLYLINE
  8
117
 66
1
 10
0.0000
 20
0.0000
 30
0.0000
 40
0.1270
 41
0.1270
 70
0
  0
VERTEX
  8
117
 10
71.1200
 20
35.0550
 30
0.0000
 42
1.0000
  0
VERTEX
  8
117
 10
71.1200
 20
36.0650
 30
0.0000
 42
1.0000
  0
VERTEX
  8
117
 10
71.1200
 20
35.0550
 30
0.0000
  0
SEQEND
  8
0
  0
POLYLINE
  8
117
 66
1
 10
0.0000
 20
0.0000
 30
0.0000
 40
0.1270
 41
0.1270
 70
0
  0
VERTEX
  8
117
 10
72.3900
 20
38.8650
 30
0.0000
 42
1.0000
  0
VERTEX
  8
117
 10
72.3900
 20
39.8750
 30
0.0000
 42
1.0000
  0
VERTEX
  8
117
 10
72.3900
 20
38.8650
 30
0.0000
  0
SEQEND
  8
0
  0
POLYLINE
  8
117
 66
1
 10
0.0000
 20
0.0000
 30
0.0000
 40
0.1270
 41
0.1270
 70
0
  0
VERTEX
  8
117
 10
58.4200
 20
14.7350
 30
0.0000
 42
1.0000
  0
VERTEX
  8
117
 10
58.4200
 20
15.7450
 30
0.0000
 42
1.0000
  0
VERTEX
  8
117
 10
58.4200
 20
14.7350
 30
0.0000
  0
SEQEND
  8
0
  0
POLYLINE
  8
117
 66
1
 10
0.0000
 20
0.0000
 30
0.0000
 40
0.1270
 41
0.1270
 70
0
  0
VERTEX
  8
117
 10
63.5000
 20
4.5750
 30
0.0000
 42
1.0000
  0
VERTEX
  8
117
 10
63.5000
 20
5.5850
 30
0.0000
 42
1.0000
  0
VERTEX
  8
117
 10
63.5000
 20
4.5750
 30
0.0000
  0
SEQEND
  8
0
  0
POLYLINE
  8
117
 66
1
 10
0.0000
 20
0.0000
 30
0.0000
 40
0.1270
 41
0.1270
 70
0
  0
VERTEX
  8
117
 10
60.9600
 20
9.6550
 30
0.0000
 42
1.0000
  0
VERTEX
  8
117
 10
60.9600
 20
10.6650
 30
0.0000
 42
1.0000
  0
VERTEX
  8
117
 10
60.9600
 20
9.6550
 30
0.0000
  0
SEQEND
  8
0
  0
POLYLINE
  8
117
 66
1
 10
0.0000
 20
0.0000
 30
0.0000
 40
0.1270
 41
0.1270
 70
0
  0
VERTEX
  8
117
 10
12.7000
 20
14.7350
 30
0.0000
 42
1.0000
  0
VERTEX
  8
117
 10
12.7000
 20
15.7450
 30
0.0000
 42
1.0000
  0
VERTEX
  8
117
 10
12.7000
 20
14.7350
 30
0.0000
  0
SEQEND
  8
0
  0
POLYLINE
  8
117
 66
1
 10
0.0000
 20
0.0000
 30
0.0000
 40
0.1270
 41
0.1270
 70
0
  0
VERTEX
  8
117
 10
17.7800
 20
4.5750
 30
0.0000
 42
1.0000
  0
VERTEX
  8
117
 10
17.7800
 20
5.5850
 30
0.0000
 42
1.0000
  0
VERTEX
  8
117
 10
17.7800
 20
4.5750
 30
0.0000
  0
SEQEND
  8
0
  0
POLYLINE
  8
117
 66
1
 10
0.0000
 20
0.0000
 30
0.0000
 40
0.1270
 41
0.1270
 70
0
  0
VERTEX
  8
117
 10
15.2400
 20
9.6550
 30
0.0000
 42
1.0000
  0
VERTEX
  8
117
 10
15.2400
 20
10.6650
 30
0.0000
 42
1.0000
  0
VERTEX
  8
117
 10
15.2400
 20
9.6550
 30
0.0000
  0
SEQEND
  8
0
  0
POLYLINE
  8
117
 66
1
 10
0.0000
 20
0.0000
 30
0.0000
 40
0.1270
 41
0.1270
 70
0
  0
VERTEX
  8
117
 10
63.5000
 20
55.3750
 30
0.0000
 42
1.0000
  0
VERTEX
  8
117
 10
63.5000
 20
56.3850
 30
0.0000
 42
1.0000
  0
VERTEX
  8
117
 10
63.5000
 20
55.3750
 30
0.0000
  0
SEQEND
  8
0
  0
POLYLINE
  8
117
 66
1
 10
0.0000
 20
0.0000
 30
0.0000
 40
0.1270
 41
0.1270
 70
0
  0
VERTEX
  8
117
 10
58.4200
 20
45.2150
 30
0.0000
 42
1.0000
  0
VERTEX
  8
117
 10
58.4200
 20
46.2250
 30
0.0000
 42
1.0000
  0
VERTEX
  8
117
 10
58.4200
 20
45.2150
 30
0.0000
  0
SEQEND
  8
0
  0
POLYLINE
  8
117
 66
1
 10
0.0000
 20
0.0000
 30
0.0000
 40
0.1270
 41
0.1270
 70
0
  0
VERTEX
  8
117
 10
60.9600
 20
50.2950
 30
0.0000
 42
1.0000
  0
VERTEX
  8
117
 10
60.9600
 20
51.3050
 30
0.0000
 42
1.0000
  0
VERTEX
  8
117
 10
60.9600
 20
50.2950
 30
0.0000
  0
SEQEND
  8
0
  0
POLYLINE
  8
117
 66
1
 10
0.0000
 20
0.0000
 30
0.0000
 40
0.1270
 41
0.1270
 70
0
  0
VERTEX
  8
117
 10
12.7000
 20
45.2150
 30
0.0000
 42
1.0000
  0
VERTEX
  8
117
 10
12.7000
 20
46.2250
 30
0.0000
 42
1.0000
  0
VERTEX
  8
117
 10
12.7000
 20
45.2150
 30
0.0000
  0
SEQEND
  8
0
  0
POLYLINE
  8
117
 66
1
 10
0.0000
 20
0.0000
 30
0.0000
 40
0.1270
 41
0.1270
 70
0
  0
VERTEX
  8
117
 10
17.7800
 20
55.3750
 30
0.0000
 42
1.0000
  0
VERTEX
  8
117
 10
17.7800
 20
56.3850
 30
0.0000
 42
1.0000
  0
VERTEX
  8
117
 10
17.7800
 20
55.3750
 30
0.0000
  0
SEQEND
  8
0
  0
POLYLINE
  8
117
 66
1
 10
0.0000
 20
0.0000
 30
0.0000
 40
0.1270
 41
0.1270
 70
0
  0
VERTEX
  8
117
 10
15.2400
 20
50.2950
 30
0.0000
 42
1.0000
  0
VERTEX
  8
117
 10
15.2400
 20
51.3050
 30
0.0000
 42
1.0000
  0
VERTEX
  8
117
 10
15.2400
 20
50.2950
 30
0.0000
  0
SEQEND
  8
0
  0
POLYLINE
  8
117
 66
1
 10
0.0000
 20
0.0000
 30
0.0000
 40
0.1270
 41
0.1270
 70
0
  0
VERTEX
  8
117
 10
93.9800
 20
44.9900
 30
0.0000
 42
1.0000
  0
VERTEX
  8
117
 10
93.9800
 20
48.9900
 30
0.0000
 42
1.0000
  0
VERTEX
  8
117
 10
93.9800
 20
44.9900
 30
0.0000
  0
SEQEND
  8
0
  0
POLYLINE
  8
117
 66
1
 10
0.0000
 20
0.0000
 30
0.0000
 40
0.1270
 41
0.1270
 70
0
  0
VERTEX
  8
117
 10
93.9800
 20
45.3900
 30
0.0000
 42
1.0000
  0
VERTEX
  8
117
 10
93.9800
 20
48.5900
 30
0.0000
 42
1.0000
  0
VERTEX
  8
117
 10
93.9800
 20
45.3900
 30
0.0000
  0
SEQEND
  8
0
  0
CIRCLE
  8
20
 10
93.9800
 20
46.9900
 30
0.0000
 40
1.6000
  0
POLYLINE
  8
117
 66
1
 10
0.0000
 20
0.0000
 30
0.0000
 40
0.1270
 41
0.1270
 70
0
  0
VERTEX
  8
117
 10
93.9800
 20
11.9700
 30
0.0000
 42
1.0000
  0
VERTEX
  8
117
 10
93.9800
 20
15.9700
 30
0.0000
 42
1.0000
  0
VERTEX
  8
117
 10
93.9800
 20
11.9700
 30
0.0000
  0
SEQEND
  8
0
  0
POLYLINE
  8
117
 66
1
 10
0.0000
 20
0.0000
 30
0.0000
 40
0.1270
 41
0.1270
 70
0
  0
VERTEX
  8
117
 10
93.9800
 20
12.3700
 30
0.0000
 42
1.0000
  0
VERTEX
  8
117
 10
93.9800
 20
15.5700
 30
0.0000
 42
1.0000
  0
VERTEX
  8
117
 10
93.9800
 20
12.3700
 30
0.0000
  0
SEQEND
  8
0
  0
CIRCLE
  8
20
 10
93.9800
 20
13.9700
 30
0.0000
 40
1.6000
  0
POLYLINE
  8
117
 66
1
 10
0.0000
 20
0.0000
 30
0.0000
 40
0.1270
 41
0.1270
 70
0
  0
VERTEX
  8
117
 10
5.0800
 20
28.4800
 30
0.0000
 42
1.0000
  0
VERTEX
  8
117
 10
5.0800
 20
32.4800
 30
0.0000
 42
1.0000
  0
VERTEX
  8
117
 10
5.0800
 20
28.4800
 30
0.0000
  0
SEQEND
  8
0
  0
POLYLINE
  8
117
 66
1
 10
0.0000
 20
0.0000
 30
0.0000
 40
0.1270
 41
0.1270
 70
0
  0
VERTEX
  8
117
 10
5.0800
 20
28.8800
 30
0.0000
 42
1.0000
  0
VERTEX
  8
117
 10
5.0800
 20
32.0800
 30
0.0000
 42
1.0000
  0
VERTEX
  8
117
 10
5.0800
 20
28.8800
 30
0.0000
  0
SEQEND
  8
0
  0
CIRCLE
  8
20
 10
5.0800
 20
30.4800
 30
0.0000
 40
1.6000
  0
POLYLINE
  8
117
 66
1
 10
0.0000
 20
0.0000
 30
0.0000
 40
0.1270
 41
0.1270
 70
0
  0
VERTEX
  8
117
 10
93.9800
 20
28.5800
 30
0.0000
 42
1.0000
  0
VERTEX
  8
117
 10
93.9800
 20
32.3800
 30
0.0000
 42
1.0000
  0
VERTEX
  8
117
 10
93.9800
 20
28.5800
 30
0.0000
  0
SEQEND
  8
0
  0
POLYLINE
  8
117
 66
1
 10
0.0000
 20
0.0000
 30
0.0000
 40
0.1270
 41
0.1270
 70
0
  0
VERTEX
  8
117
 10
30.4800
 20
3.1800
 30
0.0000
 42
1.0000
  0
VERTEX
  8
117
 10
30.4800
 20
6.9800
 30
0.0000
 42
1.0000
  0
VERTEX
  8
117
 10
30.4800
 20
3.1800
 30
0.0000
  0
SEQEND
  8
0
  0
POLYLINE
  8
117
 66
1
 10
0.0000
 20
0.0000
 30
0.0000
 40
0.1270
 41
0.1270
 70
0
  0
VERTEX
  8
117
 10
30.4800
 20
13.3400
 30
0.0000
 42
1.0000
  0
VERTEX
  8
117
 10
30.4800
 20
17.1400
 30
0.0000
 42
1.0000
  0
VERTEX
  8
117
 10
30.4800
 20
13.3400
 30
0.0000
  0
SEQEND
  8
0
  0
POLYLINE
  8
117
 66
1
 10
0.0000
 20
0.0000
 30
0.0000
 40
0.1270
 41
0.1270
 70
0
  0
VERTEX
  8
117
 10
30.4800
 20
23.5000
 30
0.0000
 42
1.0000
  0
VERTEX
  8
117
 10
30.4800
 20
27.3000
 30
0.0000
 42
1.0000
  0
VERTEX
  8
117
 10
30.4800
 20
23.5000
 30
0.0000
  0
SEQEND
  8
0
  0
POLYLINE
  8
117
 66
1
 10
0.0000
 20
0.0000
 30
0.0000
 40
0.1270
 41
0.1270
 70
0
  0
VERTEX
  8
117
 10
30.4800
 20
33.6600
 30
0.0000
 42
1.0000
  0
VERTEX
  8
117
 10
30.4800
 20
37.4600
 30
0.0000
 42
1.0000
  0
VERTEX
  8
117
 10
30.4800
 20
33.6600
 30
0.0000
  0
SEQEND
  8
0
  0
POLYLINE
  8
117
 66
1
 10
0.0000
 20
0.0000
 30
0.0000
 40
0.1270
 41
0.1270
 70
0
  0
VERTEX
  8
117
 10
30.4800
 20
43.8200
 30
0.0000
 42
1.0000
  0
VERTEX
  8
117
 10
30.4800
 20
47.6200
 30
0.0000
 42
1.0000
  0
VERTEX
  8
117
 10
30.4800
 20
43.8200
 30
0.0000
  0
SEQEND
  8
0
  0
POLYLINE
  8
117
 66
1
 10
0.0000
 20
0.0000
 30
0.0000
 40
0.1270
 41
0.1270
 70
0
  0
VERTEX
  8
117
 10
30.4800
 20
53.9800
 30
0.0000
 42
1.0000
  0
VERTEX
  8
117
 10
30.4800
 20
57.7800
 30
0.0000
 42
1.0000
  0
VERTEX
  8
117
 10
30.4800
 20
53.9800
 30
0.0000
  0
SEQEND
  8
0
  0
POLYLINE
  8
117
 66
1
 10
0.0000
 20
0.0000
 30
0.0000
 40
0.1270
 41
0.1270
 70
0
  0
VERTEX
  8
117
 10
69.8500
 20
28.5800
 30
0.0000
 42
1.0000
  0
VERTEX
  8
117
 10
69.8500
 20
32.3800
 30
0.0000
 42
1.0000
  0
VERTEX
  8
117
 10
69.8500
 20
28.5800
 30
0.0000
  0
SEQEND
  8
0
  0
POLYLINE
  8
117
 66
1
 10
0.0000
 20
0.0000
 30
0.0000
 40
0.1270
 41
0.1270
 70
0
  0
VERTEX
  8
117
 10
81.2800
 20
18.4200
 30
0.0000
 42
1.0000
  0
VERTEX
  8
117
 10
81.2800
 20
22.2200
 30
0.0000
 42
1.0000
  0
VERTEX
  8
117
 10
81.2800
 20
18.4200
 30
0.0000
  0
SEQEND
  8
0
  0
POLYLINE
  8
117
 66
1
 10
0.0000
 20
0.0000
 30
0.0000
 40
0.1270
 41
0.1270
 70
0
  0
VERTEX
  8
117
 10
60.9600
 20
18.4200
 30
0.0000
 42
1.0000
  0
VERTEX
  8
117
 10
60.9600
 20
22.2200
 30
0.0000
 42
1.0000
  0
VERTEX
  8
117
 10
60.9600
 20
18.4200
 30
0.0000
  0
SEQEND
  8
0
  0
POLYLINE
  8
117
 66
1
 10
0.0000
 20
0.0000
 30
0.0000
 40
0.1270
 41
0.1270
 70
0
  0
VERTEX
  8
117
 10
81.2800
 20
38.7400
 30
0.0000
 42
1.0000
  0
VERTEX
  8
117
 10
81.2800
 20
42.5400
 30
0.0000
 42
1.0000
  0
VERTEX
  8
117
 10
81.2800
 20
38.7400
 30
0.0000
  0
SEQEND
  8
0
  0
POLYLINE
  8
117
 66
1
 10
0.0000
 20
0.0000
 30
0.0000
 40
0.1270
 41
0.1270
 70
0
  0
VERTEX
  8
117
 10
60.9600
 20
38.7400
 30
0.0000
 42
1.0000
  0
VERTEX
  8
117
 10
60.9600
 20
42.5400
 30
0.0000
 42
1.0000
  0
VERTEX
  8
117
 10
60.9600
 20
38.7400
 30
0.0000
  0
SEQEND
  8
0
  0
POLYLINE
  8
117
 66
1
 10
0.0000
 20
0.0000
 30
0.0000
 40
0.1270
 41
0.1270
 70
0
  0
VERTEX
  8
117
 10
52.0700
 20
8.2600
 30
0.0000
 42
1.0000
  0
VERTEX
  8
117
 10
52.0700
 20
12.0600
 30
0.0000
 42
1.0000
  0
VERTEX
  8
117
 10
52.0700
 20
8.2600
 30
0.0000
  0
SEQEND
  8
0
  0
POLYLINE
  8
117
 66
1
 10
0.0000
 20
0.0000
 30
0.0000
 40
0.1270
 41
0.1270
 70
0
  0
VERTEX
  8
117
 10
5.0800
 20
8.2600
 30
0.0000
 42
1.0000
  0
VERTEX
  8
117
 10
5.0800
 20
12.0600
 30
0.0000
 42
1.0000
  0
VERTEX
  8
117
 10
5.0800
 20
8.2600
 30
0.0000
  0
SEQEND
  8
0
  0
POLYLINE
  8
117
 66
1
 10
0.0000
 20
0.0000
 30
0.0000
 40
0.1270
 41
0.1270
 70
0
  0
VERTEX
  8
117
 10
52.0700
 20
48.9000
 30
0.0000
 42
1.0000
  0
VERTEX
  8
117
 10
52.0700
 20
52.7000
 30
0.0000
 42
1.0000
  0
VERTEX
  8
117
 10
52.0700
 20
48.9000
 30
0.0000
  0
SEQEND
  8
0
  0
POLYLINE
  8
117
 66
1
 10
0.0000
 20
0.0000
 30
0.0000
 40
0.1270
 41
0.1270
 70
0
  0
VERTEX
  8
117
 10
5.0800
 20
48.9000
 30
0.0000
 42
1.0000
  0
VERTEX
  8
117
 10
5.0800
 20
52.7000
 30
0.0000
 42
1.0000
  0
VERTEX
  8
117
 10
5.0800
 20
48.9000
 30
0.0000
  0
SEQEND
  8
0
  0
ENDSEC
  0
EOF
